<mxfile host="Electron" agent="Mozilla/5.0 (Windows NT 10.0; Win64; x64) AppleWebKit/537.36 (KHTML, like Gecko) draw.io/27.0.9 Chrome/134.0.6998.205 Electron/35.4.0 Safari/537.36" version="27.0.9">
  <diagram name="Page-1" id="oy0IvmzdyvkfBKy3oCtk">
    <mxGraphModel dx="2194" dy="1322" grid="1" gridSize="10" guides="1" tooltips="1" connect="1" arrows="1" fold="1" page="1" pageScale="1" pageWidth="827" pageHeight="1169" math="0" shadow="0">
      <root>
        <mxCell id="0" />
        <mxCell id="1" parent="0" />
        <mxCell id="b0SDCwtsSrpGWw1Ykn4l-1" value="" style="shape=image;verticalLabelPosition=bottom;labelBackgroundColor=default;verticalAlign=top;aspect=fixed;imageAspect=0;image=data:image/png,iVBORw0KGgoAAAANSUhEUgAAA+gAAAJYCAYAAADxHswlAAAAOnRFWHRTb2Z0d2FyZQBNYXRwbG90bGliIHZlcnNpb24zLjEwLjAsIGh0dHBzOi8vbWF0cGxvdGxpYi5vcmcvlHJYcgAAAAlwSFlzAAAPYQAAD2EBqD+naQAAjolJREFUeJzs3XmcjXX/x/HXmbGNfUn27BHJmqXNEilLWiw3Fam0aXUroZI2JVs7bSrSJklFCGlTKkmE7IWIFCFjzJzfH9dv5m5CoTlzzozX8/E4jznnOt9zfT/njLt73uf6LqFwOBxGkiRJkiRFVVy0C5AkSZIkSQZ0SZIkSZJiggFdkiRJkqQYYECXJEmSJCkGGNAlSZIkSYoBBnRJkiRJkmKAAV2SJEmSpBhgQJckSZIkKQYY0CVJkiRJigEGdEmSJEmSYoABXZIkSZKkGGBAlyRJkiQpBhjQJUmSJEmKAQZ0SZIkSZJigAFdkiRJkqQYYECXJEmSJCkGGNAlSZIkSYoBBnRJkiRJkmKAAV2SJEmSpBhgQJckSZIkKQYY0CVJkiRJigEGdEmSJEmSYoABXZIkSZKkGGBAlyRJkiQpBhjQJUmSJEmKAQZ0SZIkSZJigAFdkiRJkqQYYECXJEmSJCkGGNAlSZIkSYoBBnRJkiRJkmKAAV2SJEmSpBhgQJckSZIkKQYY0CVJkiRJigEGdEmSJEmSYoABXZIkSZKkGGBAlyRJkiQpBhjQJUmSJEmKAQZ0SZIkSZJigAFdkiRJkqQYYECXJEmSJCkGGNAlSZIkSYoBBnRJkiRJkmKAAV2SJEmSpBhgQJckSZIkKQYY0CVJkiRJigEGdEmSJEmSYoABXZIkSZKkGGBAlyRJkiQpBhjQJUmSJEmKAQZ0SZIy0aWXXkqFChWO+LX58+fP2IIkSVLMMKBLkqSou+uuuwiFQsTFxfHjjz/u9/yOHTtISEggFApx3XXXHfAcS5cuJRQKkSdPHn777bcDtmnWrBmhUCjtVrRoUU4++WSee+45UlJS0tpdeuml6dr9+ZYnT54Mec+SJP1VjmgXIEmSlCp37ty8/PLL3HrrremOT5o06R9fO378eEqWLMmvv/7KxIkTueKKKw7YrmzZsgwZMgSALVu28OKLL3L55Zfz/fff88ADD6Sr5Zlnntnv9fHx8YfzliRJOmQGdElStrFr1y7y5csX7TL0L7Rp0+aAAX3ChAm0bduWN95444CvC4fDTJgwgW7durFmzRpeeumlgwb0QoUKcfHFF6c9vuqqq6hWrRqPPfYY99xzDzlz5gQgR44c6dpJkhRpDnGXJGVJqUOiv/vuO7p160aRIkU47bTT0p4fP3489evXJyEhgaJFi/Kf//zngEOnH3/8cSpVqkRCQgINGzbko48+olmzZjRr1uyw6nnrrbdo27YtpUuXJnfu3FSuXJl77rmH5OTkv33d2rVrCYVCDBs2jJEjR1K+fHkSEhJo2rQpixcvPuBrNmzYwHnnnUf+/PkpXrw4ffv23a+fYcOGccopp1CsWDESEhKoX78+EydO/Mf3cd1115E/f352796933Ndu3alZMmSaX19+eWXtG7dmmOOOYaEhAQqVqzIZZdd9o99/J1u3bqxcOFCli1blnZs06ZNzJ49m27duh30dZ988glr167lP//5D//5z3/48MMPWb9+/SH1mTdvXho3bsyuXbvYsmXLv6pfkqR/w4AuScrSOnXqxO7du7n//vvp1asXAPfddx/du3enatWqjBgxgptuuolZs2ZxxhlnpJub/OSTT3LddddRtmxZhg4dyumnn8555513yMHuz55//nny589Pnz59ePjhh6lfvz533nknt9122yG9/sUXX+SRRx6hd+/e9O/fn8WLF9OiRQs2b96crl1ycjKtW7emWLFiDBs2jKZNmzJ8+HCeeuqpdO0efvhh6taty9133839999Pjhw56NSpE+++++7f1tGlSxd27dq1X7vdu3fz9ttv07FjR+Lj4/n5558566yzWLt2LbfddhuPPvooF110EZ999tkhvd+DOeOMMyhbtiwTJkxIO/bqq6+SP39+2rZte9DXvfTSS1SuXJmTTz6Z9u3bkzdvXl5++eVD7nf16tXEx8dTuHDhdMe3bt26323Hjh2H/b4kSTokYUmSsqBBgwaFgXDXrl3THV+7dm04Pj4+fN9996U7/u2334Zz5MiRdjwxMTFcrFix8MknnxxOSkpKa/f888+HgXDTpk0Pq57du3fvd+yqq64K582bN7xnz560Yz169AiXL18+7fGaNWvCQDghISG8fv36tOOff/55GAjffPPN6V4LhO++++50/dStWzdcv379v61n79694RNPPDHcokWLv30fKSkp4TJlyoQvvPDCdMdfe+21MBD+8MMPw+FwOPzmm2+GgfAXX3zxt+c7VKm/zy1btoT79u0brlKlStpzJ598crhnz57hcDgcBsK9e/dO99q9e/eGixUrFh44cGDasW7duoVr1669Xz9NmzYNV69ePbxly5bwli1bwkuXLg3fcMMNYSDcvn37tHapn/WBbq1bt86Q9yxJ0l95BV2SlKVdffXV6R5PmjSJlJQUOnfunO6qZ8mSJalatSpz5swBguHZv/zyC7169SJHjv8tyXLRRRdRpEiRw64jISEh7f7vv//O1q1bOf3009m9e3e64doHc95551GmTJm0xw0bNqRRo0ZMnTr1H9/z6aefzurVqw9az6+//sr27ds5/fTTWbBgwd/WEQqF6NSpE1OnTmXnzp1px1999VXKlCmTNo0g9UrzO++8Q1JS0j++v8PRrVs3Vq5cyRdffJH28++Gt0+bNo1ffvmFrl27ph3r2rUr33zzDUuWLNmv/bJlyyhevDjFixfnhBNO4NFHH6Vt27Y899xz6drlyZOHmTNn7nf780JykiRlJBeJkyRlaRUrVkz3eMWKFYTDYapWrXrA9qkLgK1btw6AKlWqpHs+R44cR7RP+ZIlS7j99tuZPXv2fkOgt2/f/o+vP1C9xx9/PK+99lq6Y3ny5KF48eLpjhUpUoRff/013bF33nmHe++9l4ULF5KYmJh2PBQK/WMtXbp0YdSoUUyZMoVu3bqxc+dOpk6dylVXXZX2+qZNm3LhhRcyePBgRo4cSbNmzTjvvPPo1q0buXPn/sc+/k7dunWpXr06EyZMoHDhwpQsWZIWLVoctP348eOpWLEiuXPnZuXKlQBUrlyZvHnz8tJLL3H//fena1+hQgWefvrptC3TqlatyrHHHrvfeePj42nZsuW/ei+SJB0OA7okKUv785VigJSUFEKhENOmTTvgdlj58+fP8Bp+++03mjZtSsGCBbn77rupXLkyefLkYcGCBfTr1y/d/tr/1qFs8fXRRx9x7rnncsYZZ/DEE09QqlQpcubMydixY9PN7T6Yxo0bU6FCBV577TW6devG22+/zR9//EGXLl3S2oRCISZOnMhnn33G22+/zfTp07nssssYPnw4n3322b/+nLt168aTTz5JgQIF6NKlC3FxBx70t2PHDt5++2327NlzwC85JkyYwH333Zfui4l8+fIZvCVJMcmALknKVipXrkw4HKZixYocf/zxB21Xvnx5AFauXEnz5s3Tju/bt4+1a9dy0kknHXKfH3zwAb/88guTJk3ijDPOSDu+Zs2aQz7HihUr9jv2/fffH9HV/DfeeIM8efIwffr0dFezx44de8jn6Ny5Mw8//DA7duzg1VdfpUKFCjRu3Hi/do0bN6Zx48bcd999TJgwgYsuuohXXnnloFucHapu3bpx55138tNPPzFu3LiDtps0aRJ79uzhySef5Jhjjkn33PLly7n99tv55JNP0q3wL0lSrHIOuiQpW7nggguIj49n8ODBhMPhdM+Fw2F++eUXABo0aECxYsV4+umn2bdvX1qbl156ab/h4v8k9ar2n/vbu3cvTzzxxCGfY/LkyWzYsCHt8fz58/n8888555xzDquW1HpCoVC6rdfWrl3L5MmTD/kcXbp0ITExkRdeeIH33nuPzp07p3v+119/3e/zrVOnDkC6IfWrVq1i1apVh/0eKleuzKhRoxgyZAgNGzY8aLvx48dTqVIlrr76ajp27Jju1rdvX/Lnz89LL7102P1LkhQNXkGXJGUrlStX5t5776V///6sXbuW8847jwIFCrBmzRrefPNNrrzySvr27UuuXLm46667uP7662nRogWdO3dm7dq1PP/881SuXPmQ5mqnOuWUUyhSpAg9evTghhtuIBQKMW7cuP0C7N+pUqUKp512Gtdccw2JiYmMGjWKYsWKceuttx72Z9C2bVtGjBjB2WefTbdu3fj55595/PHHqVKlCosWLTqkc9SrV48qVaowcOBAEhMT0w1vB3jhhRd44oknOP/886lcuTK///47Tz/9NAULFqRNmzZp7c4880wg+ILgcN14441/+/zGjRuZM2cON9xwwwGfz507N61bt+b111/nkUceSVt/4FDt27eP8ePHH/C5888/n3z58h3W+SRJ+icGdElStnPbbbdx/PHHM3LkSAYPHgxAuXLlOOusszj33HPT2l133XWEw2GGDx9O3759qV27NlOmTOGGG24gT548h9xfsWLFeOedd/jvf//L7bffTpEiRbj44os588wzad269SGdo3v37sTFxTFq1Ch+/vlnGjZsyGOPPUapUqUO780DLVq04Nlnn+WBBx7gpptuomLFijz44IOsXbv2kAM6BFfR77vvPqpUqUK9evXSPde0aVPmz5/PK6+8wubNmylUqBANGzbkpZde2m/hvkh55ZVXSElJoX379gdt0759e9544w2mTZuW7nd/KBITE7nkkksO+NyaNWsM6JKkDBcKH87X+5IkZXMpKSkUL16cCy64gKeffjri/a1du5aKFSvy0EMP0bdv34j3J0mSYpdz0CVJR609e/bsNwz9xRdfZNu2bTRr1iw6RUmSpKOWQ9wlSUetzz77jJtvvplOnTpRrFgxFixYwLPPPsuJJ55Ip06dANiyZUu6xdb+KleuXBQtWjSzSpYkSdmYAV2SdNSqUKEC5cqV45FHHmHbtm0ULVqU7t2788ADD5ArVy4ATj75ZNatW3fQczRt2pQPPvggkyqWJEnZmXPQJUn6G5988gl//PHHQZ8vUqQI9evXz8SKJElSdmVAlyRJkiQpBrhInCRJkiRJMcA56EeZlJQUNm7cSIECBQiFQtEuR5IkSVKUhMNhfv/9d0qXLk1cnNduY4EB/SizceNGypUrF+0yJEmSJMWIH3/8kbJly0a7DGFAP+oUKFAACP5HWLBgwajWkpSUxIwZMzjrrLPImTNnxF+XlRwN7/FI+LlIkqSsLpb+ntmxYwflypVLywiKPgP6USZ1WHvBggVjIqDnzZuXggULHnZAP5LXZSVHw3s8En4ukiQpq4vFv2ec+ho7nGggSZIkSVIMMKBLkiRJkhQDDOiSJEmSJMUAA7okSZIkSTHAgC5JkiRJUgwwoEuSJEmSFAMM6JIkSZIkxQADuiRJkiRJMcCALkmSJElSDDCgS5IkSZIUAwzokiRJkiTFAAO6JEmSJEkxwIAuSZIkSVIMyHIB/fHHH6dChQrkyZOHRo0aMX/+/IO2nTRpEg0aNKBw4cLky5ePOnXqMG7cuLTnk5KS6NevH7Vq1SJfvnyULl2a7t27s3HjxrQ2a9eu5fLLL6dixYokJCRQuXJlBg0axN69e9P19dprr1GnTh3y5s1L+fLleeihh/arJzExkYEDB1K+fHly585NhQoVeO6559K1ef3116levTp58uShVq1aTJ06Nd3z4XCYO++8k1KlSpGQkEDLli1ZsWLFYX2GWVlyMsydG+LDD8swd26I5ORoVyRJkiRJGSNLBfRXX32VPn36MGjQIBYsWEDt2rVp3bo1P//88wHbFy1alIEDBzJv3jwWLVpEz5496dmzJ9OnTwdg9+7dLFiwgDvuuIMFCxYwadIkli9fzrnnnpt2jmXLlpGSksKYMWNYsmQJI0eOZPTo0QwYMCCtzbRp07jooou4+uqrWbx4MU888QQjR47kscceS1dP586dmTVrFs8++yzLly/n5Zdfplq1amnPf/rpp3Tt2pXLL7+cr7/+mvPOO4/zzjuPxYsXp7UZOnQojzzyCKNHj+bzzz8nX758tG7dmj179mTIZxzLJk2CChWgVascjBjRgFatclChQnBckiRJkrK8cBbSsGHDcO/evdMeJycnh0uXLh0eMmTIIZ+jbt264dtvv/2gz8+fPz8MhNetW3fQNkOHDg1XrFgx7XHXrl3DHTt2TNfmkUceCZctWzackpISDofD4WnTpoULFSoU/uWXXw563s6dO4fbtm2b7lijRo3CV111VTgcDodTUlLCJUuWDD/00ENpz//222/h3Llzh19++eWDnvfPtm/fHgbC27dvP6T2kbR3797w5MmTw3v37v3Htm+8EQ6HQuEwpL+FQsHtjTcyoeBMdDifzdHEz0WSJGV1sfT3TCxlAwWyzBX0vXv38tVXX9GyZcu0Y3FxcbRs2ZJ58+b94+vD4TCzZs1i+fLlnHHGGQdtt337dkKhEIULF/7bNkWLFk17nJiYSJ48edK1SUhIYP369axbtw6AKVOm0KBBA4YOHUqZMmU4/vjj6du3L3/88Ufaa+bNm5fu/QG0bt067f2tWbOGTZs2pWtTqFAhGjVqdEifQVaVnAw33hhE8r9KPXbTTTjcXZIkSVKWliPaBRyqrVu3kpycTIkSJdIdL1GiBMuWLTvo67Zv306ZMmVITEwkPj6eJ554glatWh2w7Z49e+jXrx9du3alYMGCB2yzcuVKHn30UYYNG5Z2rHXr1tx8881ceumlNG/enJUrVzJ8+HAAfvrpJypUqMDq1av5+OOPyZMnD2+++SZbt27l2muv5ZdffmHs2LEAbNq06YDvb9OmTWnPpx47WJu/SkxMJDExMe3xjh07gGD+fVJS0oE/tEyS2v8/1TF3boj16w/+TzUchh9/hDlz9tG06QFSfBZ0qJ/N0cbPRZIkZXWx9PdMLNSg9LJMQD9SBQoUYOHChezcuZNZs2bRp08fKlWqRLNmzdK1S0pKonPnzoTDYZ588skDnmvDhg2cffbZdOrUiV69eqUd79WrF6tWraJdu3YkJSVRsGBBbrzxRu666y7i4oJBCikpKYRCIV566SUKFSoEwIgRI+jYsSNPPPEECQkJEXn/Q4YMYfDgwfsdnzFjBnnz5o1In4dr5syZf/v8hx+WARr843mmTVvIrl0bMqiq2PBPn83Rys9FkiRldbHw98zu3bujXYL+IssE9GOOOYb4+Hg2b96c7vjmzZspWbLkQV8XFxdHlSpVAKhTpw5Lly5lyJAh6QJ6ajhft24ds2fPPuDV840bN9K8eXNOOeUUnnrqqXTPhUIhHnzwQe6//342bdpE8eLFmTVrFgCVKlUCoFSpUpQpUyYtnAOccMIJhMNh1q9fT9WqVSlZsuTfvr/Un5s3b6ZUqVLp2tSpU+eA779///706dMn7fGOHTsoV64cZ5111kFHCWSWpKQkZs6cSatWrciZM+dB2+XLF2LEiH8+3znn1KFp09oZWGH0HOpnc7Txc5EkSVldLP09kzq6VrEjywT0XLlyUb9+fWbNmsV5550HBFelZ82axXXXXXfI50lJSUk35Ds1nK9YsYI5c+ZQrFix/V6zYcMGmjdvTv369Rk7dmzaVfG/io+Pp0yZMgC8/PLLNGnShOLFiwNw6qmn8vrrr7Nz507y588PwPfff09cXBxly5YFoEmTJsyaNYubbrop7ZwzZ86kSZMmAFSsWJGSJUsya9astEC+Y8cOPv/8c6655poD1pQ7d25y58693/GcOXNG/T8Iqf6plubNoWxZ2LDhwPPQQ6Hg+ebNcxAfH8FCoyCWfk+xxM9FkiRldbHw90y0+9f+skxAB+jTpw89evSgQYMGNGzYkFGjRrFr1y569uwJQPfu3SlTpgxDhgwBguHdDRo0oHLlyiQmJjJ16lTGjRuXNoQ9KSmJjh07smDBAt555x2Sk5PT5nIXLVqUXLlysWHDBpo1a0b58uUZNmwYW7ZsSasn9Yr21q1bmThxIs2aNWPPnj2MHTuW119/nblz56a17datG/fccw89e/Zk8ODBbN26lVtuuYXLLrssbXj7jTfeSNOmTRk+fDht27bllVde4csvv0y7Yh8Khbjpppu49957qVq1KhUrVuSOO+6gdOnSaV9aZEfx8fDww9Cx48HbjBpFtgvnkiRJko4uWSqgd+nShS1btnDnnXeyadMm6tSpw3vvvZe2aNoPP/yQ7ur2rl27uPbaa1m/fj0JCQlUr16d8ePH06VLFyC4Mj5lyhSA/YaIz5kzh2bNmjFz5kxWrlzJypUr0650pwr/6XLuCy+8QN++fQmHwzRp0oQPPviAhg0bpj2fP39+Zs6cyfXXX0+DBg0oVqwYnTt35t57701rc8oppzBhwgRuv/12BgwYQNWqVZk8eTInnnhiWptbb72VXbt2ceWVV/Lbb79x2mmn8d577+23inx2c8EFMHEiXHwx/Gnhe3LlgpdfDp6XJEmSpKwsFA4faNCwsqsdO3ZQqFAhtm/fHhNz0KdOnUqbNm0OeXhNpUqwZg20br2W6dMrAPDzz/D/MwmyjSP5bI4Gfi6SJCmri6W/Z2IpGyiQZfZBl7ZtC8I5wCWXfEedOsF3S+++G8WiJEmSJCmDGNCVZXz1VfCzcuUw+fMn0bZtCgBvvx3FoiRJkiQpgxjQlWV8+WXws1694Mp5+/ZBQJ8+HfbsiVZVkiRJkpQxDOjKMlKvoNevHwT0unWhdGnYtQs++CB6dUmSJElSRjCgK8tIvYKeGtBDIWjfPjjmMHdJkiRJWZ0BXVnCli2wbl1wP3VxOEgf0N2PQJIkSVJWZkBXlpA6vP3446FQof8db9EC8uaFH3+Eb76JTm2SJEmSlBEM6MoSUoe3N2iQ/nhCArRqFdyfMiVza5IkSZKkjGRAV5ZwsIAOcO65wU/noUuSJEnKygzoyhL+LqC3bRssGPfll7BxY+bWJUmSJEkZxYCumPfTT7BhQxDC69bd//kSJaBRo+D+O+9kbm2SJEmSlFEM6Ip5qQvEnXAC5M9/4Dapq7k7D12SJElSVmVAV8z7u+HtqVLnoc+aBbt2Rb4mSZIkScpoBnTFvEMJ6DVrQoUKsGcPvP9+ppQlSZIkSRnKgK6YFg7/b4j73wX0UOh/w9xdzV2SJElSVmRAV0zbuBE2bYL4eKhd++/bpg5zf+cdSEmJfG2SJEmSlJEM6IppqcPba9SAvHn/vu0ZZ0DBgrB5M3zxReRrkyRJkqSMZEBXTDuU+eepcuWCs88O7ruauyRJkqSsxoCumHY4AR2chy5JkiQp6zKgK2aFw4cf0Nu0Cearf/strF0bsdIkSZIkKcMZ0BWzfvgBtm6FHDngpJMO7TVFi8Kppwb3vYouSZIkKSsxoCtmpV49r1UL8uQ59NelruZuQJckSZKUlRjQFbMOd3h7qtR56B98ADt2ZGhJkiRJkhQxBnTFrCMN6McfD9WqQVISTJ+e8XVJkiRJUiQY0BWTwmH46qvg/uEGdPjfVXS3W5MkSZKUVRjQFZPWrIFffw32Nj/xxMN/feo89KlTYd++jK1NkiRJkiLBgK6YlDq8vXbtIKQfriZNghXdt22DTz/N2NokSZIkKRIM6IpJRzr/PFWOHMGe6OBq7pIkSZKyBgO6YlJqQK9f/8jPkTrM3XnokiRJkrICA7piTkrKv1sgLlXr1pAzJ3z/PSxfnjG1SZIkSVKkGNAVc1auDPYvz5MHatQ48vMULAjNmgX3HeYuSZIkKdYZ0BVzUoe316kTXAH/N1K3WzOgS5IkSYp1BnTFnH+7QNyfpQb0jz+GX3759+eTJEmSpEgxoCvmZGRAr1ABatUK5rVPm/bvzydJkiRJkWJAV0xJToYFC4L7GRHQ4X+ruTvMXZIkSVIsM6ArpixfDrt2Qd68UL16xpwzdZj7tGmwd2/GnFOSJEmSMpoBXTEldXu1evUgPj5jznnyyVCiBPz+O3z4YcacU5IkSZIymgFdMSUj55+niouDdu2C+1OmZNx5JUmSJCkjGdAVUyIR0CH9PPRwOGPPLUmSJEkZwYCumLFvH3z9dXC/fv2MPXfLlpAnD6xdC4sXZ+y5JUmSJCkjGNAVM5YuhT/+gPz54fjjM/bcefMGIR1czV2SJElSbDKgK2akDm+vXz+YN57RUldzdx66JEmSpFhkQFfMiNT881SpC8XNnw+bNkWmD0mSJEk6UgZ0xYxIB/TSpYNzh8Pw7ruR6UOSJEmSjpQBXTFh71745pvgfqQCOvxvmLvz0CVJkiTFGgO6YsKSJZCYCIUKQeXKkesndbu1GTOCBekkSZIkKVYY0BUT/jy8PRSKXD+1a0O5ckE4nz07cv1IkiRJ0uEyoCsmfPVV8DOSw9shCP+u5i5JkiQpFhnQFRMivUDcn6UG9HfeCRaMkyRJkqRYYEBX1CUmwqJFwf3MCOjNm0P+/LBxIyxYEPn+JEmSJOlQGNAVdYsXh0hKgmLFoHz5yPeXOzecdVZw32HukiRJkmKFAV1R99VXwapw9etHdoG4P0tdzd3t1iRJkiTFCgO6oi41oGfG8PZUbdoEXwZ8/TX8+GPm9StJkiRJB2NAV9RFI6AXLw6nnBLcf+edzOtXkiRJkg7GgK6oSkyMY8mS4H5mBnRwuzVJkiRJscWArqhau7YQyckhjj0WypbN3L5T56HPng07d2Zu35IkSZL0VwZ0RdXKlYWB4Op5Zi0Ql6p6dahcGfbuhRkzMrdvSZIkSforA7qi6s8BPbOFQv8b5u5q7pIkSZKizYCuqEhOhrlzQyxadAwAdetGp47UYe7vvBPUJEmSJEnRkuUC+uOPP06FChXIkycPjRo1Yv78+QdtO2nSJBo0aEDhwoXJly8fderUYdy4cWnPJyUl0a9fP2rVqkW+fPkoXbo03bt3Z+PGjWlt1q5dy+WXX07FihVJSEigcuXKDBo0iL1796br67XXXqNOnTrkzZuX8uXL89BDD+1XzwcffEC9evXInTs3VapU4fnnn0/3fIUKFQiFQvvdevfundZm1apVnH/++RQvXpyCBQvSuXNnNm/efLgfY1RNmgQVKkCrVjn45Ze8AFx7bXA8s512GhQqBFu3wuefZ37/kiRJkpQqSwX0V199lT59+jBo0CAWLFhA7dq1ad26NT///PMB2xctWpSBAwcyb948Fi1aRM+ePenZsyfTp08HYPfu3SxYsIA77riDBQsWMGnSJJYvX865qZdVgWXLlpGSksKYMWNYsmQJI0eOZPTo0QwYMCCtzbRp07jooou4+uqrWbx4MU888QQjR47kscceS2uzZs0a2rZtS/PmzVm4cCE33XQTV1xxRVotAF988QU//fRT2m3mzJkAdOrUCYBdu3Zx1llnEQqFmD17Np988gl79+6lffv2pKSkZNwHHUGTJkHHjrB+ffrjmzYFxzM7pOfMGeyJDq7mLkmSJCnKwllIw4YNw7179057nJycHC5dunR4yJAhh3yOunXrhm+//faDPj9//vwwEF63bt1B2wwdOjRcsWLFtMddu3YNd+zYMV2bRx55JFy2bNlwSkpKOBwOh2+99dZwzZo107Xp0qVLuHXr1gft58YbbwxXrlw57RzTp08Px8XFhbdv357W5rfffguHQqHwzJkzD3qeP9u+fXsYSHeOzLJvXzhctmw4DAe+hULhcLlyQbu/s3fv3vDkyZPDe/fuzZC6JkwI+q9RI0NOlyEy+j1mF34ukiQpq4ulv2eimQ10YDmi/P3AIdu7dy9fffUV/fv3TzsWFxdHy5YtmTdv3j++PhwOM3v2bJYvX86DDz540Hbbt28nFApRuHDhv21TtGjRtMeJiYnkzZs3XZuEhATWr1/PunXrqFChAvPmzaNly5bp2rRu3ZqbbrrpgH3s3buX8ePH06dPH0L/v7x5YmIioVCI3Llzp7XLkycPcXFxfPzxx/udP/U1iYmJaY937NgBBMP7k5KSDvoeI2Hu3BDr1x/8n1w4DD/+CHPm7KNp0/BB26XWnVH1n3km5MiRg+++C7FsWRKVK2fIaf+VjH6P2YWfiyRJyupi6e+ZWKhB6WWZgL5161aSk5MpUaJEuuMlSpRg2bJlB33d9u3bKVOmDImJicTHx/PEE0/QqlWrA7bds2cP/fr1o2vXrhQsWPCAbVauXMmjjz7KsGHD0o61bt2am2++mUsvvZTmzZuzcuVKhg8fDsBPP/1EhQoV2LRp0wFr37FjB3/88QcJCQnpnps8eTK//fYbl156adqxxo0bky9fPvr168f9999POBzmtttuIzk5mZ9++umA9Q4ZMoTBgwfvd3zGjBn7fakQaR9+WAb45+Xap01byK5dG/6xXeoUgIxwwgmn8O23xXnooWWce+7qDDvvv5WR7zE78XORJElZXSz8PbN79+5ol6C/yDIB/UgVKFCAhQsXsnPnTmbNmkWfPn2oVKkSzZo1S9cuKSmJzp07Ew6HefLJJw94rg0bNnD22WfTqVMnevXqlXa8V69erFq1inbt2pGUlETBggW58cYbueuuu4iLO7Jp/s8++yznnHMOpUuXTjtWvHhxXn/9da655hoeeeQR4uLi6Nq1K/Xq1TtoP/3796dPnz5pj3fs2EG5cuU466yzDvolRKTkyxdixIh/bnfOOXVo2rT2QZ9PSkpi5syZtGrVipw5c2ZIbStXxtG3L6xZU5M2bapnyDn/jUi8x+zAz0WSJGV1sfT3TOroWsWOLBPQjznmGOLj4/dbsXzz5s2ULFnyoK+Li4ujSpUqANSpU4elS5cyZMiQdAE9NZyvW7eO2bNnHzC4bty4kebNm3PKKafw1FNPpXsuFArx4IMPcv/997Np0yaKFy/OrFmzAKhUqRIAJUuWPGDtBQsW3O/q+bp163j//feZdIAV08466yxWrVrF1q1byZEjB4ULF6ZkyZJp/fxV7ty50w2JT5UzZ85M/w9C8+ZQtixs2BAMZ/+rUCh4vnnzHMTH//P5MvI9nHce9O0LH30Ux65dcfzNDIdMFY3fU1bg5yJJkrK6WPh7Jtr9a39ZZhX3XLlyUb9+/bTgC5CSksKsWbNo0qTJIZ8nJSUl3Zzs1HC+YsUK3n//fYoVK7bfazZs2ECzZs2oX78+Y8eOPejV6vj4eMqUKUOuXLl4+eWXadKkCcWLFwegSZMm6WqHYFjLgWofO3Ysxx57LG3btj3o+zjmmGMoXLgws2fP5ueff0638nysio+Hhx8O7v//tPo0qY9HjeKQwnlGq1wZatSAffvgvfcyv39JkiRJyjJX0AH69OlDjx49aNCgAQ0bNmTUqFHs2rWLnj17AtC9e3fKlCnDkCFDgGD+dYMGDahcuTKJiYlMnTqVcePGpQ1hT0pKomPHjixYsIB33nmH5ORkNm3aBARbtOXKlSstnJcvX55hw4axZcuWtHpSr9xv3bqViRMn0qxZM/bs2cPYsWN5/fXXmTt3blrbq6++mscee4xbb72Vyy67jNmzZ/Paa6/x7rvvpnuPKSkpjB07lh49epAjx/6/nrFjx3LCCSdQvHhx5s2bx4033sjNN99MtWrVMvCTjpwLLoCJE+HGG9NvtVa2bBDOL7ggaqXRvj18912w3dp//hO9OiRJkiQdnbJUQO/SpQtbtmzhzjvvZNOmTdSpU4f33nsvbfG1H374Id3V7V27dnHttdeyfv16EhISqF69OuPHj6dLly5AcGV8yv9vfl2nTp10fc2ZM4dmzZoxc+ZMVq5cycqVKylbtmy6NuE/jdN+4YUX6Nu3L+FwmCZNmvDBBx/QsGHDtOcrVqzIu+++y80338zDDz9M2bJleeaZZ2jdunW6c77//vv88MMPXHbZZQf8DJYvX07//v3Ztm0bFSpUYODAgdx8882H+UlG1wUXQIcOwWrt06Yt5Jxz6hzysPZIOvdcePBBmDYNkpKCPdIlSZIkKbOEwuEDzQZWdrVjxw4KFSrE9u3bM32RuL9KSkpi6tSptGnT5rDmvxzp6/5JcjKULAlbt8Ls2cGc+WiJ1HvM6vxcJElSVhdLf8/EUjZQIMvMQZciLT4e2rUL7r/9dnRrkSRJknT0MaBLf9K+ffBzypQDrzQvSZIkSZFiQJf+5KyzIFcuWLUKli2LdjWSJEmSjiYGdOlP8ueHFi2C+/+/fqAkSZIkZQoDuvQXqcPcnYcuSZIkKTMZ0KW/SA3on34Kf9r2XpIkSZIiyoAu/UW5clCnTrBI3NSp0a5GkiRJ0tHCgC4dwLnnBj8d5i5JkiQpsxjQpQNIHeY+fTokJka3FkmSJElHBwO6dAD16kHp0rBzJ3zwQbSrkSRJknQ0MKBLBxAXB+3aBffdbk2SJElSZjCgSwfx53no4XB0a5EkSZKU/RnQpYNo0QISEuDHH+Gbb6JdjSRJkqTszoAuHURCApx1VnDf1dwlSZIkRZoBXfobqau5Ow9dkiRJUqQZ0KW/0bZt8PPLL2HjxujWIkmSJCl7M6BLf6NkSWjUKLj/zjvRrUWSJElS9mZAl/5B6jB356FLkiRJiiQDuvQPUrdbe/992L07urVIkiRJyr4M6NI/OPFEKF8e9uwJQrokSZIkRYIBXfoHodD/rqK7mrskSZKkSDGgS4cgdR76O+9ASkp0a5EkSZKUPRnQpUPQtCkUKACbNwdbrkmSJElSRjOgS4cgVy44++zgvsPcJUmSJEWCAV06RKnz0N1uTZIkSVIkGNClQ3TOORAXB4sWwbp10a5GkiRJUnZjQJcOUbFicNppwX2vokuSJEnKaAZ06TCkrubuPHRJkiRJGc2ALh2G1HnoH3wAO3ZEtRRJkiRJ2YwBXToMxx8f3JKSYPr0aFcjSZIkKTsxoEuHKXWYu/PQJUmSJGUkA7p0mFKHub/7LuzbF91aJEmSJGUfBnTpMJ1yChQpAtu2wbx50a5GkiRJUnZhQJcOU44c0LZtcN/V3CVJkiRlFAO6dASchy5JkiQpoxnQpSPQujXkzAnLl8P330e7GkmSJEnZgQFdOgKFCkHTpsF9r6JLkiRJyggGdOkIpa7mbkCXJEmSlBEM6NIRSp2H/vHHwYrukiRJkvRvGNClI1ShAtSqBcnJMG1atKuRJEmSlNUZ0KV/IfUqututSZIkSfq3DOjSv5A6D/2992Dv3ujWIkmSJClrM6BL/8LJJ0OJErBjB3z4YbSrkSRJkpSVGdClfyEuDtq1C+67mrskSZKkf8OALv1Lf56HHg5HtxZJkiRJWZcBXfqXWraE3Llh7VpYsiTa1UiSJEnKqgzo0r+UL18Q0sHV3CVJkiQdOQO6lAFSh7k7D12SJEnSkTKgSxkgdaG4zz+HzZujW4skSZKkrMmALmWAMmWgfv1gkbh33412NZIkSZKyIgO6lEHOPTf46Tx0SZIkSUfCgC5lkNR56DNnwp490a1FkiRJUtZjQJcySJ06ULYs7N4Ns2dHuxpJkiRJWY0BXcogodD/rqI7zF2SJEnS4TKgSxkodR76228HC8ZJkiRJ0qEyoEsZqFkzyJcPNm6EBQuiXY0kSZKkrMSALmWgPHmgdevg/ttvR7cWSZIkSVmLAV3KYM5DlyRJknQkDOhSBmvTJlgw7uuvYf36aFcjSZIkKaswoEsZ7NhjoUmT4L7D3CVJkiQdKgO6FAGpw9wN6JIkSZIOVZYL6I8//jgVKlQgT548NGrUiPnz5x+07aRJk2jQoAGFCxcmX7581KlTh3HjxqU9n5SURL9+/ahVqxb58uWjdOnSdO/enY0bN6a1Wbt2LZdffjkVK1YkISGBypUrM2jQIPbu3Zuur+nTp9O4cWMKFChA8eLFufDCC1m7dm3a8x988AGhUGi/26ZNm9LaPPnkk5x00kkULFiQggUL0qRJE6ZNm5aun02bNnHJJZdQsmRJ8uXLR7169XjjjTeO9ONUhKRutzZrFuzcGd1asovkZJg7N8SHH5Zh7twQycnRrkiSJEnKWFkqoL/66qv06dOHQYMGsWDBAmrXrk3r1q35+eefD9i+aNGiDBw4kHnz5rFo0SJ69uxJz549mT59OgC7d+9mwYIF3HHHHSxYsIBJkyaxfPlyzk1NV8CyZctISUlhzJgxLFmyhJEjRzJ69GgGDBiQ1mbNmjV06NCBFi1asHDhQqZPn87WrVu54IIL9qtp+fLl/PTTT2m3Y489Nu25smXL8sADD/DVV1/x5Zdf0qJFCzp06MCSJUvS2nTv3p3ly5czZcoUvv32Wy644AI6d+7M119//a8/X2WcE06ASpVg716YOTPa1WR9kyZBhQrQqlUORoxoQKtWOahQITguSZIkZRvhLKRhw4bh3r17pz1OTk4Oly5dOjxkyJBDPkfdunXDt99++0Gfnz9/fhgIr1u37qBthg4dGq5YsWLa49dffz2cI0eOcHJyctqxKVOmhEOhUHjv3r3hcDgcnjNnThgI//rrr4dcazgcDhcpUiT8zDPPpD3Oly9f+MUXX0zXpmjRouGnn376kM63ffv2MBDevn37YdURCXv37g1Pnjw57TOK9Osy2003hcMQDl966eG/Nqu8x8zwxhvhcCgUfJZ/voVCwe2NN6JdoSRJ0qGLpb/zYikbKJBlrqDv3buXr776ipYtW6Ydi4uLo2XLlsybN+8fXx8Oh5k1axbLly/njDPOOGi77du3EwqFKFy48N+2KVq0aNrj+vXrExcXx9ixY0lOTmb79u2MGzeOli1bkjNnznSvrVOnDqVKlaJVq1Z88sknB+0jOTmZV155hV27dtEkdcUx4JRTTuHVV19l27ZtpKSk8Morr7Bnzx6aNWv2j5+BMlfqPPR338Xh2EcoORluvDGI5H+Veuymm/x8JUmSlD3kiHYBh2rr1q0kJydTokSJdMdLlCjBsmXLDvq67du3U6ZMGRITE4mPj+eJJ56gVatWB2y7Z88e+vXrR9euXSlYsOAB26xcuZJHH32UYcOGpR2rWLEiM2bMoHPnzlx11VUkJyfTpEkTpk6dmtamVKlSjB49mgYNGpCYmMgzzzxDs2bN+Pzzz6lXr15au2+//ZYmTZqwZ88e8ufPz5tvvkmNGjXSnn/ttdfo0qULxYoVI0eOHOTNm5c333yTKlWqHLDexMREEhMT0x7v2LEDCObfJyUlHfRzywyp/R9uHUf6uszWuDEUKpSDLVtCfPLJPpo0OUDKPIis8h4jbe7cEOvXH/w/U+Ew/PgjzJmzj6ZND/3zlSRJipZY+jsvFmpQelkmoB+pAgUKsHDhQnbu3MmsWbPo06cPlSpV2u+Kc1JSEp07dyYcDvPkk08e8FwbNmzg7LPPplOnTvTq1Svt+KZNm+jVqxc9evSga9eu/P7779x555107NiRmTNnEgqFqFatGtWqVUt7zSmnnMKqVasYOXJkuoXrqlWrxsKFC9m+fTsTJ06kR48ezJ07Ny2k33HHHfz222+8//77HHPMMUyePJnOnTvz0UcfUatWrf1qHjJkCIMHD97v+IwZM8ibN+9hfZaRMvMIJ2kf6esy00kn1eejj8ryyCOr+fXXpYf9+qzwHiPpww/LAA3+sd20aQvZtWtD5AuSJEnKILHwd97u3bujXYL+IhQOH2jwaOzZu3cvefPmZeLEiZx33nlpx3v06MFvv/3GW2+9dUjnueKKK/jxxx/TFoqD/4Xz1atXM3v2bIoVK7bf6zZu3EizZs1o3Lgxzz//PHFx/5sdcMcdd/Dee+/xxRdfpB1bv3495cqVY968eTRu3PiAtdxyyy18/PHHfztEv2XLllSuXJkxY8awatUqqlSpwuLFi6lZs2a6NlWqVGH06NH7vf5AV9DLlSvH1q1bDzpKILMkJSUxc+ZMWrVqtd9UgEi8LhpeeSVE9+45qFEjzMKF+w75dVnpPUbK9u1w2WVxvP12/D+2Pf74FB54IIW2bcOEQplQnCRJ0hGKpb/zduzYwTHHHMP27dujng0UyDJX0HPlykX9+vWZNWtWWkBPSUlh1qxZXHfddYd8npSUlHSBNTWcr1ixgjlz5hwwnG/YsIHmzZtTv359xo4dmy6cQ/DN01+PxcfHp/V3MAsXLqRUqVKHXG/qN1wH6utg/eTOnZvcuXPvdzxnzpxR/w9CqiOtJZbew8G0awfx8fDddyF+/DEnlSod3uuzwnvMaOEwvPkmXHcd/PTTP7cPheD77+O44II46taFO+6ADh0gLsussCFJko5GsfB3XrT71/6y1J+wffr04emnn+aFF15g6dKlXHPNNezatYuePXsCwRZk/fv3T2s/ZMgQZs6cyerVq1m6dCnDhw9n3LhxXHzxxUAQzjt27MiXX37JSy+9RHJyMps2bWLTpk1p+5xv2LCBZs2acdxxxzFs2DC2bNmS1iZV27Zt+eKLL7j77rtZsWIFCxYsoGfPnpQvX566desCMGrUKN566y1WrlzJ4sWLuemmm5g9eza9e/dOO0///v358MMPWbt2Ld9++y39+/fngw8+4KKLLgKgevXqVKlShauuuor58+ezatUqhg8fzsyZM9ONKlDsKFIEUtckfPvt6NaSFaxfD+efDxdeGITzqlXhrruCEP7XK+Opx559Fm67DfLnh6+/hgsugLp1YeJE+JvvxyRJkqSYk2WuoAN06dKFLVu2cOedd7Jp0ybq1KnDe++9l7Zw3A8//JDu6vKuXbu49tprWb9+PQkJCVSvXp3x48fTpUsXIAjfU6ZMAYLV1f9szpw5NGvWjJkzZ7Jy5UpWrlxJ2bJl07VJnR3QokULJkyYwNChQxk6dCh58+alSZMmvPfeeyQkJADBEP3//ve/bNiwgbx583LSSSfx/vvv07x587Tz/fzzz3Tv3p2ffvqJQoUKcdJJJzF9+vS0Re1y5szJ1KlTue2222jfvj07d+6kSpUqvPDCC7Rp0yYDP2llpPbtYc4cmDIlWJFc+0tOhieegAEDYOdOyJkzCN0DBkCePFCrVvDZrV//v9eULQujRgWBHKBvXxg5Eh55BBYtgk6doGbN4Ip6x47BSAZJkiQplmWZOejKGDt27KBQoUIxMc8kKSmJqVOn0qZNm8Oeg34kr4uWVaugShXIkQO2bIG/2cEvTVZ7j//GokXQqxfMnx88PuUUeOqpIFz/WXJysFr7tGkLOeecOjRvnuOAofvXX+Hhh4Pwvn17cOyEE+D226FLF4O6JEmKrlj6Oy+WsoECWWqIu5QVVa4cBMR9++C996JdTez44w/o3x/q1w/CecGC8OST8NFH+4dzCIJ106ZhzjhjA02bhg8atIsUCYbFr10Ld98dPF66FC66CGrUgHHjgt+FJEmSFGsM6FImaN8++Ok89MD77wfD1h94IAjLF14YhOirr864xd0KFw6Gt69dC/fdB0WLwvffQ/fuUL06jB0Lbv0pSZKkWBKRgF6jRg22bduW9vjaa69l69ataY9//vnnmNmDW8oM554b/Jw69egOhVu2BAG5Vatg6H/ZsvDWW8GCbqVLR6bPggWDuexr1wZfCBxzTND3ZZdBtWrwzDPw/2tCSpIkSVEVkYC+bNky9v1pDOn48ePZsWNH2uNwOMyePXsi0bUUkxo3DoLhb7/BJ59Eu5rMFw7Diy8GQ/3HjQtWX7/hBvjuu/99eRFpBQpAv35BUH/oITj2WFizJpj/fvzxMGYM/GkHRkmSJCnTZcoQ9wOtQxf6655JUjYWHw9t2wb3/3/jgKPGypXBFfMePeCXX+Ckk+Czz4KF3AoUyPx68uULVnxfsyZY9b1kSVi3LhheX7VqsJq83x9KkiQpGpyDLmWS1HnoU6YEV5Szu6QkGDIkmGs+a1awXdoDD8CXX0LDhtGuDvLmhZtugtWrg63ZSpeGH3+E3r2Dhf0efTRYyE6SJEnKLBEJ6KFQaL8r5F4x19HurLMgV65g/vOyZdGuJrI++yxYnX3AgOBqdMuWsHhxMMQ81naNS0iA668Pfi+PPx7Mi9+4MRiCX6lScJV99+5oVylJkqSjQUQCejgc5swzz6RevXrUq1ePP/74g/bt26c9btWqVSS6lWJagQLQvHlwP7uu5r5jRxB2TzkFvv02mHf/4oswY0ZwVTqW5ckD114bDMkfPRqOOw42bYI+faBiRRg2DHbtinaVkiRJys5yROKkgwYNSve4Q4cO+7W58MILI9G1FNPOPRemTw+Gud96a7SryViTJ8N118GGDcHjHj2CUHvMMVEt67Dlzg1XXQU9ewZfLtx/fzBf/ZZb4MEHg/nr114bnfnzkiRJyt4yJaBLCrRrF8xxnjcPtm7NeuH1QDZsCK6av/lm8Lhy5WBF9DPPjG5d/1auXHDFFcEXDS+9BPfeGwyDv+02GDoU/vvf4AuJggWjXakkSZKyi4gtEvfZZ58xcOBAbrnlFt57771IdSNlKccdB3XqQEpKsCd6VpaSEqx4fsIJQTjPkQP69w+Gtmf1cP5nOXPCpZcG6wa8+GKwJdu2bTBwIJQvD3ffHWyfJ0mSJP1bEQnoEydO5NRTT+Xhhx/mmWeeoW3btgwbNiwSXUlZzp9Xc8+qFi+G004LRgP8/js0agQLFgTDwRMSol1dZOTIAZdcEuzd/tJLUL16EMwHDYIKFYKf27ZFu0pJkiRlZREJ6EOGDKFXr15s376dX3/9lXvvvZf7778/El1JWc655wY/p0+HxMTo1nK4/vgjuHJct24wTL9AAXjsMfjkk2A7taNBfDx06xZ8SfHKK1CzJmzfHlxJr1ABbr892O9dkiRJOlwRCejLly+nb9++xMfHA/Df//6X33//nZ9//jkS3UlZSr16UKoU7NwJH3wQ7WoO3ezZcNJJwVXyffvgvPOCq8m9eweh9WgTHw9dusCiRTBxYvDZ/P473HdfENT794ctW6JdpSRJkrKSiAT03bt3U/BPKyflypWLPHnysHPnzkh0J2UpcXH/G+aeFbZb++WXYEXzM88MtiArXRomTQrmnZctG+3qoi8uDi68EL7+OvhM6tYNvnx54IEgqN9yC2zeHO0qJUmSlBVEZBV3gGeeeYb8+fOnPd63bx/PP/88x/xp2eobbrghUt1LMa19e3jqqWAe+qOPQigU7Yr2Fw4Hc61vvjlYcT4UCrYXu+8+KFQo2tXFnri4YFRBhw7wzjvBkPcvvwy2mnv8cbj66iCslyoV7UolSZIUqyIS0I877jiefvrpdMdKlizJuHHj0h6HQiEDuo5aZ54ZLKb244/BEOnataNdUXqrVweBcubM4PGJJwZfKDRpEt26soJQKPgCpl07mDYNBg+G+fNh5Eh48km48kq49VYoUybalUqSJCnWRGSI+9q1a1mzZs3f3lavXh2JrqUsISEBWrUK7sfSau5JScEe3yeeGITz3LmDK+ZffWU4P1yhELRpA599Bu+9F3x+e/bAI48Ee8Vfd13wBY0kSZKUKmL7oP+d3377jcceeywaXUsxI9bmoX/xBZx8MvTrF6zW3qJFsKf5gAGQK1e0q8u6QiFo3TpY6f799+H004PV+x9/PAjq11wD69ZFu0pJkiTFgkwN6LNmzaJbt26UKlWKQYMGZWbXUsxp1y74+cUXsHFj9Or4/Xe48cZgL/NvvoGiReH554MwWbVq9OrKbkKhYGrD3LkwZw40axaMWBg9GqpUgV69YM2aaFcpSZKkaIp4QP/xxx+5++67qVixImeddRahUIg333yTTZs2RbprKaaVLAkNGwb33303OjW8/TbUqBEMuw6H4eKLYdky6NEjNheuyw5CoSCcz5kThPUzzwy2rXvmmeALkcsug1Wrol2lJEmSoiEiAT0pKYnXX3+d1q1bU61aNRYuXMhDDz1EXFwcAwcO5OyzzyZnzpyR6FrKUs49N/iZ2fPQf/oJOnUK+l+/HipVghkzYNw4KF48c2s5mp1xRjBS4eOPg2HwyckwdixUqxZ8SfL999GuUJIkSZkpIgG9TJkyPProo1x44YVs2LCBSZMm0bFjx0h0JWVpqfPQ338fdu+OfH8pKcGQ6hNOgIkTIT4+mHP+7bf/W7ROme/UU4OF5ObNCxaWS06GF18Mfk8XXwxLl0a7QkmSJGWGiAT0ffv2EQqFCIVCxMfHR6ILKVuoVQvKlw9W937//cj2tWRJsEDZNdfA9u3BgnBffQUPPAB580a2bx2axo2D6Q5ffBF8eZOSEuxFX7MmdO0a/A4lSZKUfUUkoG/cuJErr7ySl19+mZIlS3LhhRfy5ptvEnJSq5RO6p7ZELnV3PfsgTvvhLp14dNPIX9+ePjh4GptrO2/rkCDBsG0hwUL4LzzgvUBXnkl2P6uUydYtCjaFUqSJCkSIhLQ8+TJw0UXXcTs2bP59ttvOeGEE7jhhhvYt28f9913HzNnziQ5OTkSXUtZTuo89HfeCa6YZqQPPghC+D33BCuGt28P330HN9wQDG9XbKtbF958ExYuhNRZQhMnBr/TCy4IjkuSJCn7iPgq7pUrV+bee+9l3bp1vPvuuyQmJtKuXTtKlCgR6a6lLKFpUyhQADZtgi+/zJhzbtsGl18OzZsHC42VKhUEu7fegnLlMqYPZZ7ateH114O1Arp0CUZevPlmEOA7dAimKkiSJCnry7R90OPi4jjnnHOYOHEi69evZ8CAAZnVtRTTcuWCs88O7v/bYe7hMLz8crC42HPPBceuvjq4an7hhW6dltWdeGIw1H3xYujWDeLigqHwDRpAu3Ywf360K5QkSdK/kWkB/c+KFy9Onz59otG1FJNS56H/m+3W1qwJVgDv1g1+/jnY3/zjj+HJJ6Fw4QwpUzGiRo1g8bjvvoNLLgmC+rvvQqNGwZc98+ZFu0JJkiQdiRyROGmlSpUOqd3q1asj0b2U5bRpE4SsRYtg3TooXfrQX7tvH4waBYMGBVu15coFd9wBt94a3Ff2Va1asB3bnXfC/fcH96dPD24tWwb/Jk47LdpVSpIk6VBFJKCvXbuW8uXL061bN4499thIdCFlK8WKBXthf/RRMMz9qqsO7XVffglXXglffx08btoUxowJgpuOHlWqBFMabr8dhgyB558Ptu17//1gHYI774RmzaJdpSRJkv5JRAL6q6++ynPPPceIESM455xzuOyyy2jTpg1xcVEZUS9lCe3bH3pA37kzCF0PPxys/F6kCAwbBj17Os/8aFapEjz9NAwcGOxv/9xzMGdOcDvjjODfTIsW/huRJEmKVRFJzJ06dWLatGmsXLmS+vXrc/PNN1OuXDluu+02VqxYEYkupSwvdbu1OXNgx46Dt3v3XahZE0aODMJ5166wdClcdpnBS4EKFWD0aFi1Cq69Npjq8OGHwbD300+HGTOCBQUlSZIUWyJ6SbtMmTIMHDiQFStWMGHCBD7//HOqV6/Or7/+GslupSypWjWoWjXYr/zhh+P48MMyzJ0bIjk5eH7TpmCLrXbt4IcfghA2bRpMmADuWqgDKVcOHn8cVq+G66+H3Lnhk0+gdWs45ZTg349BXZIkKXZEfMz5nj17GD9+PIMHD+bzzz+nU6dO5M2b94jP9/jjj1OhQgXy5MlDo0aNmP83+wpNmjSJBg0aULhwYfLly0edOnUYN25c2vNJSUn069ePWrVqkS9fPkqXLk337t3ZuHFjWpu1a9dy+eWXU7FiRRISEqhcuTKDBg1i79696fqaPn06jRs3pkCBAhQvXpwLL7yQtWvXpqulVatWFC9enIIFC9KkSROmT59+xO8vHA5zzjnnEAqFmDx58iF+eop1J5wQ/LznnnhGjGhAq1Y5qFABrrkmeO6114LF5Pr2DbbaSt2eTfo7ZcrAI48EK/3fdBPkyQOffRYsTtioEbzzjkFdkiQpFkQsoH/++edceeWVlCxZkhEjRnDBBRewYcMGXnnlFXLnzn1E53z11Vfp06cPgwYNYsGCBdSuXZvWrVvz888/H7B90aJFGThwIPPmzWPRokX07NmTnj17pgXj3bt3s2DBAu644w4WLFjApEmTWL58OeemjjUGli1bRkpKCmPGjGHJkiWMHDmS0aNHp9vHfc2aNXTo0IEWLVqwcOFCpk+fztatW7ngggvS2nz44Ye0atWKqVOn8tVXX9G8eXPat2/P16mrex3m+xs1ahQhxzNnK5MmHXibtfXrg+HKv/0G9evDF1/AQw9BvnyZXqKyuFKlgqkRa9YEX/LkzRv8e2rfPvi3NXmyQV2SJCmqwhFQo0aN8DHHHBO+4YYbwgsXLsyw8zZs2DDcu3fvtMfJycnh0qVLh4cMGXLI56hbt2749ttvP+jz8+fPDwPhdevWHbTN0KFDwxUrVkx7/Prrr4dz5MgRTk5OTjs2ZcqUcCgUCu/du/eg56lRo0Z48ODBaY8P9f19/fXX4TJlyoR/+umnMBB+8803D9rHX23fvj0MhLdv337Ir4mUvXv3hidPnvy3n1FGvi6W7dsXDpctGw4H8ejAt8KFw+E9e6JdaXRlx999NG3eHA736xcO58v3v39ntWuHwxMnhsN/+s+ZJEnKQLH090wsZQMFIrKK+9KlS8mXLx8vvvhiuiHlf7Vt27ZDPufevXv56quv6N+/f9qxuLg4WrZsybx58/7x9eFwmNmzZ7N8+XIefPDBg7bbvn07oVCIwoUL/22bokWLpj2uX78+cXFxjB07lksvvZSdO3cybtw4WrZsSc6cOQ94jpSUFH7//fe08xzq+9u9ezfdunXj8ccfp2TJkv/4vhMTE0lMTEx7vOP/Vx9LSkoiKSnpH18fSan9H24dR/q6WDZ3boj16//+f46//QYffbSPpk2P3kuc2fF3H01FisA998CNNwbrHjzxRBzffBOiY0eoWTPMgAHJXHBBmPj4aFcqSVL2EUt/z8RCDUovIgF97NixGX7OrVu3kpycTIm/rIZVokQJli1bdtDXbd++nTJlypCYmEh8fDxPPPEErVq1OmDbPXv20K9fP7p27UrBggUP2GblypU8+uijDBs2LO1YxYoVmTFjBp07d+aqq64iOTmZJk2aMHXq1IPWNWzYMHbu3Ennzp0P6/3dfPPNnHLKKXTo0OGg5/6zIUOGMHjw4P2Oz5gx41+tBZCRZs6cmamvi0UfflgGaPCP7aZNW8iuXRsiX1CMy06/+1jRpAmceGJO3n67Mu+8U4klS3Jy0UU5KFv2dzp3Xs6pp24wqEuSlIFi4e+Z3bt3R7sE/UVEAnqPHj0icdojUqBAARYuXMjOnTuZNWsWffr0oVKlSjRr1ixdu6SkJDp37kw4HObJJ5884Lk2bNjA2WefTadOnejVq1fa8U2bNtGrVy969OhB165d+f3337nzzjvp2LEjM2fO3G+u+IQJExg8eDBvvfUWxx577CG/lylTpjB79ux089b/Sf/+/enTp0/a4x07dlCuXDnOOuusg34JkVmSkpKYOXMmrVq1OuhIg4x8XSzLly/EiBH/3O6cc+rQtGntyBcUo7Lj7z7WdOkSjNZ47LFkHnkkjvXrCzBiRAPeeac+/fsn06VLmBwR+X8OSZKODrH098yOv9vbV1GRZf7MOuaYY4iPj2fz5s3pjm/evPlvh3rHxcVRpUoVAOrUqcPSpUsZMmRIuoCeGs7XrVvH7NmzDxhcN27cSPPmzTnllFN46qmn0j33+OOPU6hQIYYOHZp2bPz48ZQrV47PP/+cxo0bpx1/5ZVXuOKKK3j99ddp2bLlYb2/2bNns2rVqv2G31944YWcfvrpfPDBB/vVnTt37gMuypczZ86o/wch1ZHWEkvv4d9q3hzKloUNGw68SFcoFDzfvHkOr2KSvX73sah4cRg8GPr0gccegxEj4PvvQ/TsmYP77oOBA+HiizGoS5L0L8TC3zPR7l/7i/g2axklV65c1K9fn1mzZqUdS0lJYdasWTRp0uSQz5OSkpJuTnZqOF+xYgXvv/8+xYoV2+81GzZsoFmzZtSvX5+xY8cSF5f+Y9u9e/d+x+L/P0WlpKSkHXv55Zfp2bMnL7/8Mm3btj3s93fbbbexaNEiFi5cmHYDGDlyZESmFSjzxMfDww8H9/+6OH/q41GjMJwrUxUqFITxtWthyBAoVgxWroSePaFaNXj2WXDqmiRJUsbJMgEdoE+fPjz99NO88MILLF26lGuuuYZdu3bRs2dPALp3755ukbUhQ4Ywc+ZMVq9ezdKlSxk+fDjjxo3j4osvBoJw3rFjR7788kteeuklkpOT2bRpE5s2bUrb5zw1nB933HEMGzaMLVu2pLVJ1bZtW7744gvuvvtuVqxYwYIFC+jZsyfly5enbt26QDCsvXv37gwfPpxGjRqlnWP79u2H/P5KlizJiSeemO4GcNxxx1GxYsUIfvLKDBdcABMnBntW/1nZssHxP+3aJ2WqAgXgttuCoD50aHCFffVquOIKqFoVnnoK/v8/mZIkSfoXstQAxS5durBlyxbuvPNONm3aRJ06dXjvvffSFlb74Ycf0l3J3rVrF9deey3r168nISGB6tWrM378eLp06QIE4XvK/288XadOnXR9zZkzh2bNmjFz5kxWrlzJypUrKVu2bLo24f8fi9yiRQsmTJjA0KFDGTp0KHnz5qVJkya89957JCQkAPDUU0+xb98+evfuTe/evdPO0aNHD55//vlDen/K/i64ADp0gDlz9jFt2kLOOaeOw9oVM/Lnh1tugWuvhTFjgrC+bh1cdRXcey/07w+XXQYHmFUjSZKkQxAKhw804zVj7d27lzVr1lC5cmVyOGkxqnbs2EGhQoXYvn17TCwSN3XqVNq0aXPYi8QdyeuykqPhPR4JP5fY8scf8PTT8MAD8NNPwbEyZYKr7VdcAXnyRLc+SZJiUSz9PRNL2UCBiA5x3717N5dffjl58+alZs2a/PDDDwBcf/31PPDAA5HsWpIUYQkJcMMNwXD3xx7730KH118PlSoF6ya4e4skSdKhi2hA79+/P9988w0ffPABef50KaVly5a8+uqrkexakpRJ8uSB3r2DBeSefBKOOy64on7zzUFQHz4cdu2KdpWSJEmxL6IBffLkyTz22GOcdtpp6fYCr1mzJqtWrYpk15KkTJY7N1x9NaxYESwcV6ECbN4MfftCxYrBnPWdO6NdpSRJUuyKaEDfsmULxx577H7Hd+3alS6wS5Kyj1y5oFcv+P77YCu2SpVgyxbo1y8I7UOGwI4d0a5SkiQp9kQ0oDdo0IB333037XFqKH/mmWcOa+9ySVLWkzNnsKr78uXwwgvBlmy//AIDBgRB/d574U87TUqSJB31Irqk+v33388555zDd999x759+3j44Yf57rvv+PTTT5k7d24ku5YkxYgcOaB7d+jWDV59Fe65Jwjtd9wBw4bBTTfBjTdCkSLRrlSSJCm6InoF/bTTTmPhwoXs27ePWrVqMWPGDI499ljmzZtH/fr1I9m1JCnG5MgBF10ES5bAyy9DjRrBFfTBg4Mr6nfcEVxhlyRJOlpFfFPyypUr8/TTT0e6G0lSFhEfD//5D3TuDG+8AXffDYsXB0PeR40Ktmnr0weOOSbalUqSJGWuiF5B37FjxwFvv//+O3v37o1k15KkGBcXB506wTffBEG9du1glfchQ4Ir6v36wc8/R7tKSZKkzBPRgF64cGGKFCmy361w4cIkJCRQvnx5Bg0aREpKSiTLkCTFsLg4uOAC+PpreOstqFcv2Dd96NAgqP/3v7BpU7SrlCRJiryIBvTnn3+e0qVLM2DAACZPnszkyZMZMGAAZcqU4cknn+TKK6/kkUce4YEHHohkGZKkLCAUgnPPhS+/hHfegZNPhj/+gBEjgn3Ub7oJNm6MdpWSJEmRE9E56C+88ALDhw+nc+fOacfat29PrVq1GDNmDLNmzeK4447jvvvuY8CAAZEsRZKURYRC0LYttGkD06cHi8h99hk8/DCMHh3ssd6vH5QtG+1KJUmSMlZEr6B/+umn1K1bd7/jdevWZd68eUCw0vsPP/wQyTIkSVlQKARnnw2ffgozZsCpp0JiIjz2GFSuDNdeC/7fhyRJyk4iGtDLlSvHs88+u9/xZ599lnLlygHwyy+/UMTNbyVJBxEKQatW8NFHMHs2NG0Ke/fCk09ClSpw1VWwdm20q5QkSfr3IjrEfdiwYXTq1Ilp06Zx8sknA/Dll1+ybNkyJk6cCMAXX3xBly5dIlmGJCkbCIWgefPgNndusD3b7Nnw1FPw3HPQvTsMGBBcXZckScqKInoF/dxzz2X58uW0adOGbdu2sW3bNs455xyWLVtGu3btALjmmmsYMWJEJMuQJGUzTZvCrFnBVfWzzoJ9+4KQXq0aXHoprFgR7QolSZIOX0SvoANUqFCBIUOGRLobSdJR6LTTgoXk5s2De+6BadPghRdg3Djo1g0GDoTq1aNdpSRJ0qGJ6BX0VLt372bZsmUsWrQo3U2SpIzQpAlMnQrz50O7dpCSAuPHQ40aQVD/7rtoVyhJkvTPIhrQt2zZQrt27ShQoAA1a9akbt266W6SJGWkk0+Gt9+Gr76CDh0gHIaXX4YTT4QuXeDbb6NdoSRJ0sFFNKDfdNNN/Pbbb3z++eckJCTw3nvv8cILL1C1alWmTJkSya4lSUexevVg8mT4+mu48MIgqL/2Gpx0UvD4m2+iXaEkSdL+IhrQZ8+ezYgRI2jQoAFxcXGUL1+eiy++mKFDhzovXZIUcXXqwMSJsGgRdO4crAQ/aVJw/LzzYMGCKBcoSZL0JxEN6Lt27eLYY48FoEiRImzZsgWAWrVqscC/iiRJmaRWLXj11WCIe9euQVB/6y2oXx/at4cvvoh2hZIkSREO6NWqVWP58uUA1K5dmzFjxrBhwwZGjx5NqVKlItm1JEn7qVkTJkwIFo27+GKIi4N33oGGDaFNG/jss2hXKEmSjmYRDeg33ngjP/30EwCDBg1i2rRpHHfccTzyyCPcf//9kexakqSDql492Ipt2bJg3/T4+GCLtiZNgn3VP/kk2hVKkqSjUUQD+sUXX8yll14KQP369Vm3bh1ffPEFP/74I126dIlk15Ik/aOqVWHsWFi+HC6/HHLkgJkzg/3VzzwTPvww2hVKkqSjScQCelJSEpUrV2bp0qVpx/LmzUu9evU45phjItWtJEmHrXJleOYZ+P57uPJKyJkTZs+Gpk2hWbPgfjgc7SolSVJ2F7GAnjNnTvbs2ROp00uSlOEqVoQxY2DlSrjmGsiVC+bODa6mn3FGcHXdoC5JkiIlokPce/fuzYMPPsi+ffsi2Y0kSRnquOPgiSdg1Sq47jrInRs+/jiYn37qqfDeewZ1SZKU8XJE8uRffPEFs2bNYsaMGdSqVYt8+fKle37SpEmR7F6SpH+lbFl49FHo3x+GDg2urs+bB+ecE6z8fuedwervoVC0K5UkSdlBRK+gFy5cmAsvvJDWrVtTunRpChUqlO4mSVJWULo0jBoFa9bAf/8LCQkwfz60awcNGgR7qntFXZIk/VsRvYI+duzYSJ5ekqRMVbIkDBsGt94Kw4fD44/DggVw3nlQu3ZwRf2884L91SVJkg5XxP+E2LdvH++//z5jxozh999/B2Djxo3s3Lkz0l1LkhQRxx4LDz4Ia9cGw9/z54dvvoELL4Q6deD11yElJdpVSpKkrCaiAX3dunXUqlWLDh060Lt3b7Zs2QLAgw8+SN++fSPZtSRJEXfMMXD//bBuHdx+OxQsCN9+C507Q61a8MorkJwc7SolSVJWEdGAfuONN9KgQQN+/fVXEhIS0o6ff/75zJo1K5JdS5KUaYoWhXvuCa6o33UXFC4M330HXbvCiSfCSy+BG5pIkqR/EtGA/tFHH3H77beTK1eudMcrVKjAhg0bItm1JEmZrkgRGDQoCOr33BM8XrYMLr4YatSAF14wqEuSpIOLaEBPSUkh+QBj+9avX0+BAgUi2bUkSVFTqFAw5H3t2mAIfLFisGIFXHopVKsGzz0HSUnRrlKSJMWaiAb0s846i1GjRqU9DoVC7Ny5k0GDBtGmTZtIdi1JUtQVLBgsIrd2bbCoXPHisHo1XH45HH88PP007N0b7SolSVKsiGhAHz58OJ988gk1atRgz549dOvWLW14+4MPPhjJriVJihn58wdbs61ZE2zTVqJEENqvvBKqVoXRoyExMdpVSpKkaItoQC9btizffPMNAwYM4Oabb6Zu3bo88MADfP311xx77LGR7FqSpJiTLx/897/BVfRRo6BUKfjhB7jmGqhcGR57DPbsiXaVkiQpWnJE8uR79uwhT548XHzxxZHsRpKkLCVvXrjxxuAK+rPPwgMPwIYNcP31wZz1fv2C5/60AYokSToKRPQK+rHHHkuPHj2YOXMmKSkpkexKkqQsJyEBrrsOVq2CJ56AcuXgp5/gppugYkUYMQJ27452lZIkKbNENKC/8MIL7N69mw4dOlCmTBluuukmvvzyy0h2KUlSlpM7dzDMfeVKGDMGypeHzZuD4fAVK8JDD8HOndGuUpIkRVpEA/r555/P66+/zubNm7n//vv57rvvaNy4Mccffzx33313JLuWJCnLyZUrGNq+YgU880wQzn/+OVhgrmLFYCj8779Hu0pJkhQpEQ3oqQoUKEDPnj2ZMWMGixYtIl++fAwePDgzupYkKcvJmTPYim35cnj+eahSBbZuDbZsq1AB7rsPtm+PdpWSJCmjZUpA37NnD6+99hrnnXce9erVY9u2bdxyyy2Z0bUkSVlWzpzQowcsXQrjxkG1arBtG9x+exDUBw+G336LdpWSJCmjRDSgT58+nR49elCiRAmuueYaSpQowYwZM1i3bh0PPPBAJLuWJCnbyJEDLr4YliyBCRPghBOCYH7XXcF89TvvDIK7JEnK2iI+B/2PP/7gxRdfZNOmTYwZM4Yzzjgjkl1KkpRtxcdD166weDG8+iqceCLs2AH33BNcUR84MBgKL0mSsqaIBvTNmzfz2muv0aFDB3LmzAnAjh07ePLJJ2nQoEEku5YkKduKi4POneGbb2DiRDjppGDxuPvvD4L6bbfBli3RrlKSJB2uiAb0AgUKpN2fM2cOl1xyCaVKleKee+6hUaNGkexakqRsLy4OLrwQvv4aJk+GunVh1y548MEgqPftG2zXJkmSsoaIBvQNGzZw3333UaVKFTp16sSECRN47rnn2LBhA48//ngku5Yk6agRFwcdOsBXX8Hbb0ODBrB7NwwfHmzPdvPN8NNP0a5SkiT9k4gE9DfeeIM2bdpQrVo1Fi5cyPDhw9m4cSNxcXHUqlWLUCgUiW4lSTqqhULQrh3Mnw9Tp0KjRvDHHzBqVBDUb7gBNmyIdpWSJOlgIhLQu3TpQt26dfnpp594/fXX6dChA7ly5YpEV5Ik6S9CITjnHJg3D6ZPh1NOgcREePRRqFQJeveGH36IdpWSJOmvIhLQL7/8ch5//HHOPvtsRo8eza+//hqJbiRJ0t8IheCss+Djj2HWLDjjDNi7F554AqpUgauvhrVro12lJElKFZGAPmbMGH766SeuvPJKXn75ZUqVKkWHDh0Ih8OkpKREoktJknQQoRC0aAFz58IHH0Dz5pCUBGPGQNWqcMUVsHp1tKuUJEkRWyQuISGBHj16MHfuXL799ltq1qxJiRIlOPXUU+nWrRuTJk2KVNeSJOkgmjaF2bPhww+hZUvYtw+efRaOPx569oSVK6NdoSRJR6+IruKeqmrVqtx///38+OOPjB8/nt27d9O1a9fM6FqSJB3A6afDzJnwySdw9tmQnAzPPw/VqkH37rB8ebQrlCTp6JMpAT2ts7g42rdvz+TJk/nxxx8zs2tJknQAp5wC06bBZ59B27aQkgLjxkGNGnDRRbB0abQrlCTp6JGpAf3Pjj322Gh1LUmS/qJRI3jnHfjySzj33CCoT5gANWvCf/4DixdHu0JJkrK/qAV0SZIUe+rXh7feggUL4PzzIRyGV1+FWrWgY0dYtCjaFUqSlH0Z0CVJ0n7q1oVJk+Cbb6BTp2Al+DfegNq1g+D+9dfRrlCSpOwnIgE9OTk5EqeVJEmZ7KST4LXX4Ntvg6HuoRBMngz16gVD4b/8MtoVSpKUfUQkoJcpU4bbbruN77//PhKnlyRJmaxmTXj5ZViyJFg8Li4O3n4bTj45WFzu88+jXaEkSVlfRAJ67969mThxIieccAKnn346zz//PLt3745EV5IkKROdcAKMHx+s7t69O8THw9Sp0LgxtG4Nn34a7QolScq6IhLQ77jjDlauXMmsWbOoVKkS1113HaVKlaJXr1587lfskiRleccfDy+8AMuWwWWXBUF9xgw49VRo2RI++ijaFUqSlPVEdJG4Zs2a8cILL7Bp0yaGDx/O0qVLadKkCTVr1mTEiBGR7FqSJGWCKlXg2WdhxQro1Qty5IBZs+CMM6B5c5gzJ1gJXpIk/bNMWcU9f/78XHHFFXz88ce8/fbbbNq0iVtuuSUzupYkSZmgYkV46ilYuRKuvhpy5oQPPoAWLaBpU3j/fYO6JEn/JFMC+u7du3n++edp2rQp5557LsWKFeO+++7LjK4lSVImKl8ennwSVq2C3r0hV65guHurVnDaaTB9ukFdkqSDiWhA//TTT7niiisoVaoUvXv3pkKFCsyZM4fvv/+e2267LZJdS5KkKCpXDh57DFavhhtugDx5ggXkzj4bmjQJFpYzqEuSlF5EAvrQoUPTVnD/9ttveeihh9i0aRMvvPACZ5xxRiS6lCRJMahMGXj44SCo33wzJCQEW7K1bQsNGwZbtRnUJUkKRCSgP/TQQ5x99tl88803fP7551x55ZUUKFAgEl1JkqQsoFQpGDEC1qyBW26BvHnhyy/h3HOhfn14801ISYl2lZIkRVdEAvrGjRsZOXIkJ554YiROL0mSsqgSJWDoUFi7Fm67DfLnh6+/hgsugLp1YeJEg7ok6egVkYD+0UcfUaNGDXbs2LHfc9u3b6dmzZp85AapkiQdtYoXhyFDgqA+cCAUKACLFkGnTnDSSfDqq5CcHO0qJUnKXBEJ6KNGjaJXr14ULFhwv+cKFSrEVVdd5T7okiSJYsXg3nth3Tq4804oVAiWLIH//Adq1YIJEwzqkqSjR0QC+jfffMPZZ5990OfPOussvvrqq0h0LUmSsqAiRWDw4OCK+t13B4+XLoWLLoIaNWDcONi3L9pVSpIUWREJ6Js3byZnzpwHfT5Hjhxs2bIlEl1LkqQsrHBhuOOOIKjfdx8ULQrffw/du0P16jB2LCQlRbtKSZIiIyIBvUyZMixevPigzy9atIhSpUpFomtJkpQNFCwIAwYEQf2BB+CYY2DVKrjsMqhWDZ55BvbujXaVkiRlrIgE9DZt2nDHHXewZ8+e/Z77448/GDRoEO3atYtE15IkKRspUAD69QuC+kMPwbHHBlu19eoFxx8PY8ZAYmK0q5QkKWNEJKDffvvtbNu2jeOPP56hQ4fy1ltv8dZbb/Hggw9SrVo1tm3bxsCBAyPRtSRJyoby5YO+fYNwPmIElCwZLCx39dVQtSo88QQc4LqAJElZSkQCeokSJfj000858cQT6d+/P+effz7nn38+AwYM4MQTT+Tjjz+mRIkSkehakiRlY3nzws03w+rV8MgjULo0/Pgj9O4NlSvDo4/CH39Eu0pJko5MRAI6QPny5Zk6dSpbt27l888/57PPPmPr1q1MnTqVihUrRqpbSZJ0FEhIgOuvD+alP/44lC0LGzfCDTdApUowciTs3h3tKiVJOjwRC+ipihQpwsknn0zDhg0pUqRIpLuTJElHkTx54NprYeVKGD0ajjsONm2CPn2gYkUYNgx27Yp2lZIkHZqIB3RJkqRIy50brroKVqyAp58OwvnPP8Mtt0CFCvDgg/D779GuUpKkv2dAlyRJ2UauXHDFFbB8OTz3XDAvfetWuO22IKjffz/s2BHtKiVJOjADuiRJynZy5oSePWHZMnjxxWBLtm3bYODAIKjfcw/89lu0q5QkKT0DuiRJyrZy5IBLLoHvvoOXXoLq1eHXX+HOO4OgPmhQ8FiSpFhgQJckSdlefDx06waLF8Mrr0DNmrB9O9x9N5QvD7ffDr/8Eu0qJUlHOwO6JEk6asTHQ5cusGgRvP461KoVLB53333BFfX+/WHLlmhXKUk6WhnQJUnSUScuDjp2hIULYdIkqFMHdu6EBx4IVoC/9VbYvDnaVUqSjjYGdEmSdNSKi4Pzz4cFC2DKFGjQINg3/aGHgqDep0+wr7okSZnBgC5Jko56oRC0bw/z58O770LDhvDHHzByZBDUb7wRNm6MdpWSpOzOgC5JkvT/QiFo0wY++wzeew+aNIE9e+CRR6BSJbjuOvjxx2hXKUnKrgzokiRJfxEKQevW8Mkn8P77cPrpkJgIjz8OlSvDNdfAunXRrlKSlN0Y0CVJkg4iFIIzz4S5c2HOHGjWDJKSYPRoqFIFevWCNWuiXaUkKbswoEuSJP2DUCgI53PmBGH9zDNh3z545hmoWhUuuwxWrYp2lZKkrM6ALkmSdBjOOCMY9v7xx8Ew+ORkGDsWqlWDHj3g+++jXaEkKasyoEuSJB2BU08NFpKbNy9YWC45GV58EU44AS6+GJYujXaFkqSsxoAuSZL0LzRuHGzN9sUXwVZtKSnw0ktQsyZ07QpLlkS7QklSVmFAlyRJygANGsCUKbBgAZx3HoTD8MorcOKJ0KkTLFoU7QolSbHOgC5JkpSB6taFN9+EhQuhY8fg2MSJULs2XHBBcFySpAMxoEuSJEVA7drw+uvw7bfQpUuwEvybbwYBvkMH+OqraFcoSYo1BnRJkqQIOvHEYKj74sXQrRvExQVD4Rs0gHbtYP78aFcoSYoVBnRJkqRMUKNGsHjcd9/BJZcEQf3dd6FRIzj77GA1eEnS0c2ALkmSlImqVQu2Y1u+HHr2hPh4mD4dTjkFWrUK9leXJB2dDOiSJElRUKUKPPccfP89XHEF5MgB778Pp58OLVrABx9Eu0JJUmYzoEuSJEVRpUrw9NOwYgVcdRXkzAlz5kDz5tC0KcyaFWzZJknK/gzokiRJMaBCBRg9GlatgmuvhVy54MMPoWXL4Kr6jBkGdUnK7gzokiRJMaRcOXj8cVi9Gq6/HnLnhk8+gdatg3nq06YZ1CUpuzKgS5IkxaAyZeCRR2DNGrjpJsiTBz77DNq0CVZ+f+cdg7okZTcGdEmSpBhWqhSMHBkE9b59IW9e+OILaN8e6teHyZMN6pKUXRjQJUmSsoCSJeGhh4Kg3q8f5MsHX38N558PdevCG29ASkq0q5Qk/RsGdEmSpCzk2GPhgQdg7VoYMAAKFIBvvoGOHaF2bXjtNUhOjnaVkqQjYUCXJEnKgo45Bu67Lwjqd9wBBQvC4sXQpQvUqgUvv2xQl6SsxoAuSZKUhRUtCnffDevWweDBULgwLF0K3bpBzZowfjzs2xftKiVJh8KALkmSlA0ULgx33hlcUb/33iC4L18Ol1wCJ5wAzz9vUJekWGdAlyRJykYKFYKBA4OgPmQIFCsGK1dCz55QrRo8+ywkJUW7SknSgRjQJUmSsqECBeC224KgPnQoFC8Oq1fDFVdA1arw1FOwd2+0q5Qk/ZkBXZIkKRvLnx9uuSXYnm34cChRIpivftVVUKUKPPkkJCZGu0pJEhjQJUmSjgr58kGfPkFQf/hhKFUKfvwRrr0WKleGxx6DPXuiXaUkHd0M6JIkSUeRhAS44YZguPtjj0HZsrBhA1x/PVSqBKNGwe7d0a5Sko5OBnRJkqSjUJ480Lt3sIDck0/CccfBTz/BzTcHQX34cNi1K9pVStLRxYAuSZJ0FMudG66+GlasCBaOq1ABNm+Gvn2hYsVggbmdO6NdpSQdHQzokiRJIlcu6NULvv8+2IqtUiXYsgX69QtC+5AhsGNHtKuUpOzNgC5JkqQ0OXPCZZfB8uXwwgvBlmy//AIDBgRB/d57Yfv2aFcpSdmTAV2SJEn7yZEDuneH776D8eOhWjX49Ve44w4oXx7uuit4LEnKOAZ0SZIkHVSOHHDRRbBkCbz8MtSoEVxBHzw4uKJ+xx3BFXZJ0r9nQJckSdI/io+H//wHvv0WXnsNTjwxmJN+771BUB8wALZujXaVkpS1GdAlSZJ0yOLioFMn+OYbeOMNqF07WOV9yJAgqPfrBz//HO0qJSlrMqBLkiTpsMXFwQUXwNdfw1tvQb16wb7pQ4cGQf2//4VNm6JdpSRlLQZ0SZIkHbFQCM49F778Et55B04+Gf74A0aMCPZRv+km2Lgx2lVKUtZgQJckSdK/FgpB27bw+ecwbRo0bgx79sDDDwd7ql9/PaxfH+0qJSm2GdAlSZKUYUIhOPts+PRTmDEDTj0VEhPhscegcmW49lr44YdoVylJscmALkmSpAwXCkGrVvDRRzB7NjRtCnv3wpNPQpUqcNVVsHZttKuUpNhiQJckSVLEhELQvDl88EFwa9ECkpLgqaegalW4/HJYtSraVUpSbDCgS5IkKVM0bQqzZgVX1Vu1gn374LnnoFo1uPRSWLEi2hVKUnQZ0CVJkpSpTjstmJ/+6adwzjmQnAwvvADVq8Mll8CyZdGuUJKiw4AuSZKkqGjSBKZODVZ+b9cOUlJg/HioUQO6dYPvvot2hZKUuQzokiRJiqqGDeHtt4O91Dt0gHAYXn4ZTjwRunSBb7+NdoWSlDkM6JIkSYoJ9evD5Mnw9ddwwQVBUH/tNTjpJLjwQvjmm2hXKEmRZUCXJElSTKlTB954AxYtgs6dg5XgJ00Kjp93HixYEOUCJSlCDOiSJEmKSbVqwauvBkPcu3YNgvpbbwVX2tu3hy++iHaFkpSxDOiSJEmKaTVrwoQJwaJxF18McXHwzjvB3PU2beCzz6JdoSRlDAO6JEmSsoTq1WHcuGAbth49ID4epk0LVoM/6yz45JNoVyhJ/44BXZIkSVlK1arw/POwfDlcfjnkyAEzZwb7q595Jnz4YbQrlKQjY0CXJElSllS5MjzzDHz/PVx5JeTMCbNnQ9Om0KwZzJkTrAQvSVmFAV2SJElZWsWKMGYMrFgB11wDuXLB3LnQogWccUZwdd2gLikrMKBLkiQpWyhfHp54Alatguuug9y54eOPg/npp54K771nUJcU2wzokiRJylbKloVHH4XVq+HGGyFPHpg3D845Bxo3hnffNahLik0GdEmSJGVLpUvDqFGwZg306QMJCTB/PrRrByefDFOmGNQlxRYDuiRJkrK1kiVh+HBYuxZuvRXy5YOvvoIOHaBePZg0CVJSol2lJBnQJUmSdJQ49lh48MEgqPfvD/nzw8KFcOGFUKcOvP66QV1SdBnQJUmSdFQ55hi4//4gqN9+OxQsCN9+C507Q61a8MorkJwc7SolHY0M6JIkSToqFSsG99wTBPVBg6BQIfjuO+jaFU48EV56Cfbti3aVko4mBnRJkiQd1YoUgbvugnXrgsBepAgsWwYXXww1asCLLxrUJWUOA7okSZJEcAX99tuDK+r33x9cYV+xAnr0gGrV4LnnICkp2lVKys4M6JIkSdKfFCwYLCK3Zk2wqFzx4sGe6pdfDscfD08/DXv3RrtKSdmRAV2SJEk6gAIFgm3Z1qyBYcOCVeDXroUrr4SqVWH0aEhMjHaVkrITA7okSZL0N/Llg//+NwjqI0cG+6r/8ANccw1UrgyPPQZ79kS7SknZgQFdkiRJOgR588JNNwXD3R99FMqUgQ0b4PrroVIlePhh+OOPaFcpKSszoEuSJEmHISEBrrsOVq6EJ56AcuXgp5+C8F6xIowYAbt3R7tKSVmRAV2SJEk6AnnyBMPcV6yAMWOgfHnYvDkYDl+xIjz0EOzcGe0qJWUlBnRJkiTpX8idO1g47vvv4ZlngnD+88/BAnMVK8IDD8Dvv0e7SklZgQFdkiRJygC5cgVbsS1fDmPHQpUqsHVrsGVbhQpw332wfXu0q5QUywzokiRJUgbKmRMuvRSWLoVx46BaNdi2DW6/PQjqgwfDb79FuUhJMcmALkmSJEVAjhxw8cWwZAlMmAAnnBAE87vuCuar33lnENwlKZUBXZIkSYqg+Hjo2hUWL4ZXX4UTT4QdO+Cee4Ir6gMHBkPhJcmALkmSJGWCuDjo3Bm++QYmToSTTgoWj7v//iCo33YbbNkS7SolRZMBXZIkScpEcXFw4YXw9dcweTLUrQu7dsGDDwZBvW/fYLs2SUcfA7okSZIUBXFx0KEDfPUVvP02NGgAu3fD8OHB9mw33ww//RTtKiVlJgO6JEmSFEWhELRrB/Pnw9Sp0KgR/PEHjBoVBPUbboANG6JdpaTMYECXJEmSYkAoBOecA/PmwfTpcMopkJgIjz4KlSpB797www/RrlJSJBnQJUmSpBgSCsFZZ8HHH8OsWXDGGbB3LzzxBFSpAldfDWvXRrtKSZFgQJckSZJiUCgELVrA3LnwwQfQvDkkJcGYMVC1KlxxBaxeHe0qJWUkA7okSZIU45o2hdmz4cMPoWVL2LcPnn0Wjj8eevaElSujXaGkjGBAlyRJkrKI00+HmTPhk0/g7LMhORmefx6qVYPu3WH58mhXKOnfMKBLkiRJWcwpp8C0afDZZ9C2LaSkwLhxUKMGXHQRLF0a7QolHQkDuiRJkpRFNWoE77wDX34J554bBPUJE6BmTfjPf2Dx4mhXKOlwGNAlSZKkLK5+fXjrLViwAM4/H8JhePVVqFULOnaERYuiXaGkQ2FAlyRJkrKJunVh0iT45hvo1ClYCf6NN6B27SC4f/11tCuU9HcM6JIkSVI2c9JJ8Npr8O23wVD3UAgmT4Z69YKh8F9+Ge0KJR2IAV2SJEnKpmrWhJdfhiVLgsXj4uLg7bfh5JODxeU+/zzaFUr6MwO6JEmSlM2dcAKMHx+s7t69O8THw9Sp0LgxtG4Nn34a7QolgQFdkiRJOmocfzy88AIsWwaXXRYE9Rkz4NRToWVL+OijaFcoHd0M6JIkSdJRpkoVePZZWLECevWCHDlg1iw44wxo3hzmzAlWgpeUuQzokiRJ0lGqYkV46ilYuRKuvhpy5oQPPoAWLaBpU3j/fYO6lJkM6JIkSdJRrnx5ePJJWLUKeveGXLmC4e6tWsFpp8H06QZ1KTMY0CVJkiQBUK4cPPYYrF4NN9wAefIEC8idfTY0aRIsLGdQlyLHgC5JkiQpnTJl4OGHg6B+882QkBBsyda2LTRsGGzVZlCXMp4BXZIkSdIBlSoFI0bAmjVwyy2QNy98+SWcey7Urw9vvgkpKdGuUso+DOiSJEmS/laJEjB0KKxdC7fdBvnzw9dfwwUXQN26MHGiQV3KCAZ0SZIkSYekeHEYMiQI6gMHQoECsGgRdOoEJ50Er74KycnRrlLKugzokiRJkg5LsWJw772wbh3ceScUKgRLlsB//gO1asGECQZ16UgY0CVJkiQdkSJFYPDg4Ir63XcHj5cuhYsugho1YNw42Lcv2lVKWYcBXZIkSdK/Urgw3HFHENTvuw+KFoXvv4fu3aF6dRg7FpKSol2lFPsM6JIkSZIyRMGCMGBAENQfeACOOQZWrYLLLoNq1eCZZ2Dv3mhXKcUuA7okSZKkDFWgAPTrFwT1hx6CY48Ntmrr1QuOPx7GjIHExGhXKcUeA7okSZKkiMiXD/r2DcL5iBFQsmSwsNzVV0PVqvDEE7BnT7SrlGKHAV2SJElSROXNCzffDKtXwyOPQOnS8OOP0Ls3VK4Mjz4Kf/wR7Sql6DOgS5IkScoUCQlw/fXBvPTHH4eyZWHjRrjhBqhUCUaOhN27o12lFD0GdEmSJEmZKk8euPZaWLkSRo+G446DTZugTx+oWBGGDYNdu6JdpZT5DOiSJEmSoiJ3brjqKlixAp5+OgjnP/8Mt9wCFSrAgw/C779Hu0op8xjQJUmSJEVVrlxwxRWwfDk891wwL33rVrjttiCo338/7NgR7SqlyDOgS5IkSYoJOXNCz56wbBm8+GKwJdu2bTBwYBDU77kHfvst2lVKkWNAlyRJkhRTcuSASy6B776Dl16C6tXh11/hzjuDoD5oUPBYym4M6JIkSZJiUnw8dOsGixfDK69AzZqwfTvcfTeULw+33w6//BLtKqWMY0CXJEmSFNPi46FLF1i0CF5/HWrVChaPu+++4Ip6//6wZUu0q5T+PQO6JEmSpCwhLg46doSFC2HSJKhTB3buhAceCFaAv/VW2Lw52lVKR86ALkmSJClLiYuD88+HBQtgyhSoXz/YN/2hh4Kg3qdPsK+6lNUY0CVJkiRlSaEQtG8PX3wB774LDRvCH3/AyJFBUL/xRti4MdpVSofOgC5JkiQpSwuFoE0b+OwzeO89aNIE9uyBRx6BSpXguuvgxx+jXaX0zwzokiRJkrKFUAhat4ZPPoGZM+G00yAxER5/HKpUgWuugXXrol2ldHAGdEmSJEnZSigELVvChx/C7NnQrBns3QujR0PVqnDllbBmTbSrlPZnQJckSZKULYVC0Lw5zJkDc+fCmWdCUhI8/TQcfzxcfjmsWhXtKqX/MaBLkiRJyvbOOAPefx8+/hjOOgv27YPnnoNq1aBHD/j++2hXKBnQJUmSJB1FTj0Vpk+HefOCheWSk+HFF+GEE+Dii2Hp0mhXqKOZAV2SJEnSUadx42Brtvnzg63aUlLgpZegZk3o2hWWLIl2hToaGdAlSZIkHbVOPhmmTIGvvoLzzoNwGF55BWrVgs6dYdGiaFeoo4kBXZIkSdJRr149ePNNWLgQLrwwCOqvvw61a8MFFwTHpUgzoEuSJEnS/6tdGyZOhG+/hS5dgpXg33wT6taFDh2CK+1SpBjQJUmSJOkvTjwxGOq+eDF06wZxccFQ+AYNoF27YO66lNEM6JIkSZJ0EDVqBIvHffcdXHJJENTffRcaNYKzzw5Wg5cyigFdkiRJkv5BtWrBdmzLl8Oll0J8fLBd2ymnQKtWwf7q0r9lQJckSZKkQ1SlCowdC99/D5dfDjlywPvvw+mnQ4sW8MEH0a5QWVmWC+iPP/44FSpUIE+ePDRq1Ij5fzP5Y9KkSTRo0IDChQuTL18+6tSpw7hx49KeT0pKol+/ftSqVYt8+fJRunRpunfvzsaNG9ParF27lssvv5yKFSuSkJBA5cqVGTRoEHv37k3XVzgcZtiwYRx//PHkzp2bMmXKcN999x2wrk8++YQcOXJQp06ddMfvuusuQqFQulv16tXTnt+2bRvXX3891apVIyEhgeOOO44bbriB7du3H85HKEmSJOlfqlQJnnkGVqyAq66CnDlhzhxo3hyaNoVZs4KV4P8sORnmzg3x4YdlmDs3RHJydGpX7MpSAf3VV1+lT58+DBo0iAULFlC7dm1at27Nzz//fMD2RYsWZeDAgcybN49FixbRs2dPevbsyfTp0wHYvXs3CxYs4I477mDBggVMmjSJ5cuXc+6556adY9myZaSkpDBmzBiWLFnCyJEjGT16NAMGDEjX14033sgzzzzDsGHDWLZsGVOmTKFhw4b71fTbb7/RvXt3zjzzzAPWXLNmTX766ae028d/GiuzceNGNm7cyLBhw1i8eDHPP/887733Hpdffvlhf5aSJEmS/r0KFWD0aFi5Eq69FnLlgg8/hJYtg6vqM2YEQX3SpKBtq1Y5GDGiAa1a5aBCheC4lCoUDv/1e53Y1ahRI04++WQee+wxAFJSUihXrhzXX389t9122yGdo169erRt25Z77rnngM9/8cUXNGzYkHXr1nHccccdsM1DDz3Ek08+yerVqwFYunQpJ510EosXL6ZatWp/2/9//vMfqlatSnx8PJMnT2bhnzZUvOuuu/Y79k9ef/11Lr74Ynbt2kWOHDn+sf2OHTsoVKgQ27dvp2DBgofcTyQkJSUxdepU2rRpQ86cOSP+uqzkaHiPR8LPRZIkxbr162HoUHjqKUhMDI4df3wwJP6vQqHg58SJwV7rmS2WsoECWeYK+t69e/nqq69o2bJl2rG4uDhatmzJvENYOjEcDjNr1iyWL1/OGWeccdB227dvJxQKUbhw4b9tU7Ro0bTH/9fevQdFdd5/HP/sco0KklGKIAgSo2BJRFERLxEy6oZJmJDWRtFGY9VO2+gEmTTGTidibEcywdQ0jWm1bTbGZhptJ9QQgzJ4CVGxIpJRR4iAEUEhXoLcUiXA7w9+bN0IiDSwZ8P7NcMMe3i+u9/nCYbz2XP2nA8++EChoaHKzMzUyJEjFRISomXLlunatWt2dW+99ZbKysq0du3aTp/77NmzCggIUGhoqBYuXKjy8vIu59X+j6k74RwAAABA7woMlH7/e+ncOSk5WfLw6DicS/89BT45WZzuDkmS06S6K1euqLm5WX5+fnbb/fz8VFRU1Gnd9evXNXz4cN24cUMuLi7avHmzZs+e3eHY//znP1q9erWSkpI6fQeppKREr7/+utLT023bysrKdP78ee3cuVPbtm1Tc3OzVq1apblz52rfvn2S2oL3Cy+8oNzc3E7DdHR0tKxWq8aMGaNLly5p3bp1mjFjhk6dOiUvL68O12T9+vX66U9/2un8b9y4oRvtb92p7V0yqe1IZFNTU6d1faH99e+2j57WOZP+MMeeYF0AAICzGDq07Uh6TIxJ8+Z1HrtaW6ULF6T9+7/WzJl9e3Iz+1TG4zQBvae8vLxUWFio+vp65eTkKCUlRaGhoYqNjbUb19TUpCeffFKtra168803O3yuyspKPfLII/rRj36k5cuX27a3tLToxo0b2rZtm0aPHi1J+stf/qKoqCgVFxdr1KhRWrBggdatW2f7eUfi4+Nt3z/44IOKjo5WcHCwduzYcdvnzGtra/Xoo49q7NixSk1N7fQ5N2zYoHXr1t22fe/evRowYECndX0pOzu7T+ucSX+YY0+wLgAAwFkcPTpc0sQ7jvvoo0I1NFT2fkO3aGxs7NPXw505TUAfOnSoXFxcVF1dbbe9urpaw4YN67TObDZr1KhRkqTIyEidOXNGGzZssAvo7eH8/Pnz2rdvX4dHzy9evKi4uDhNnTpVW7ZssfuZv7+/XF1d7cJ3eHi4JKm8vFx+fn7Kz8/XiRMntGLFCkltob61tVWurq7au3evHn744dte08fHR6NHj1ZJSYnd9rq6Oj3yyCPy8vLS+++/3+VncdesWaOUlBTb49raWgUFBWnOnDkO/5xJU1OTsrOzNXv27Lv+DHpP6pxJf5hjT7AuAADA2QwcaNKrr955XHx8pGbOHNf7Dd2i/exaGIfTBHR3d3dFRUUpJydHiYmJktpCbk5Oji30dkf70e527eH87Nmz2r9/v4YMGXJbTWVlpeLi4hQVFaW33npLZrP9R/enTZumr7/+WqWlpbrvvvskSZ/9/wdNgoOD5e3trZMnT9rVbN68Wfv27dM//vEPjRw5ssNe6+vrVVpaqqeeesq2rba2VhaLRR4eHtq1a5c8PT27nK+Hh4c8PDxu2+7m5maYgNPTXow0h97SH+bYE6wLAABwFnFxbZ9Lr6y8/bZrUtuF4gIDpbg4V7m49G1v7E8Zj9MEdElKSUnR4sWLNXHiRE2ePFmbNm1SQ0ODlixZIklatGiRhg8frg0bNkhqO7174sSJuu+++3Tjxg3t3r1b77zzju0U9qamJs2dO1cFBQXKzMxUc3OzqqqqJLXdos3d3V2VlZWKjY1VcHCw0tPTdfnyZVs/7UfuZ82apQkTJugnP/mJNm3apJaWFj3zzDOaPXu27ah6RESE3Vy+973vydPT0277c889p4SEBAUHB+vixYtau3atXFxclJSUJKktnM+ZM0eNjY3avn27amtrbe96+fr6yqWv/0UDAAAA6JKLi/Taa9LcuW1h/NaQ3n4V902b1OfhHMbkVAF93rx5unz5sl588UVVVVUpMjJSWVlZtgvHlZeX2x3dbmho0C9+8QtVVFTonnvuUVhYmLZv36558+ZJajsyvmvXLkltp7/fav/+/YqNjVV2drZKSkpUUlKiwMBAuzHtd6gzm8364IMPtHLlSj300EMaOHCg4uPjtXHjxruaX0VFhZKSknT16lX5+vpq+vTpysvLk6+vrySpoKBAR48elSTbafvtzp07p5CQkLt6PQAAAAC97wc/aLuV2rPPtt2GrV1gYFs4d8Qt1mBMTnUfdPzvjHSvQ+6D3rn+MMeeYF0AAIAza25uu1r7Rx8VKj4+0iGntd/KSNkAbZzqCDoAAAAAOCsXF2nmzFY1NFRq5sxxnNaO25jvPAQAAAAAAPQ2AjoAAAAAAAZAQAcAAAAAwAAI6AAAAAAAGAABHQAAAAAAAyCgAwAAAABgAAR0AAAAAAAMgIAOAAAAAIABENABAAAAADAAAjoAAAAAAAZAQAcAAAAAwAAI6AAAAAAAGAABHQAAAAAAA3B1dAPoW62trZKk2tpaB3ciNTU1qbGxUbW1tXJzc+v1OmfSH+bYE6wLAABwdkban2nPBO0ZAY5HQO9n6urqJElBQUEO7gQAAACAEdTV1Wnw4MGObgOSTK28XdKvtLS06OLFi/Ly8pLJZHJoL7W1tQoKCtKFCxfk7e3d63XOpD/MsSdYFwAA4OyMtD/T2tqquro6BQQEyGzm089GwBH0fsZsNiswMNDRbdjx9vbu0f+celrnTPrDHHuCdQEAAM7OKPszHDk3Ft4mAQAAAADAAAjoAAAAAAAYAAEdDuPh4aG1a9fKw8OjT+qcSX+YY0+wLgAAwNmxP4OucJE4AAAAAAAMgCPoAAAAAAAYAAEdAAAAAAADIKADAAAAAGAABHQAAAAAAAyAgI5e9cYbbygkJESenp6Kjo7Wv//97y7H79y5U2FhYXJzc5O7u7vc3d3vWHf69Gn98Ic/VEhIiEwmkzZt2vQtz6J33M3aWK1WmUwmuy9PT88+7LZvfPzxx0pISFBAQIBMJpMyMjLuWHPgwAFNmDBBHh4eGjVqlKxWa6/3CQAA0JHU1NTb9tnCwsK6rGnf//X09NQDDzyg3bt391G3MCICOnrNe++9p5SUFK1du1YFBQUaN26cLBaLvvjiiw7HHz58WElJSYqKipLJZJLFYlFra6uCgoK6rGtsbFRoaKjS0tI0bNiw3pzSt+Zu10aSvL29denSJdvX+fPn+7DjvtHQ0KBx48bpjTfe6Nb4c+fO6dFHH1VcXJwKCwuVnJysZcuWac+ePb3cKQAAQMe+//3v2+2zffLJJ52Obd//Xbp0qU6cOKHExEQlJibq1KlTfdgxjITbrKHXREdHa9KkSfrDH/4gSWppaVFQUJBWrlypF1544bbx8+bNU0NDgy5fvmyrmzJlisaNG6fMzMxO624VEhKi5ORkJScn98aUvjV3uzZWq1XJycmqqanp404dx2Qy6f3331diYmKnY1avXq0PP/zQ7o/Y/PnzVVNTo6ysrD7oEgAA4L9SU1OVkZGhwsLCbo1v3//NzMy0bZsyZYoiIyP1xz/+sZe6hJFxBB294ubNmzp+/LhmzZpl22Y2mzVr1iwdOXKkw5ojR44oNjbWrs5isSgvL6/LOmfTk7WRpPr6egUHBysoKEiPP/64Tp8+3RftGtqRI0fs1lFq+535rvyuAAAA53P27FkFBAQoNDRUCxcuVHl5eadj2ZfBNxHQ0SuuXLmi5uZm+fn52W338/NTVVVVhzVVVVUaMGCAXV37+K7qnE1P1mbMmDH661//qn/961/avn27WlpaNHXqVFVUVPRFy4bV/rtxKz8/P9XW1uqrr75yUFcAAKC/io6OltVqVVZWlt58802dO3dOM2bMUF1dXYfjO9uX+a7s9+LuuTq6AQB3FhMTo5iYGNvjqVOnKjw8XH/605+0fv16B3YGAACAdvHx8bbvH3zwQUVHRys4OFg7duzQ0qVLHdgZnAVH0NErhg4dKhcXF1VXV9ttr66u7vRCbsOGDVNjY6NdXfv4ruqcTU/W5pvc3Nw0fvx4lZSU9EaLTqP9d+NW1dXV8vb21j333OOgrgAAANr4+Pho9OjRne6zdbYv813Z78XdI6CjV7i7uysqKko5OTm2bS0tLcrJybE7EnyrmJgYHTx40K4uOztbU6ZM6bLO2fRkbb6publZJ0+elL+/f2+16RRiYmLs1lFq+535rvyuAAAA51ZfX6/S0tJO99nYl8E3EdDRa1JSUrR161a9/fbbOnPmjH7+85+roaFBS5YskSQtWrRIa9assY1/9tlnlZWVpdGjR2vLli1KTEzUsWPHdO3atS7rbt68qcLCQhUWFurmzZuqrKxUYWGhoY8u3+3avPTSS9q7d6/KyspUUFCgH//4xzp//ryWLVvmqCn0ivr6ett/S6ntNmqFhYW2i6usWbNGixYtso3/2c9+prKyMj3//PMqKirS5s2btWPHDq1atcoR7QMAgH7uueee08GDB/X555/r8OHDeuKJJ+Ti4qKkpCRJne//bty4UUVFRUpNTVV+fr5WrFjhqCnAwfgMOnrNvHnzdPnyZb344ouqqqpSZGSksrKybBfCKC8vl9n83/eIpk6dqnfffVe//vWv1dzcrN27d9vGdVV38eJFjR8/3vY4PT1d6enpmjlzpg4cONAHM717d7s2X375pZYvX66qqirde++9ioqK0uHDhzV27FhHTaFX5OfnKy4uzvY4JSVFkrR48WJZrVZdunTJ7kqoI0eO1IcffqhVq1bptddeU2BgoP785z/LYrH0ee8AAAAVFRVKSkrS1atX5evrq+nTpysvL0++vr6Sut7//dWvfqX7779fGRkZioiIcNQU4GDcBx0AAAAAAAPgFHcAAAAAAAyAgA4AAAAAgAEQ0AEAAAAAMAACOgAAAAAABkBABwAAAADAAAjoAAAAAAAYAAEdAAAAAAADIKADAAAdOHBAJpNJNTU13a5JTU1VZGRkr/UEAEB/Q0AHAAAAAMAACOgAADjYzZs3Hd0CAAAwAAI6AAB9LDY2VitWrFBycrKGDh0qi8WiU6dOKT4+XoMGDZKfn5+eeuopXblyxVZTV1enhQsXauDAgfL399fvfvc7xcbGKjk5uVuv+c4772jixIny8vLSsGHDtGDBAn3xxRedjrdarfLx8VFGRobuv/9+eXp6ymKx6MKFCx0+d0hIiAYPHqz58+errq7O9rOsrCxNnz5dPj4+GjJkiB577DGVlpZ2f7EAAOhHCOgAADjA22+/LXd3dx06dEhpaWl6+OGHNX78eOXn5ysrK0vV1dV68sknbeNTUlJ06NAh7dq1S9nZ2crNzVVBQUG3X6+pqUnr16/Xp59+qoyMDH3++ed6+umnu6xpbGzUb3/7W23btk2HDh1STU2N5s+fbzemtLRUGRkZyszMVGZmpg4ePKi0tDTbzxsaGpSSkqL8/Hzl5OTIbDbriSeeUEtLS7d7BwCgvzC1tra2OroJAAD6k9jYWNXW1toC9m9+8xvl5uZqz549tjEVFRUKCgpScXGx/P39NWTIEL377ruaO3euJOn69esKCAjQ8uXLtWnTprvuIT8/X5MmTVJdXZ0GDRqkAwcOKC4uTl9++aV8fHxktVq1ZMkS5eXlKTo6WpJUVFSk8PBwHT16VJMnT1ZqaqpeeeUVVVVVycvLS5L0/PPP6+OPP1ZeXl6Hr3vlyhX5+vrq5MmTioiIuOu+AQD4LuMIOgAADhAVFWX7/tNPP9X+/fs1aNAg21dYWJiktiPUZWVlampq0uTJk201gwcP1pgxY7r9esePH1dCQoJGjBghLy8vzZw5U5JUXl7eaY2rq6smTZpkexwWFiYfHx+dOXPGti0kJMQWziXJ39/f7tT5s2fPKikpSaGhofL29lZISMgdXxcAgP7K1dENAADQHw0cOND2fX19vRISEvTyyy/fNs7f318lJSX/02s1NDTIYrHIYrHob3/7m3x9fVVeXi6LxfI/X6DOzc3N7rHJZLI7fT0hIUHBwcHaunWrAgIC1NLSooiICC6MBwBABwjoAAA42IQJE/TPf/5TISEhcnW9/U9zaGio3NzcdOzYMY0YMUJS2ynun332mR566KE7Pn9RUZGuXr2qtLQ0BQUFSWo7xf1Ovv76a+Xn59uO3BcXF6umpkbh4eHdmtfVq1dVXFysrVu3asaMGZKkTz75pFu1AAD0R5ziDgCAgz3zzDO6du2akpKSdOzYMZWWlmrPnj1asmSJmpub5eXlpcWLF+uXv/yl9u/fr9OnT2vp0qUym80ymUx3fP4RI0bI3d1dr7/+usrKyrRr1y6tX7/+jnVubm5auXKljh49quPHj+vpp5/WlClT7E6178q9996rIUOGaMuWLSopKdG+ffuUkpLSrVoAAPojAjoAAA4WEBCgQ4cOqbm5WXPmzNEDDzyg5ORk+fj4yGxu+1P96quvKiYmRo899phmzZqladOmKTw8XJ6ennd8fl9fX1mtVu3cuVNjx45VWlqa0tPT71g3YMAArV69WgsWLNC0adM0aNAgvffee92el9ls1t///ncdP35cERERWrVqlV555ZVu1wMA0N9wFXcAAJxQQ0ODhg8fro0bN2rp0qXf+vNbrVYlJyerpqbmW39uAADQMT6DDgCAEzhx4oSKioo0efJkXb9+XS+99JIk6fHHH3dwZwAA4NtCQAcAwEmkp6eruLhY7u7uioqKUm5uroYOHarc3FzFx8d3WldfX9+HXQIAgJ7iFHcAAJzcV199pcrKyk5/PmrUqD7sBgAA9BQBHQAAAAAAA+Aq7gAAAAAAGAABHQAAAAAAAyCgAwAAAABgAAR0AAAAAAAMgIAOAAAAAIABENABAAAAADAAAjoAAAAAAAZAQAcAAAAAwAAI6AAAAAAAGAABHQAAAAAAAyCgAwAAAABgAAR0AAAAAAAMgIAOAAAAAIABENABAAAAADAAAjoAAAAAAAZAQAcAAAAAwAAI6AAAAAAAGAABHQAAAAAAAyCgAwAAAABgAAR0AAAAAAAMgIAOAAAAAIAB/B/nF6Ug7iTDgQAAAABJRU5ErkJggg==;" vertex="1" parent="1">
          <mxGeometry x="30" y="110" width="1000" height="600" as="geometry" />
        </mxCell>
        <mxCell id="b0SDCwtsSrpGWw1Ykn4l-2" value="" style="rounded=0;whiteSpace=wrap;html=1;strokeColor=none;" vertex="1" parent="1">
          <mxGeometry x="160" y="650" width="80" height="30" as="geometry" />
        </mxCell>
        <mxCell id="b0SDCwtsSrpGWw1Ykn4l-4" value="&lt;font style=&quot;font-size: 14px;&quot; face=&quot;Sans Serif&quot;&gt;0.0&lt;/font&gt;" style="text;html=1;align=center;verticalAlign=middle;resizable=0;points=[];autosize=1;strokeColor=none;fillColor=none;" vertex="1" parent="1">
          <mxGeometry x="170" y="642" width="40" height="30" as="geometry" />
        </mxCell>
        <mxCell id="b0SDCwtsSrpGWw1Ykn4l-5" value="&lt;font style=&quot;font-size: 14px;&quot; face=&quot;Sans Serif&quot;&gt;0.1&lt;/font&gt;" style="text;html=1;align=center;verticalAlign=middle;resizable=0;points=[];autosize=1;strokeColor=none;fillColor=none;" vertex="1" parent="1">
          <mxGeometry x="184" y="659" width="40" height="30" as="geometry" />
        </mxCell>
        <mxCell id="b0SDCwtsSrpGWw1Ykn4l-6" value="" style="endArrow=none;html=1;rounded=0;strokeWidth=1;" edge="1" parent="1">
          <mxGeometry width="50" height="50" relative="1" as="geometry">
            <mxPoint x="203.95" y="665" as="sourcePoint" />
            <mxPoint x="203.95" y="649" as="targetPoint" />
          </mxGeometry>
        </mxCell>
        <mxCell id="b0SDCwtsSrpGWw1Ykn4l-7" value="" style="endArrow=none;html=1;rounded=0;strokeWidth=1;" edge="1" parent="1">
          <mxGeometry width="50" height="50" relative="1" as="geometry">
            <mxPoint x="205" y="665" as="sourcePoint" />
            <mxPoint x="205" y="649" as="targetPoint" />
          </mxGeometry>
        </mxCell>
        <mxCell id="b0SDCwtsSrpGWw1Ykn4l-8" value="" style="shape=image;verticalLabelPosition=bottom;labelBackgroundColor=default;verticalAlign=top;aspect=fixed;imageAspect=0;image=data:image/png,iVBORw0KGgoAAAANSUhEUgAAA+gAAAJYCAYAAADxHswlAAAAOnRFWHRTb2Z0d2FyZQBNYXRwbG90bGliIHZlcnNpb24zLjEwLjAsIGh0dHBzOi8vbWF0cGxvdGxpYi5vcmcvlHJYcgAAAAlwSFlzAAAPYQAAD2EBqD+naQAAhDpJREFUeJzs3XmcjWXjx/HPmdWSPfu+VOKRnZQsFaJFSURJWrTRolULaZOUtO8hVFIqjxDZi1JJK0plXyL7PmbO74/7Mb8mSyrcZ2Y+79drXs+c+77POd+Z53lOfee67uuKRKPRKJIkSZIkKVRxYQeQJEmSJEkWdEmSJEmSYoIFXZIkSZKkGGBBlyRJkiQpBljQJUmSJEmKARZ0SZIkSZJigAVdkiRJkqQYYEGXJEmSJCkGWNAlSZIkSYoBFnRJkiRJkmKABV2SJEmSpBhgQZckSZIkKQZY0CVJkiRJigEWdEmSJEmSYoAFXZIkSZKkGGBBlyRJkiQpBljQJUmSJEmKARZ0SZIkSZJigAVdkiRJkqQYYEGXJEmSJCkGWNAlSZIkSYoBFnRJkiRJkmKABV2SJEmSpBhgQZckSZIkKQZY0CVJkiRJigEWdEmSJEmSYoAFXZIkSZKkGGBBlyRJkiQpBljQJUmSJEmKARZ0SZIkSZJigAVdkiRJkqQYYEGXJEmSJCkGWNAlSZIkSYoBFnRJkiRJkmKABV2SJEmSpBhgQZckSZIkKQZY0CVJkiRJigEWdEmSJEmSYoAFXZIkSZKkGGBBlyRJkiQpBljQJUmSJEmKARZ0SZIkSZJigAVdkiRJkqQYYEGXJEmSJCkGWNAlSZIkSYoBFnRJkiRJkmKABV2SJEmSpBhgQZckSZIkKQZY0CVJkiRJigEWdEmSDkKTJk1o0qRJKO9drlw5zjrrrH/8/MGDBxOJRFi0aNGhCyVJkg45C7okSYp5U6dOJRKJEIlEGDZs2D6vOfnkk4lEIvznP//Z5/nU1FRKlChBJBJh3Lhx+7zm3nvvTX+fSCRCrly5qFKlCnfffTebNm1Kv27PHz329/Xpp5/++x9akpTtJIQdQJIk6WDlyJGD119/nYsvvjjD8UWLFjFz5kxy5Mix3+dOnjyZlStXUq5cOYYPH07Lli33e+1zzz3HUUcdxZYtW5gwYQIPPvggkydP5pNPPiESiaRfd99991G+fPm9nl+pUqV/8NNJkrI7C7okKdPYunUruXPnDjuGQtSqVStGjx7N2rVrOfroo9OPv/766xQtWpRjjjmG9evX7/O5w4YNo1atWnTu3Jk777zzgP97atu2bfrrX3311Zx//vmMGjWKTz/9lAYNGqRf17JlS+rUqXMIf0JJUnbmFHdJUkzaM9X4hx9+oGPHjhQoUICGDRumnx82bBi1a9cmZ86cFCxYkAsvvJClS5fu9TrPPPMMFSpUIGfOnNSrV48ZM2YckvvJd+3aRa9evahduzb58uUjd+7cnHLKKUyZMiXDdYsWLSISifDoo4+mZ8mVKxfNmzdn6dKlRKNR7r//fkqVKkXOnDlp3bo169at2+d7TpgwgRo1apAjRw6qVKnCqFGj9rrm+++/59RTTyVnzpyUKlWKBx54gLS0tL2ue//99znzzDMpUaIEycnJVKxYkfvvv5/U1NQD/txvv/02kUiEadOm7XXuhRdeIBKJ8N133wGwatUqunTpQqlSpUhOTqZ48eK0bt36X90L37p1a5KTkxk5cmSG46+//jrt2rUjPj5+n8/bvn077777LhdeeCHt2rVj+/btvP/++wf9vqeeeioAv/766z/OLknSX3EEXZIU0y644AKOOeYYHnroIaLRKAAPPvgg99xzD+3ateOKK65gzZo1PPXUUzRq1IivvvqK/PnzA8E05W7dunHKKadw0003sWjRIs4991wKFChAqVKl/lWuTZs28fLLL9OhQweuvPJKNm/ezCuvvEKLFi2YPXs2NWrUyHD98OHD2bVrF927d2fdunU88sgjtGvXjlNPPZWpU6dy++23s3DhQp566iluueUWXn311QzP/+mnn2jfvj1XX301nTt3ZtCgQVxwwQWMHz+eZs2aAUEhbtq0Kbt37+aOO+4gd+7cvPjii+TMmXOv/IMHD+aoo46iR48eHHXUUUyePJlevXqxadMm+vfvv9+f+8wzz+Soo47irbfeonHjxhnOjRgxgqpVq6bfA37++efz/fff0717d8qVK8dvv/3GxIkTWbJkCeXKlfsHv3XIlSsXrVu35o033uCaa64B4Ouvv+b777/n5Zdf5ptvvtnn80aPHs2WLVu48MILKVasGE2aNGH48OF07NjxoN73559/BqBQoUIZjm/cuJG1a9dmOBaJRPa6TpKkgxKVJCkG9e7dOwpEO3TokOH4okWLovHx8dEHH3www/Fvv/02mpCQkH58586d0UKFCkXr1q0bTUlJSb9u8ODBUSDauHHjv5WncePGGZ6ze/fu6M6dOzNcs379+mjRokWjl112WfqxX3/9NQpECxcuHN2wYUP68Z49e0aBaPXq1TPk69ChQzQpKSm6Y8eO9GNly5aNAtF33nkn/djGjRujxYsXj9asWTP92I033hgFop999ln6sd9++y2aL1++KBD99ddf049v27Ztr5/xqquuiubKlSvDe+9Lhw4dokWKFInu3r07/djKlSujcXFx0fvuuy/9dwFE+/fvf8DXOlhTpkyJAtGRI0dGx4wZE41EItElS5ZEo9Fo9NZbb41WqFAhGo0G/z1VrVp1r+efddZZ0ZNPPjn98YsvvhhNSEiI/vbbbxmu2/O/uwULFkTXrFkT/fXXX6MvvPBCNDk5OVq0aNHo1q1bo9FoNDpo0KAosM+v5OTkQ/IzS5KyH6e4S5Ji2tVXX53h8ahRo0hLS6Ndu3asXbs2/atYsWIcc8wx6VPMv/jiC37//XeuvPJKEhL+f8LYRRddRIECBf51rvj4eJKSkgBIS0tj3bp17N69mzp16jBnzpy9rr/gggvIly9f+uP69esDcPHFF2fIV79+fXbt2sXy5cszPL9EiRKcd9556Y/z5s3LJZdcwldffcWqVasAGDt2LCeeeCL16tVLv65w4cJcdNFFe+X546j65s2bWbt2Laeccgrbtm1j/vz5B/zZ27dvz2+//cbUqVPTj7399tukpaXRvn379NdPSkpi6tSp+70n/J9q3rw5BQsW5M033yQajfLmm2/SoUOH/V7/+++/8+GHH2a45vzzzycSifDWW2/t8znHHXcchQsXpnz58lx11VVUqlSJDz74gFy5cmW47plnnmHixIkZvva3QrwkSX/FKe6SpJj25xWyf/rpJ6LRKMccc8w+r09MTARg8eLFwN6raSckJPzj6dV/NmTIEB577DHmz59PSkrKfjMDlClTJsPjPWW9dOnS+zz+51JbqVKlDKuHAxx77LFAcJ97sWLFWLx4cXrx/6Pjjjtur2Pff/89d999N5MnT86wfRgE07YP5IwzziBfvnyMGDGC0047DQimt9eoUSM9U3JyMv369ePmm2+maNGinHjiiZx11llccsklFCtW7ICv/1cSExO54IILeP3116lXrx5Lly494FT1ESNGkJKSQs2aNVm4cGH68fr16zN8+HCuu+66vZ7zzjvvkDdvXhITEylVqhQVK1bc52vXq1fPReIkSYeMBV2SFNP+fP90Wlpa+j7W+1oQ7KijjjoiuYYNG8all17Kueeey6233kqRIkWIj4+nb9++6fcr/9H+Fi/b3/Ho/+63Pxw2bNhA48aNyZs3L/fddx8VK1YkR44czJkzh9tvv32fi8r9UXJyMueeey7vvvsuzz77LKtXr+aTTz7hoYceynDdjTfeyNlnn817773Hhx9+yD333EPfvn2ZPHkyNWvW/Fc/Q8eOHXn++ee59957qV69OlWqVNnvtcOHDweCfdL35ZdffqFChQoZjjVq1CjDKvGSJB0JFnRJUqZSsWJFotEo5cuXTx+t3ZeyZcsCsHDhQpo2bZp+fPfu3SxatIgTTjjhX+V4++23qVChAqNGjcowst27d+9/9br7s3DhQqLRaIb3+vHHHwHSZwSULVuWn376aa/nLliwIMPjqVOn8vvvvzNq1CgaNWqUfvzvrFDevn17hgwZwqRJk5g3bx7RaDR9evsfVaxYkZtvvpmbb76Zn376iRo1avDYY48xbNiwg36vfWnYsCFlypRh6tSp9OvXb7/X/frrr8ycOZNu3brttahdWloanTp14vXXX+fuu+/+V3kkSToUvAddkpSptGnThvj4ePr06bPXKHM0GuX3338HoE6dOhQqVIiXXnqJ3bt3p18zfPjwQ3JP9J6R7z9m+Oyzz5g1a9a/fu19WbFiBe+++276402bNvHaa69Ro0aN9CnjrVq14tNPP2X27Nnp161ZsyZ9BPlA2Xft2sWzzz570HlOP/10ChYsyIgRIxgxYgT16tXLMLV/27Zt7NixI8NzKlasSJ48edi5c2f6sZUrV+51i8DBiEQiPPnkk/Tu3ZtOnTrt97o9P/ttt91G27ZtM3y1a9eOxo0b7/X7kSQpLI6gS5IylYoVK/LAAw/Qs2fP9G3T8uTJw6+//sq7775L165dueWWW0hKSuLee++le/funHrqqbRr145FixYxePBgKlasuNf93H/XWWedxahRozjvvPM488wz+fXXX3n++eepUqUKW7ZsOUQ/7f879thjufzyy/n8888pWrQor776KqtXr2bQoEHp19x2220MHTqUM844gxtuuCF9m7WyZctm2H7spJNOokCBAnTu3Jnrr7+eSCTC0KFD/9a0+sTERNq0acObb77J1q1befTRRzOc//HHHznttNNo164dVapUISEhgXfffZfVq1dz4YUXpl/Xs2dPhgwZwq+//vq31wZo3bo1rVu3PuA1w4cPp0aNGnvd67/HOeecQ/fu3ZkzZw61atX6W+8PMG7cuH0uqnfSSSftNW1ekqS/YkGXJGU6d9xxB8ceeyyPP/44ffr0AYLF1po3b84555yTfl23bt2IRqM89thj3HLLLVSvXp3Ro0dz/fXXkyNHjn+V4dJLL2XVqlW88MILfPjhh1SpUoVhw4YxcuTIDKubHyrHHHMMTz31FLfeeisLFiygfPnyjBgxghYtWqRfU7x4caZMmUL37t15+OGHKVSoEFdffTUlSpTg8ssvT7+uUKFCjBkzhptvvpm7776bAgUKcPHFF3PaaadleL2/0r59e15++WUikQjt2rXLcK506dJ06NCBSZMmMXToUBISEqhcuTJvvfUW559//r//hRyEOXPmMH/+fO655579XnP22WfTvXt3hg0b9o8Keq9evfZ5fNCgQRZ0SdLfFokezlVoJEmKMWlpaRQuXJg2bdrw0ksvhR1HkiQpnfegS5KyrB07duw1bfu1115j3bp1NGnSJJxQkiRJ++EIuiQpy5o6dSo33XQTF1xwAYUKFWLOnDm88sorHH/88Xz55ZckJSWxZs0aUlNT9/saSUlJFCxY8AimliRJ2ZX3oEuSsqxy5cpRunRpnnzySdatW0fBggW55JJLePjhh0lKSgKgbt26LF68eL+v0bhx48NyT7kkSdKfOYIuScrWPvnkE7Zv377f8wUKFKB27dpHMJEkScquLOiSJEmSJMUAF4mTJEmSJCkGeA96NpOWlsaKFSvIkycPkUgk7DiSJEmSQhKNRtm8eTMlSpQgLs6x21hgQc9mVqxYQenSpcOOIUmSJClGLF26lFKlSoUdQ1jQs508efIAwf8J8+bNG2qWlJQUJkyYQPPmzUlMTDzoc0c6SxhiLY+krMfPGUkKRyx9/m7atInSpUundwSFz4KezeyZ1p43b96YKOi5cuUib968+yzo+zt3pLOEIdbySMp6/JyRpHDE4uevt77GDm80kCRJkiQpBljQJUmSJEmKARZ0SZIkSZJigAVdkiRJkqQYYEGXJEmSJCkGWNAlSZIkSYoBFnRJkiRJkmKABV2SJEmSpBhgQZckSZIkKQZY0CVJkiRJigEWdEmSJEmSYoAFXZIkSZKkGGBBlyRJkiQpBmTLgv7MM89Qrlw5cuTIQf369Zk9e/Z+rx01ahR16tQhf/785M6dmxo1ajB06ND08ykpKdx+++1Uq1aN3LlzU6JECS655BJWrFiRfs3UqVOJRCL7/Pr888/Tr2ndujXFixdPf5/hw4fvN9ebb75JJBLh3HPP/fe/kBiTmgrTpkWYPr0k06ZFSE0NO5EkSZIkHX7ZrqCPGDGCG2+8kS1btpCWlsavv/7K6aefzm+//bbP67/77jvWr19PamoqaWlprFmzhksvvZQPP/wQgI0bNzJixAg2btxIWloau3btYuzYsbRs2TL9NVJSUvabJxqNAjBs2DDmz5/Prl270t+nU6dOjBkzJv3a77//nvPPP59SpUrRoUMHKlSocCh+JaHYXwkfNQrKlYNmzRIYMKAOzZolUK5ccFySJEmSsrJsV9Dvuusu0tLS6N+/P3PnzqV169Zs2bKFJ598cp/XN2rUiEcffZTZs2fz3Xffcdttt5GWlsaQIUMASExM5JhjjuHRRx9l7ty5jBkzhqJFi/LNN9+wZMkSABo3bszKlSvTv5YsWUKOHDnInz8/devWBaBChQq0a9eO//73v+nvE41GeeKJJ9KzbNu2jXLlypE7d27y5s1LoUKFDvNv6/DYXwm/7TZo2xaWLct4/fLlwXFLuiRJkqSsLCHsAEfSrl27+Pnnn2nZsiVdunQB4IUXXmD48OGMGjWKBx54YK/nNGnSJP37aDTKf/7zH+Li4ohEIgDky5ePiRMnZnjOtddeS7du3di8eTMASUlJFCtWLP38iBEj2LFjB9ddd13669x5550ZXuOGG26gT58+rFy5Mv1Y3bp1GTNmDFWqVGHnzp3/4jcRnlGjgrL9v4kD6ZYtg/799/2caBQiEbjxRmjdGuLjD3tMSZIkSTrislVB33NfeKNGjdKPxcXFUaFCBZYvX77f523cuJGSJUuyc+dOIpEICQkJXHrppfu8dseOHemj3qVLl97nNf369QPgxhtv3O97vvXWW2zYsIFzzjkn/djHH3/MK6+8wty5c6lTp85+n/tHO3fuzFDmN23aBATT7g809f5wSE2F669P+F85j/yt50ajsHQpTJmym8aNo3/9hL9pz+/iSP9O9ifW8kjKevyckaRwxNLnbyxkUEbZqqCvW7cOgIIFC2Y4nitXrgP+jzMtLY20tDSi0SjRaJSkpCQSExP3ui4lJYW2bduybNkyLrjgAvLmzbvXNcuWLeOrr76iZs2alCpVap/vN2XKFC655BLi4uK49dZbAdi8eTOdOnXipZde4uijjz7on/n+++/nwQcf3Ov4hAkTyJUr10G/zqHw7beFWL684b96jXHj5rJ16/7/mPJv/Xk2RNhiLY+krMfPGUkKRyx8/m7bti3sCPqTbFXQ9xTzPUV9j23btu2zcO+RL18+vvnmG7Zs2cKkSZPo2bMnt956a/oK7PD/5XzGjBlUqlSJl19+eZ+vNXDgQABuv/32fZ6fNm0arVq1IhqN8uqrr1K1alUAfv75ZxYtWsTZZ58NQGpqavo97gkJCSxYsICKFSsexG8hPOvX5/jXr1GgwI5DkESSJEmSYk8kGv3z3cBZ165du0hOTqZVq1Z88MEHQDA6nidPHsqWLcsPP/xwUK9z7LHHsnbt2vSiv6ecT5kyhdKlSzN9+vR9LuAWjUYpVKgQO3bsYOPGjXv9UWDq1Km0bNmStLQ0nnrqKbp27Zp+bseOHSxcuDD9cfPmzSlUqBBFihThiSee4NhjjyUpKWmv99zXFPfSpUuzdu3afY7wH07TpkVo1uyf/00of/4oK1fuPiz3oKekpDBx4kSaNWt2wD/WHCmxlkdS1uPnjCSFI5Y+fzdt2sTRRx/Nxo0bj3g30L5lqxH0pKQkKlasyIcffsiQIUOoV68ejz/+ONu3b+e8884D4JJLLqFkyZL07dsXgL59+1KnTh0qVqzIzp07GTt2LAsXLuSYY44Bgv+DtWnThkmTJlGiRAlGjBhBSkoKq1atomDBghlK86RJk1i/fj2XXnrpXv9nnDJlCq1atSI1NZU+ffpwzjnnsGrVKpKSkihYsCA5cuTgP//5T4afJWfOnOTJkyfD8T9LTk4mOTl5r+OJiYlH/AOhaVMoVSpYlf1AfxaKRPZ9fsOGCI88ksg99wTXHA5h/F4OJNbySMp6/JyRpHDEwudv2O+vvWW7bdYefPBBIpEIN998M9WrV+e9994jd+7cXH/99UBwb/Yf9x6fMGECl156KVWqVOHEE0/kqaeeIhKJpN8bvmjRIsaMGcP27dv5+eefqVatGsWLF6d48eJMmzYtw3s/9NBDwL6nt/fr148dO3aQkpLCnXfemf4af1wkbteuXcydO5e5c+eya9cutm3bxsaNGzOMrMey+HjYs2vcnwt2JBJ83XorlCyZ8Vzp0nDhhcH3vXsH12SfeR+SJEmSsotsV9Dbt2/P448/Tu7cuYlEIpQvX56PPvqIokWLAlC5cmVq166dfv3JJ59Mrly5iEQixMfHU6JECV5//XWuuOIK4MB/dfrzuWLFinHSSSdRuXLlva794zZsf5SQ8P+THFasWEHNmjWpWbMmK1eu5Pvvv2fq1KnpWTKDNm3g7bf3LuGlSgXHH3kEFi2CiRN306PHF0ycuJtff4U33oD/3b7PY4/BVVcFq8JLkiRJUlaRre5BV3CfSb58+UK/zyQ1Ndgybdy4ubRsWYOmTRMy3FuekpLC2LFjadWqVYY/dLz6Klx5JaSlQYcOMGQIHIqZOft7v7DEWh5JWY+fM5IUjlj6/I2VbqD/l63uQVfsiI+Hxo2jbN26nMaNqx/0wm+XXQZHHQUXXRSMqm/ZAm+9BTn+/QLxkiRJkhSqbDfFXZlfu3bw/vtBKf/vf+HMM4OiLkmSJEmZmQVdmVKrVjBuXDCaPnkyNGsG69eHnUqSJEmS/jkLujKtJk1g0iQoUAA+/TTYxu2338JOJUmSJEn/jAVdmVq9ejBtGhQtCl9/DaecAkuXhp1KkiRJkv4+C7oyvWrVYMYMKFMGfvwxKOmZZGt4SZIkSUpnQVeWcMwxQUk/5hhYvDgo6d99F3YqSZIkSTp4FnRlGWXKBCW9WjVYtQoaN4bPPw87lSRJkiQdHAu6spSiRWHqVKhfH9atg9NOg+nTw04lSZIkSX/Ngq4sp2BBmDgxWNV982Zo0QLGjw87lSRJkiQdmAVdWVKePPDBB3DmmbBjB5xzDrz9dtipJEmSJGn/LOjKsnLmhHffhfbtISUl+M/Bg8NOJUmSJEn7ZkFXlpaYCMOHw+WXQ1oadOkCTz0VdipJkiRJ2psFXVlefDy89BLceGPw+Prr4aGHIBoNNZYkSZIkZWBBV7YQicCAAdC7d/D4rrvgjjss6ZIkSZJiR7Ys6M888wzlypUjR44c1K9fn9mzZ+/32lGjRlGnTh3y589P7ty5qVGjBkOHDk0/n5KSwu233061atXInTs3JUqU4JJLLmHFihV7vdYHH3xA/fr1yZkzJwUKFODcc89NP/f7779zxhlnUKJECZKTkyldujTdunVj06ZN6ddMnTqVSCSy19eqVasOzS8mi4tE4N574dFHg8ePPALXXRfcnz5tWoTp00sybVqE1NRQY0qSJEnKprJdQR8xYgQ9evSgd+/ezJkzh+rVq9OiRQt+++23fV5fsGBB7rrrLmbNmsU333xDly5d6NKlCx9++CEA27ZtY86cOdxzzz3MmTOHUaNGsWDBAs4555wMr/POO+/QqVMnunTpwtdff80nn3xCx44d08/HxcXRunVrRo8ezY8//sjgwYP56KOPuPrqq/fKtGDBAlauXJn+VaRIkUP4G8r6br4ZXnghKOzPPQf580OzZgkMGFCHZs0SKFcORo0KO6UkSZKk7CYh7ABH2oABA7jyyivp0qULAM8//zwffPABr776Knfcccde1zdp0iTD4xtuuIEhQ4bw8ccf06JFC/Lly8fEiRMzXPP0009Tr149lixZQpkyZdi9ezc33HAD/fv35/LLL0+/rkqVKunfFyhQgGuuuSb9cdmyZbn22mvp37//XpmKFClC/vz5/8mPr//p2hXmzYOBA2Hbtoznli+Htm2DbdnatAklniRJkqRsKFuNoO/atYsvv/yS008/Pf1YXFwcp59+OrNmzfrL50ejUSZNmsSCBQto1KjRfq/buHEjkUgkvUTPmTOH5cuXExcXR82aNSlevDgtW7bku+++2+9rrFixglGjRtG4ceO9ztWoUYPixYvTrFkzPvnkk7/Mrb2lpu5/X/Q996XfeCNOd5ckSZJ0xGSrEfS1a9eSmppK0aJFMxwvWrQo8+fP3+/zNm7cSMmSJdm5cyfx8fE8++yzNGvWbJ/X7tixg9tvv50OHTqQN29eAH755RcA7r33XgYMGEC5cuV47LHHaNKkCT/++CMFCxZMf36HDh14//332b59O2effTYvv/xy+rnixYvz/PPPU6dOHXbu3MnLL79MkyZN+Oyzz6hVq9Y+8+zcuZOdO3emP95zT3tKSgopKSkH+nUddnvef185DnTuUJg2LcKyZfv/n380CkuXwpQpu2nc+MivJHe4f35J8nNGksIRS5+/sZBBGWWrgv5P5cmTh7lz57JlyxYmTZpEjx49qFChwl7T31NSUmjXrh3RaJTnnnsu/XhaWhoAd911F+effz4AgwYNolSpUowcOZKrrroq/drHH3+c3r178+OPP9KzZ0969OjBs88+C8Bxxx3Hcccdl37tSSedxM8//8zjjz+eYeG6P+rbty99+vTZ6/iECRPIlSvXP/uFHGJ/vkXgYM/9G9OnlwTq/OV148bNZevW5Yclw8E4XD+/JO3h54wkhSMWPn+3/fleT4UuWxX0o48+mvj4eFavXp3h+OrVqylWrNh+nxcXF0elSpWAYHr5vHnz6Nu3b4aCvqecL168mMmTJ6ePnkMw8g0Z7zlPTk6mQoUKLFmyJMN7FStWjGLFilG5cmUKFizIKaecwj333JP+Gn9Wr149Pv744/1m31Py99i0aROlS5emefPmGTKGISUlhYkTJ9KsWTMSExMP+tyhkDt3hAED/vq6li1r0Lhx9UP+/n/lcP/8kuTnjCSFI5Y+f/+4Y5RiQ7Yq6ElJSdSuXZtJkyalb3GWlpbGpEmT6Nat20G/TlpaWoZp43vK+U8//cSUKVMoVKhQhutr165NcnIyCxYsoGHDhunPWbRoEWXLlj3g+wAZ3uvP5s6du9/yDsEfApKTk/c6npiYGPoHwh4HynK4cjZtCqVKBQvC7W8v9AIFoGnTBOLjD/nbH7RY+u9JUtbk54wkhSMWPn/Dfn/tLVsVdIAePXrQuXNn6tSpQ7169Rg4cCBbt25NX9X9kksuoWTJkvTt2xcIpojXqVOHihUrsnPnTsaOHcvQoUPTp7CnpKTQtm1b5syZw5gxY0hNTU3fl7xgwYIkJSWRN29err76anr37k3p0qUpW7Zs+ursF1xwAQBjx45l9erV1K1bl6OOOorvv/+eW2+9lZNPPply5coBMHDgQMqXL0/VqlXZsWMHL7/8MpMnT2bChAlH8leYJcTHwxNPBKu1RyL7LukbNsCYMdC69RGPJ0mSJCkbynYFvX379qxZs4ZevXqxatUqatSowfjx49MXjluyZAlxcf+/uP3WrVu59tprWbZsGTlz5qRy5coMGzaM9u3bA7B8+XJGjx4NBNPf/2jKlCnp0+D79+9PQkICnTp1Yvv27dSvX5/JkydToEABAHLmzMlLL73ETTfdxM6dOyldujRt2rTJsPXbrl27uPnmm1m+fDm5cuXihBNO4KOPPqJp06aH69eVpbVpE6zkfsMNsGzZ/x8vXRqOPRYmTYILL4TJk6FBg/BySpIkScoeItHo/ib4KivatGkT+fLlY+PGjTFxD/rYsWNp1arVPu9B39+5Qy01NVitfdy4ubRsWYOmTROIRuHcc+GDD6BgQZg5E/6wPt9hdyR/fknZk58zkhSOWPr8jaVuoEC22gdd2pf4eGjcOEqjRstp3DhKfDwkJMCIEVCvHqxbBy1awMqVYSeVJEmSlJVZ0KX9yJ07uAe9UiVYvBhatQIXupQkSZJ0uFjQpQMoXBjGj4ciRWDuXDj/fNi1K+xUkiRJkrIiC7r0FypWDO5Fz50bPvoILrsM/rcDniRJkiQdMhZ06SDUqROs+J6QAMOHQ8+eYSeSJEmSlNVY0KWDdMYZ8PLLwfePPAJPPhluHkmSJElZiwVd+hs6d4YHHwy+v/HGYFRdkiRJkg4FC7r0N/XsCddeC9EoXHwxTJ8ediJJkiRJWYEFXfqbIpFgevu558LOnXDOOfDdd2GnkiRJkpTZWdClfyA+Hl5/HU4+GTZuhJYtYdmysFNJkiRJysws6NI/lDMnjB4NlSsH5bxlS9iwIexUkiRJkjIrC7r0LxQsCOPHQ/HiwTT3c8+FHTvCTiVJkiQpM7KgS/9S2bIwbhzkzQvTpsEll0BaWtipJEmSJGU2FnTpEKheHd59FxITYeRI6NEjWOVdkiRJkg6WBV06RE49FYYMCb5/4gl47LFw80iSJEnKXCzo0iHUoQM8+mjw/a23Biu9S5IkSdLBsKBLh1iPHnDjjcH3l14KkyaFmUaSJElSZmFBlw6xSCSY3t6uHaSkwHnnwdy5YaeSJEmSFOss6NJhEBcHr70GTZrA5s3BHumLFoWdSpIkSVIss6BLh0lycrCye7VqsGoVnHEG/P572KkkSZIkxSoLunQY5c8f7JFeujQsWADnnAPbt4edSpIkSVIssqBLh1nJkkFJz58fZs6Ejh0hNTXsVJIkSZJijQVdOgKqVoXRo4Np7++9B927QzQadipJkiRJscSCLh0hp5wCw4cHq7w/9xz07Rt2IkmSJEmxxIIuHUHnnw9PPhl8f9ddMHhwqHEkSZIkxRALunSEdesGt98efH/FFcH96ZIkSZJkQZdC8NBDcPHFwWJxF1wAX3wRdiJJkiRJYbOgSyGIi4NXXoFmzWDrVjjzTPj557BTSZIkSQqTBV0KSVISvPMO1KwJv/0GLVoE/5maCtOmRZg+vSTTpkXckk2SJEnKJrJlQX/mmWcoV64cOXLkoH79+syePXu/144aNYo6deqQP39+cufOTY0aNRg6dGj6+ZSUFG6//XaqVatG7ty5KVGiBJdccgkrVqzI8DrlypUjEolk+Hr44YczXPPNN99wyimnkCNHDkqXLs0jjzzyt7Io88mTB8aOhXLlghH0k06CsmWhWbMEBgyoQ7NmCZQrB6NGhZ1UkiRJ0uGW7Qr6iBEj6NGjB71792bOnDlUr16dFi1a8Ntvv+3z+oIFC3LXXXcxa9YsvvnmG7p06UKXLl348MMPAdi2bRtz5szhnnvuYc6cOYwaNYoFCxZwzjnn7PVa9913HytXrkz/6t69e/q5TZs20bx5c8qWLcuXX35J//79uffee3nxxRcPOosyp2LFYPx4OOqooKQvX57x/PLl0LatJV2SJEnK6hLCDnCkDRgwgCuvvJIuXboA8Pzzz/PBBx/w6quvcscdd+x1fZMmTTI8vuGGGxgyZAgff/wxLVq0IF++fEycODHDNU8//TT16tVjyZIllClTJv14njx5KFas2D5zDR8+nF27dvHqq6+SlJRE1apVmTt3LgMGDKBr164HlUWZV6VKkCsXbNmy97loNNg7/cYboXVriI8/4vEkSZIkHQHZqqDv2rWLL7/8kp49e6Yfi4uL4/TTT2fWrFl/+fxoNMrkyZNZsGAB/fr12+91GzduJBKJkD9//gzHH374Ye6//37KlClDx44duemmm0hICP4rmDVrFo0aNSIpKSn9+hYtWtCvXz/Wr19PgQIF/lGWnTt3snPnzvTHmzZtAoKp+SkpKX/5Mx9Oe95/XzkOdO5IZzkSpk2L8Ntv+/+/YzQKS5fClCm7adw4egSTScqqwv7ck6TsKpY+f2MhgzLKVgV97dq1pKamUrRo0QzHixYtyvz58/f7vI0bN1KyZEl27txJfHw8zz77LM2aNdvntTt27OD222+nQ4cO5M2bN/349ddfT61atShYsCAzZ86kZ8+erFy5kgEDBgCwatUqypcvv1euPef2FPS/kwWgb9++9OnTZ6/jEyZMIFeuXPt93pH05xkIB3vucDjS77fH9OklgTp/ed24cXPZunX5X14nSQcrrM89ScruYuHzd9u2bWFH0J9kq4L+T+XJk4e5c+eyZcsWJk2aRI8ePahQocJeU85TUlJo164d0WiU5557LsO5Hj16pH9/wgknkJSUxFVXXUXfvn1JTk4+5Fn26NmzZ4b33rRpE6VLl6Z58+YZ/oAQhpSUFCZOnEizZs1ITEw86HNHOsuRkDt3hP/9reaAWrasQePG1Q9/IElZXtife5KUXcXS5++e2bWKHdmqoB999NHEx8ezevXqDMdXr16933vDIZgGX6lSJQBq1KjBvHnz6Nu3b4ZSvKecL168mMmTJ/9l+a1fvz67d+9m0aJFHHfccRQrVmyfuYAM2Q4myx8lJyfv8w8AiYmJoX8g7HGgLEc6Z1i/l6ZNoVSpYEG46H5msB91FJx0UgIx8l+bpCwilv55IEnZSSx8/ob9/tpbtlrFPSkpidq1azNp0qT0Y2lpaUyaNIkGDRoc9OukpaVluK97Tzn/6aef+OijjyhUqNBfvsbcuXOJi4ujSJEiADRo0IDp06dnuA9k4sSJHHfccXvdf36gLMqc4uPhiSeC7yORfV+zZQuccgosXHjkckmSJEk6crJVQYdgqvlLL73EkCFDmDdvHtdccw1bt25NX9X9kksuybCIXN++fZk4cSK//PIL8+bN47HHHmPo0KFcfPHFQFDO27ZtyxdffMHw4cNJTU1l1apVrFq1il27dgHBAnADBw7k66+/5pdffmH48OHcdNNNXHzxxenlu2PHjiQlJXH55Zfz/fffM2LECJ544okM09P/KosytzZt4O23oWTJjMdLl4aePaFgQZgzB2rVgrfeCiejJEmSpMMnW01xB2jfvj1r1qyhV69erFq1iho1ajB+/Pj0BdmWLFlCXNz//91i69atXHvttSxbtoycOXNSuXJlhg0bRvv27QFYvnw5o0ePBoIp5380ZcoUmjRpQnJyMm+++Sb33nsvO3fupHz58tx0000Zyne+fPmYMGEC1113HbVr1+boo4+mV69e6VusHUwWZX5t2gRbqU2Zsptx4+bSsmUNmjZNID4errkGOnSATz6B9u1hyhQYMABy5gw7tSRJkqRDIRKN7u+OV2VFmzZtIl++fGzcuDEmFokbO3YsrVq12ucicfs7d6SzhGF/eXbvhl69oG/f4PEJJwSj6ccdF1JQSZlWrH3uSVJ2EUufv7HUDRTIdlPcpcwsIQEeegjGj4fCheGbb6B2bRg2LOxkkiRJkv4tC7qUCbVoAXPnQpMmsHUrdOoEl18ObmUpSZIkZV4WdCmTKlECPvoomPIeicCrr0K9evDDD2EnkyRJkvRPWNClTCw+Hvr0CYp6sWLw/fdQpw4MGrT//dQlSZIkxSYLupQFnHpqMOX99NNh+3a47DLo3DnYO12SJElS5mBBl7KIokWDxeMeeADi4mDoUKhbN1hITpIkSVLss6BLWUh8PNx1V7BHeokSMH8+1K8PL77olHdJkiQp1lnQpSyoUaNgynvLlrBjB1x1FXTsCJs2hZ1MkiRJ0v5Y0KUsqnBhGDMG+vULRtbffDPYM/2rr8JOJkmSJGlfLOhSFhYXB7fdBtOnQ+nSsHAhnHgiPPOMU94lSZKkWGNBl7KBk04Kpryfcw7s2gXdusEFF8CGDWEnkyRJkrSHBV3KJgoWhPfegwEDIDER3nkHataE2bPDTiZJkiQJLOhSthKJwE03wccfQ7lysGgRNGwIjz/ulHdJkiQpbBZ0KRuqVy9YLK5NG0hJgR494NxzYd26sJNJkiRJ2ZcFXcqm8ueHt9+Gp5+GpCQYPRpq1ICZM8NOJkmSJGVPFnQpG4tE4LrrYNYsqFgRli4N9lB/5BFISws7nSRJkpS9WNAlUasWzJkD7dtDaircfjucdRasWRN2MkmSJCn7sKBLAiBvXnjjDXjhBciRA8aNC6a8T58edjJJkiQpe7CgS0oXiUDXrvDZZ3DccbBiBTRtCg88EIysS5IkSTp8LOiS9nLCCfDFF9CpU3Av+j33wBlnwOrVYSeTJEmSsi4LuqR9OuooGDIEXn0VcuaEjz4KprxPnhx2MkmSJClrsqBL2q9IBLp0CUbTq1aFVavg9NOhd2+nvEuSJEmHmgVd0l+qUgVmz4bLL4doFO67LyjqK1aEnUySJEnKOizokg5Krlzw8sswbBjkzg1TpwZT3j/8MOxkkiRJUtZgQZf0t1x0EXz5ZbCQ3Jo1weJxd94Ju3eHnUySJEnK3Czokv62446DTz+Fq68OHvftC02awNKlocaSJEmSMjULuqR/JGdOeO45GDEC8uSBTz4Jprx/8EHYySRJkqTMyYIu6V9p1w6++gpq1YJ16+Css+DWWyElJexkkiRJUuZiQZf0r1WsCDNnQvfuweNHH4VTToFFi0KNJUmSJGUqFnRJh0RyMjz5JIwaBfnzw2efQc2a8N57YSeTJEmSMgcLuqRD6rzzginv9erBhg3B4xtugJ07w04mSZIkxTYLuqRDrlw5mDEDbr45ePzkk3DyyfDzz6HGkiRJkmKaBV3SYZGUFNyLPno0FCwY7J1eqxaMHBl2MkmSJCk2WdAlHVZnnw1z5wYj6Js2Bau+X3st7NgRdjJJkiQptljQJR12pUvDlClwxx3B4+eegxNPhB9/DDeXJEmSFEss6JKOiMRE6NsXxo2Do4+Gr7+G2rXh9dfDTiZJkiTFBgu6pCPqjDOCct64MWzZAhddBFdcAdu2hZ1MkiRJCpcFXdIRV6IEfPQR9OoFkQi88kqwLdsPP4SdTJIkSQqPBV1SKBISoE8fmDgRihaF77+HunVh8OCwk0mSJEnhsKBLCtVppwWrvJ92WjDNvUsX6Nw5mP4uSZIkZScWdEmhK1YMPvwQ7r8f4uLgtdeC0fRvvw07mSRJknTkWNAlxYT4eLj7bpg8ObhHff784L70l16CaDTsdJIkSdLhZ0GXFFMaNw6mvJ9xBuzYAV27Biu9b94cdjJJkiTp8LKgS4o5hQvDBx/Aww8HI+tvvAG1asFXX4WdTJIkSTp8LOiSYlJcHNx+O0yfDqVLw8KFcOKJ8OyzTnmXJElS1mRBlxTTTjopGDk/+2zYtQuuuw7atYONG8NOJkmSJB1aFnRJMa9QIXj/fRgwINg//e23oWZN+PzzsJNJkiRJh44FXVKmEInATTfBJ59AuXLw669w8skwcKBT3iVJkpQ1WNAlZSr16gVT3tu0gZSUoLSfey6sWxd2MkmSJOnfsaBLynTy5w+muT/1FCQlwejRwZT3WbPCTiZJkiT9cxZ0SZlSJALdugWlvGJFWLIEGjWC/v0hLS3sdJIkSdLfZ0GXlKnVqgVz5kD79rB7N9x2W7Di+9q1YSeTJEmS/h4LuqRML29eeOMNeOEFSE6GsWOhRg2YMSPsZJIkSdLBs6BLyhIiEejaFWbPhmOPheXLoWlTeOghp7xLkiQpc7CgS8pSTjgBvvwSLr4YUlPhrrvgjDNg9eqwk0mSJEkHZkGXlOUcdRS89hq8+irkzAkTJwZT3idPDjuZJEmStH8WdElZUiQCXbrA559DlSqwahWcfjrce28wsi5JkiTFGgu6pCytatWgpF92GUSj0KcPNGsGK1eGnUySJEnKyIIuKcvLlQteeSWY9p47N0yZAtWrw4QJYSeTJEmS/p8FXVK20akTfPFFsJDcmjXB4nF33RXsny5JkiSFzYIuKVupXBk+/RSuuiqY8v7QQ8F2bMuWhZ1MkiRJ2Z0FXVK2kzMnPP88vPkm5MkDH38crPI+dmzYySRJkpSdWdAlZVvt28OcOVCrFvz+O5x5Jtx2G6SkhJ1MkiRJ2ZEFXVK2VqkSzJwJ3bsHj/v3h0aNYPHicHNJkiQp+7GgS8r2kpPhySfhnXcgX77gHvWaNeH998NOJkmSpOzEgi5J/9OmDXz1FdStC+vXw7nnwo03wq5dYSeTJElSdmBBl6Q/KF8+WDSuR4/g8RNPwMknwy+/hJtLkiRJWZ8FXZL+JCkJHnsMRo+GAgWCvdNr1oS33w47mSRJkrIyC7ok7cfZZ8PcuXDSSbBpE1xwAVx3HezYEXYySZIkZUUWdEk6gDJlYOpUuP324PGzz0KDBvDTT6HGkiRJUhZkQZekv5CYCA8/DOPGwdFHB6PqtWrBG2+EnUySJElZiQVdkg7SGWcE5bxRI9iyBTp2hCuvhO3bw04mSZKkrMCCLkl/Q8mSMGkS3HMPRCLw8stQrx7Mmxd2MkmSJGV2FnRJ+psSEuC++2DCBChaFL77DurUgSFDwk4mSZKkzMyCLkn/0OmnB1PeTz0Vtm2DSy8NvrZuDTmYJEmSMiULuiT9C8WKBSPp990HcXHBKHqdOsGouiRJkvR3WNAl6V+Kjw/uSZ88GYoXh/nzoW7d4P70aDTsdJIkScosYragV6lShXXr1qU/vvbaa1m7dm36499++41cuXKFEU2S9qlx42DKe4sWsGNHsML7xRfD5s1hJ5MkSVJmELMFff78+ezevTv98bBhw9i0aVP642g0yo4dO8KIJkn7VaQIjB0LffsGI+uvvw61awfFXZIkSTqQmC3ofxbdxzzRSCQSQhJJOrC4OLjjDpg2DUqVgp9+ghNPhOeec8q7JEmS9i/TFHRJymxOPjkYOT/rLNi5E669Ftq3h40bw04mSZKkWBSzBT0Siew1Qu6IuaTMplAhGD0aHnss2D995EioVQu++CLsZJIkSYo1CWEH2J9oNMppp51GQkIQcfv27Zx99tkkJSUBZLg/XZJiWSQCPXoEI+rt28Mvv8BJJ0H//nD99cF5SZIkKWYLeu/evTM8bt269V7XnH/++UcqjiT9a/Xrw1dfweWXw7vvwo03wtSp8OqrUKBA2OkkSZIUtkxT0CUpKyhQAN55B55+Gm65Bd57Lyjtb74ZLCQnSZKk7Ctm70EH+PTTT7nrrru49dZbGT9+fNhxJOmQiESge3eYORMqVIDFi+GUU+DRRyEtLex0kiRJCkvMFvS3336bk08+mSeeeIKXX36ZM888k0cffTTsWJJ0yNSuDXPmQLt2sHs33HornHMOrF0bdjJJkiSFIWYLet++fbnyyivZuHEj69ev54EHHuChhx4KO5YkHVL58gXT259/HpKT4YMPoGZN+PjjsJNJkiTpSIvZgr5gwQJuueUW4uPjAbj55pvZvHkzv/32W8jJJOnQikTgqqvgs8/g2GNh2TJo0gT69nXKuyRJUnYSswV927Zt5M2bN/1xUlISOXLkYMuWLSGmkqTDp3r1YH/0iy6C1FS4805o2RL8u6QkSVL2ELOruAO8/PLLHHXUUemPd+/ezeDBgzn66KPTj11//fVhRJOkwyJPHhg6FE49Fbp1gwkToEYNeP31YFRdkiRJWVfMFvQyZcrw0ksvZThWrFgxhg4dmv44EolY0CVlOZEIXHZZsG96u3bwww9w2mnQqxfcfTf8784fSZIkZTExW9AXLVoUdgRJClXVqjB7drAl26BBcO+9MH06DBsGxYuHnU6SJEmHWszeg/5XNmzYwNNPPx12DEk6rHLnhldfhddeC76fPDmY8j5xYtjJJEmSdKhluoI+adIkOnbsSPHixendu3fYcSTpiOjUKVhArlq1YNG4Fi2C6e67d4edTJIkSYdKpijoS5cu5b777qN8+fI0b96cSCTCu+++y6pVq8KOJklHTOXKwVZsXbtCNAoPPhgsJrdsWdjJJEmSdCjEbEFPSUlh5MiRtGjRguOOO465c+fSv39/4uLiuOuuuzjjjDNITEwMO6YkHVE5c8ILL8Abb8BRR8GMGcGU97Fjw04mSZKkfytmC3rJkiV56qmnOP/881m+fDmjRo2ibdu2YceSpJhw4YUwZw7UrAm//w5nngm33QYpKWEnkyRJ0j8VswV99+7dRCIRIpEI8e4pJEl7OeYYmDkz2C8doH9/aNwYliwJN5ckSZL+mZgt6CtWrKBr16688cYbFCtWjPPPP593332XSCQSdjRJihk5csBTT8Hbb0O+fDBrVjDlffTosJNJkiTp74rZgp4jRw4uuugiJk+ezLfffsvxxx/P9ddfz+7du3nwwQeZOHEiqampYceUpJhw/vnBlPe6dWH9emjdGm66CXbtCjuZJEmSDlbMFvQ/qlixIg888ACLFy/mgw8+YOfOnZx11lkULVo07GiSFDMqVICPPw6KOcDAgdCwIfz6a6ixJEmSdJAyRUHfIy4ujpYtW/L222+zbNky7rzzzrAjSVJMSUqCAQPg/fehQAH4/PNgIbl33gk7mSRJkv5Kpirof1S4cGF69OgRdgxJiknnnANz50KDBrBxI7RtGywmt2NH2MkkSZK0PwlhB9ifChUqHNR1v/zyy2FOIkmZU5kyMG0a3H03PPIIPPNMsOr7iBHBCvCSJEmKLTFb0BctWkTZsmXp2LEjRYoUCTuOJGVKiYnQrx80aQKXXAJffQW1a8OLLwZ7qUuSJCl2xGxBHzFiBK+++ioDBgygZcuWXHbZZbRq1Yq4uEw7K1+SQtOyZTDlvUMHmDEj+M8pU4KF5HLmDDudJEmSIIbvQb/gggsYN24cCxcupHbt2tx0002ULl2aO+64g59++inseJKU6ZQsCZMnB1PeI5FgFL1+fZg/P+xkkiRJghgu6HuULFmSu+66i59++onXX3+dzz77jMqVK7N+/fqwo0lSppOQAPffDx9+CEWKwLffBlPeX3st7GSSJEmK+YIOsGPHDoYNG0afPn347LPPuOCCC8iVK1fYsSQp02rWLJjyfuqpsG0bdO4MXbrA1q1hJ5MkScq+Yrqgf/bZZ3Tt2pVixYoxYMAA2rRpw/Lly3nzzTdJTk4OO54kZWrFi8OECdCnD8TFweDBUK8efP992MkkSZKyp5gt6FWrVuWss84iZ86cTJs2jTlz5tCtWzcKFCgQdjRJyjLi46FXL5g0KSjsP/wAdevCK69ANBp2OkmSpOwlZgv6vHnz2LFjB6+99hpNmzalYMGC+/ySJP17TZoEU96bN4ft2+GKK6BTJ9i8OexkkiRJ2UfMbrM2aNCgsCNIUrZSpAiMGwePPBKs9D58OHz+Obz1FlSvHnY6SZKkrC9mC3rnzp3DjiBJ2U5cHNxxBzRsGOyV/uOPwVZsAwfCVVcF27NJkiTp8IjZKe6SpPA0bAhffQVnngk7d8I118CFF8LGjWEnkyRJyros6JKkfTr6aBg9Gh59NNg//a23gj3Tv/wy7GSSJElZkwVdkrRfcXFw880wYwaULQs//wwnnQRPPeUq75IkSYeaBV2S9JdOPDGY8n7uubBrF1x/PZx/PqxfH3YySZKkrCPTFPRdu3axYMECdu/eHXYUScqWChSAUaPgiScgMRHefRdq1oTPPgs7mSRJUtYQ8wV927ZtXH755eTKlYuqVauyZMkSALp3787DDz8ccjpJyl4ikWD0fOZMqFABFi8OFpR77DGnvEuSJP1bMV/Qe/bsyddff83UqVPJkSNH+vHTTz+dESNGhJhMkrKvOnVgzhy44ALYvRtuuQXOOQd+/z3sZJIkSZlXzBf09957j6effpqGDRsS+cMGvFWrVuXnn38OMZkkZW/58sGIEfDcc5CcDGPGQI0a8MknYSeTJEnKnGK+oK9Zs4YiRYrsdXzr1q0ZCrsk6ciLRODqq+HTT+GYY2DZMmjcGB5+GNLSwk4nSZKUucR8Qa9Tpw4ffPBB+uM9pfzll1+mQYMGYcWSJP1BjRrB/ugdO0JqKvTsCa1awW+/hZ1MkiQp80gIO8Bfeeihh2jZsiU//PADu3fv5oknnuCHH35g5syZTJs2Lex4kqT/yZMHhg2DU0+F7t3hww+D4v7GG8GouiRJkg4s5kfQGzZsyNy5c9m9ezfVqlVjwoQJFClShFmzZlG7du2w40mS/iASgcsvh9mz4fjjYeXKoLDfd18wsi5JkqT9i/kRdICKFSvy0ksvhR1DknSQ/vMf+Pxz6NYNBg+G3r1h+vRghL1YsbDTSZIkxaaYH0HftGnTPr82b97Mrl27wo4nSdqP3Llh0CAYMgRy5YJJk4Ip7x99FHYySZKk2BTzBT1//vwUKFBgr6/8+fOTM2dOypYtS+/evUlzuWBJikmXXBIsIFetGqxeDc2bwz33BPunS5Ik6f/FfEEfPHgwJUqU4M477+S9997jvffe484776RkyZI899xzdO3alSeffJKHH3447KiSpP2oXBk++wyuvBKiUXjgATjtNFi+POxkkiRJsSPm70EfMmQIjz32GO3atUs/dvbZZ1OtWjVeeOEFJk2aRJkyZXjwwQe58847Q0wqSTqQnDnhxRehaVPo2jW4J71GDRg6FM44I+x0kiRJ4Yv5EfSZM2dSs2bNvY7XrFmTWbNmAcFK70uWLDnS0SRJ/0CHDjBnTlDO166Fli3hjjsgJSXsZJIkSeGK+YJeunRpXnnllb2Ov/LKK5QuXRqA33//nQIFChzpaJKkf+iYY2DWLLjuuuBxv37QpAn4t1ZJkpSdxfwU90cffZQLLriAcePGUbduXQC++OIL5s+fz9tvvw3A559/Tvv27cOMKUn6m3LkgKefDor55ZfDzJnBqPqQIXD22WGnkyRJOvJifgT9nHPOYcGCBbRq1Yp169axbt06WrZsyfz58znrrLMAuOaaaxgwYEDISSVJ/0TbtvDVV1CnDqxfD+ecAzffDO6kKUmSspuYH0EHKFeuHH379g07hiTpMKlQAT75BG6/HQYOhAED4OOP4c03oXz5sNNJkiQdGZmioANs27aNJUuWsOtPQyonnHBCSIkkSYdSUhI8/ngw5f3SS2H2bKhZE159Fdq0CTudJEnS4RfzBX3NmjV06dKFcePG7fN8amrqEU4kSTqcWreGuXPhwgvh00/h/POhWzd49FFITg47nSRJ0uET8/eg33jjjWzYsIHPPvuMnDlzMn78eIYMGcIxxxzD6NGjw44nSToMypYN9km/7bbg8dNPw0knwcKF4eaSJEk6nGK+oE+ePJkBAwZQp04d4uLiKFu2LBdffDGPPPKI96VLUhaWmBhsv/bBB1CoULB3eq1aMGJE2MkkSZIOj5gv6Fu3bqVIkSIAFChQgDVr1gBQrVo15syZE2Y0SdIR0KpVMOW9YUPYvDmY+n711bB9e9jJJEmSDq2YL+jHHXccCxYsAKB69eq88MILLF++nOeff57ixYuHnE6SdCSUKgVTpsBdd0EkAi+8ACeeCP/7x4MkSVKWEPMF/YYbbmDlypUA9O7dm3HjxlGmTBmefPJJHnrooZDTSZKOlIQEeOAB+PBDKFIEvvkGateGYcPCTiZJknRoxPwq7hdffHH697Vr12bx4sXMnz+fMmXKcPTRR4eYTJIUhmbNginvF10UjKp36gSTJ8NTT0Hu3GGnkyRJ+udiegQ9JSWFihUrMm/evPRjuXLlolatWpZzScrGiheHiRPh3nuDKe+DBkG9evD992EnkyRJ+udiuqAnJiayY8eOsGNIkmJQfDz07g2TJkGxYvDDD1C3blDWo9Gw00mSJP19MV3QAa677jr69evH7t27w44iSYpBTZvC119D8+bByu6XXQaXXAJbtoSdTJIk6e+J+XvQP//8cyZNmsSECROoVq0auf90g+GoUaNCSiZJihVFisC4ccG+6ffcEywcN3s2vPUWVK8edjpJkqSDE/MFPX/+/Jx//vlhx5Akxbi4OOjZE045Jdgr/ccfoX59eOIJ6No1uFddkiQplsV8QR80aFDYESRJmUjDhsEq7507w9ixcPXVwWrvL74IefOGnU6SJGn/Yv4edIDdu3fz0Ucf8cILL7B582YAVqxYwRZvMJQk7cPRR8N//wv9+wf7p48YAbVqwZw5YSeTJEnav5gv6IsXL6ZatWq0bt2a6667jjVr1gDQr18/brnllpDTSZJiVVwc3HILzJgBZcvCzz9Dgwbw9NOu8i5JkmJTzBf0G264gTp16rB+/Xpy5syZfvy8885j0qRJISaTJGUGJ54IX30FrVvDrl3QvTu0bQsbNoSdTJIkKaOYL+gzZszg7rvvJikpKcPxcuXKsXz58pBSSZIykwIF4N13YeBASEyEUaOgZs1gpXdJkqRYEfMFPS0tjdTU1L2OL1u2jDx58oSQSJKUGUUicMMNMHMmVKgAixbBySfDgAFOeZckSbEh5gt68+bNGThwYPrjSCTCli1b6N27N61atQovmCQpU6pTJ1gsrm1b2L0bbr45mP6+bl3YySRJUnYX8wX9scce45NPPqFKlSrs2LGDjh07pk9v79evX9jxJEmZUL588NZb8OyzkJwcrPheo0Ywui5JkhSWmN8HvVSpUnz99de8+eabfPPNN2zZsoXLL7+ciy66KMOicZIk/R2RCFxzTbCye7t28NNP0KgRPPgg3HprsAq8JEnSkRTzBX3Hjh3kyJGDiy++OOwokqQsqEYN+PJLuPpqeP11uOMOmDoVXnsNChcOO50kScpOYn58oEiRInTu3JmJEyeSlpYWdhxJUhaUJw8MGwYvvQQ5csD48UFxnz497GSSJCk7ifmCPmTIELZt20br1q0pWbIkN954I1988UXYsSRJWUwkAldcEWy9VrkyrFgBTZvCAw/APjYTkSRJOuRivqCfd955jBw5ktWrV/PQQw/xww8/cOKJJ3Lsscdy3333hR1PkpTFVKsGX3wBnTtDWhrccw+0aAGrVoWdTJIkZXUxX9D3yJMnD126dGHChAl888035M6dmz59+oQdS5KUBeXODYMHB1+5csGkScGU90mTQg4mSZKytExT0Hfs2MFbb73FueeeS61atVi3bh233npr2LEkSVlY587BaPp//gOrV0OzZtC7t1PeJUnS4RHzBf3DDz+kc+fOFC1alGuuuYaiRYsyYcIEFi9ezMMPPxx2PElSFnf88fDZZ8H96dEo3HcfnHZacI+6JEnSoRTzBf28885j+/btvPbaa6xatYoXXniBRo0ahR1LkpSN5MoVrPA+fDgcdRRMmwbVqwervUuSJB0qMV/QV69ezVtvvUXr1q1JTEwEYNOmTTz33HPUqVMn5HSSpOykY8dgz/QaNWDtWmjZEnr2hN27w04mSZKygpgv6Hny5En/fsqUKXTq1InixYtz//33U79+/RCTSZKyo2OPhVmz4Nprg8cPPwxNmsDSpaHGkiRJWUBC2AH+yvLlyxk8eDCDBg1iw4YNrF+/ntdff5127doRiUTCjidJyoZy5IBnngmK+RVXwCefBKPqQ4bAWWeFnU6SJGVWMTuC/s4779CqVSuOO+445s6dy2OPPcaKFSuIi4ujWrVqlnNJUuguuAC++grq1IF16+Dss+Hmm2HXrrCTSZKkzChmC3r79u2pWbMmK1euZOTIkbRu3ZqkpKSwY0mSlEGFCvDxx3DjjcHjAQPglFNg0aIwU0mSpMwoZgv65ZdfzjPPPMMZZ5zB888/z/r168OOJEnSPiUnw+OPw3vvQf78MHs21KwJ774bdjJJkpSZxGxBf+GFF1i5ciVdu3bljTfeoHjx4rRu3ZpoNEpaWlrY8SRJ2kvr1jB3Lpx4ImzYAG3awPXXw86dYSeTJEmZQcwWdICcOXPSuXNnpk2bxrfffkvVqlUpWrQoJ598Mh07dmTUqFFhR5QkKYOyZWH6dLj11uDxU0/BSSfBwoXh5pIkSbEvpgv6Hx1zzDE89NBDLF26lGHDhrFt2zY6dOgQdixJkvaSmAiPPAJjxkChQjBnDtSqBW+9FXYySZIUyzJNQd8jLi6Os88+m/fee4+lbjorSYphZ54ZTHlv2BA2b4b27eGaa2D79rCTSZKkWJTpCvofFSlSJOwIkiQdUKlSMGUK3HknRCLw/PPBPeoLFoSdTJIkxZpMXdAlScoMEhLgwQdh/HgoXBi++QZq14bhw8NOJkmSYokFXZKkI6R5c/j6a2jSBLZuhYsvhiuugG3bwk4mSZJiQcwW9NTU1LAjSJJ0yBUvDh99BL17B1PeX3kF6tWDH34IO5kkSQpbzBb0kiVLcscdd/Djjz+GHUWSpEMqPh7uvTco6sWKwfffQ506MGgQRKNhp5MkSWGJ2YJ+3XXX8fbbb3P88cdzyimnMHjwYLY5B1CSlIWcemqwynuzZsHK7pddBp07w5YtYSeTJElhiNmCfs8997Bw4UImTZpEhQoV6NatG8WLF+fKK6/ks88+CzueJEmHRNGiweJxDz4IcXEwdCjUrRssJCdJkrKXmC3oezRp0oQhQ4awatUqHnvsMebNm0eDBg2oWrUqAwYMCDueJEn/WlxcsA3b1KlQsiTMnw/168OLLzrlXZKk7CTmC/oeRx11FFdccQUff/wx//3vf1m1ahW33npr2LEkSTpkTjklmPLesiXs2AFXXQUdO8KmTWEnkyRJR0KmKejbtm1j8ODBNG7cmHPOOYdChQrx4IMPhh1LkqRD6uijYcwYeOSRYP/0N98M9kz/6quwk0mSpMMt5gv6zJkzueKKKyhevDjXXXcd5cqVY8qUKfz444/ccccdYceTJOmQi4uDW2+F6dOhTBlYuBBOPBGeecYp75IkZWUxW9AfeeSR9BXcv/32W/r378+qVasYMmQIjRo1CjueJEmHXYMGwcj5OefArl3QrRtccAFs2BB2MkmSdDjEbEHv378/Z5xxBl9//TWfffYZXbt2JU+ePGHHkiTpiCpYEN57DwYOhMREeOcdqFULPv887GSSJOlQSwg7wP6sWLGCxMTEsGNIkhS6SARuuAFOOgnat4dff4WTTw7uU7/hhuC8JEnK/GJ2BH3GjBlUqVKFTftYunbjxo1UrVqVGTNmhJBMkqRw1K0Lc+bA+edDSgrcdBOcey6sWxd2MkmSdCjEbEEfOHAgV155JXnz5t3rXL58+bjqqqvcB12SlO3kzw8jRwYLxiUlwejRUKMGzJwZdjJJkvRvxWxB//rrrznjjDP2e7558+Z8+eWXRzCRJEmxIRKBa6+FTz+FSpVg6VJo1CiY8p6WFnY6SZL0T8VsQV+9evUB70FPSEhgzZo1RzCRJEmxpWbNYMp7hw6Qmgq33w5nnQX+41GSpMwpZgt6yZIl+e677/Z7/ptvvqF48eJHMJEkSbEnTx4YPhxefBFy5IBx44Ip79Onh51MkiT9XTFb0Fu1asU999zDjh079jq3fft2evfuzVlnnRVCMkmSYkskAldeCbNnQ+XKsGIFNG0KDzwQjKxLkqTMIWYL+t133826des49thjeeSRR3j//fd5//336devH8cddxzr1q3jrrvuCjumJEkxo1q1YH/0Sy4J7kW/5x444wxYvTrsZJIk6WDE7D7oRYsWZebMmVxzzTX07NmTaDQKQCQSoUWLFjzzzDMULVo05JSSJMWWo46CIUOCEfTrroOPPgqmvA8fDqeeGlyTmgrTpkWYPr0kuXNHaNoU4uNDjS1JkojhEXSAsmXLMnbsWNauXctnn33Gp59+ytq1axk7dizly5f/x6/7zDPPUK5cOXLkyEH9+vWZPXv2fq8dNWoUderUIX/+/OTOnZsaNWowdOjQva5p3rw5hQoVIhKJMHfu3L1eZ9WqVXTq1IlixYqRO3duatWqxTvvvJPhmnXr1nHRRReRN29e8ufPz+WXX86WLVvSz+/YsYNLL72UatWqkZCQwLnnnvuPfweSpKzt0kuD0fSqVWHVKjj9dOjdG95+G8qVg2bNEhgwoA7NmiVQrhyMGhVyYEmSFNsFfY8CBQpQt25d6tWrR4ECBf7Va40YMYIePXrQu3dv5syZQ/Xq1WnRogW//fbbPq8vWLAgd911F7NmzeKbb76hS5cudOnShQ8//DD9mq1bt9KwYUP69eu33/e95JJLWLBgAaNHj+bbb7+lTZs2tGvXjq+++ir9mosuuojvv/+eiRMnMmbMGKZPn07Xrl3Tz6emppIzZ06uv/56Tj/99H/1e5AkZX1VqgT3pV9xBUSjcN99cMEFsGxZxuuWL4e2bS3pkiSFLVMU9ENpwIABXHnllXTp0oUqVarw/PPPkytXLl599dV9Xt+kSRPOO+88jj/+eCpWrMgNN9zACSecwMcff5x+TadOnejVq9cBS/PMmTPp3r079erVo0KFCtx9993kz58/fS/3efPmMX78eF5++WXq169Pw4YNeeqpp3jzzTdZsWIFALlz5+a5557jyiuvpFixYofwtyJJyqpy5YKXXoKhQ4PF5Pblf3eRceONLionSVKYYvYe9MNh165dfPnll/Ts2TP9WFxcHKeffjqzZs36y+dHo1EmT57MggULDjhavi8nnXQSI0aM4MwzzyR//vy89dZb7NixgyZNmgAwa9Ys8ufPT506ddKfc/rppxMXF8dnn33Geeed97feb4+dO3eyc+fO9MebNm0CICUlhZSUlH/0mofKnvffV44DnTvSWcIQa3kkZX7FikWIRvf/j/1oFJYuhSlTdtO4cfQIJpOk7CWW/j0vFjIoo2xV0NeuXUtqaupei8sVLVqU+fPn7/d5GzdupGTJkuzcuZP4+HieffZZmjVr9rfe+6233qJ9+/YUKlSIhIQEcuXKxbvvvkulSpWA4B71IkWKZHhOQkICBQsWZNWqVX/rvf6ob9++9OnTZ6/jEyZMIFeuXP/4dQ+liRMn/qNzh8ORfr+/Emt5JGVe06eXBOr85XXjxs1l69blhz+QJGVzsfDvedu2bQs7gv4kWxX0fypPnjzMnTuXLVu2MGnSJHr06EGFChXSR78Pxj333MOGDRv46KOPOProo3nvvfdo164dM2bMoFq1aocte8+ePenRo0f6402bNlG6dGmaN29O3rx5D9v7HoyUlBQmTpxIs2bNSExMPOhzRzpLGGItj6TML3fuCAMG/PV1X31Vi7PPrsFJJ0X3OyVekvTPxdK/5+2ZXavYka0K+tFHH018fDyr/7Qh7OrVqw94T3dcXFz6SHeNGjWYN28effv2PeiC/vPPP/P000/z3XffUbVqVQCqV6/OjBkzeOaZZ3j++ecpVqzYXgvV7d69m3Xr1v2r+82Tk5NJTk7e63hiYmLoHwh7HCjLkc4ZS78XiL08kjKvpk2hVKlgQbjoAWawT5kSx5QpcfznP3D11dCpE4T891xJypJi4d/zwn5/7S1bLRKXlJRE7dq1mTRpUvqxtLQ0Jk2aRIMGDQ76ddLS0jLc1/1X9kwdiYvL+OuOj48nLS0NgAYNGrBhw4b0ReMAJk+eTFpaGvXr1z/o95IkaV/i4+GJJ4Lv/zwyHokEX/36weWXQ86c8N130K0blCgBXbvCHzYdkSRJh0m2KugAPXr04KWXXmLIkCHMmzePa665hq1bt9KlSxcg2A7tj4vI9e3bl4kTJ/LLL78wb948HnvsMYYOHcrFF1+cfs26deuYO3cuP/zwAwALFixg7ty56feOV65cmUqVKnHVVVcxe/Zsfv75Zx577DEmTpyYvpf58ccfzxlnnMGVV17J7Nmz+eSTT+jWrRsXXnghJUqUSH+vH374gblz57Ju3To2btzI3Llz97nvuiRJf9amTbAPesmSGY+XKhUcv+02ePllWLECnnwSjj8etm4NVoGvVQtOPBEGD4bt20OJL0lSlpetprgDtG/fnjVr1tCrVy9WrVpFjRo1GD9+fPrCcUuWLMkw0r1161auvfZali1bRs6cOalcuTLDhg2jffv26deMHj06veADXHjhhQD07t2be++9l8TERMaOHcsdd9zB2WefzZYtW6hUqRJDhgyhVatW6c8bPnw43bp147TTTiMuLo7zzz+fJ598MkP+Vq1asXjx4vTHNWvWBIIV5iVJ+itt2kDr1sFq7ePGzaVlyxo0bZpAfPz/X5M/P3TvHoygz5gBzz0H77wDn30WfN10E1x6aTAF/rjjwvpJJEnKeiJRm122smnTJvLly8fGjRtjYpG4sWPH0qpVq30uEre/c0c6SxhiLY+krOfvfs6sXg2DBsELL8CiRf9//NRTg6J+7rngx5Uk/bVY+ve8WOoGCmS7Ke6SJOnvK1oU7rgDFi6EDz6As8+GuDiYPBnatYMyZeCee2DJkrCTSpKUeVnQJUnSQYuPh1atYPRo+PVXuOuuoLyvWgUPPADly8M558DYsZCaGnZaSZIyFwu6JEn6R8qUCUr50qXw1lvBdPe0NPjvf+HMM6FSJXj4YfjTLqKSJGk/LOiSJOlfSUyECy6ASZNg/ny48cZgoblFi6Bnz2CV+A4dYNq0A+/BLklSdmdBlyRJh8xxx8HjjwdbtQ0aBPXqQUoKvPkmNGkC//kPPPUUbNgQdlJJkmKPBV2SJB1yOXMGW7F99hl8+SVceSXkygU//ADXXx/sxX7FFcE5SZIUsKBLkqTDqlYtePHFYFT96aehalXYtg1eeQXq1IG6deHVV4NjkiRlZxZ0SZJ0ROTLB9ddB99+CzNmQMeOkJQEX3wBl18OJUrADTfAvHlhJ5UkKRwWdEmSdERFItCwIQwfDsuWQb9+UKECbNwITz4JVaoE96uPGAG7doWdVpKkI8eCLkmSQlO4MNx2G/z0E4wfD61bQ1xcsOL7hRdC6dJw553BivCSJGV1FnRJkhS6uDho0QLeey8o4716QfHiwR7qffsGI+xnnQVjxkBqathpJUk6PCzokiQpppQuDX36wOLF8M47cPrpwf7pH3wAZ58dlPUHH4RVq8JOKknSoWVBlyRJMSkxEdq0gYkTYcECuPlmKFgQliyBu+8Oinz79jBlSlDgJUnK7CzokiQp5h17LDz6aLCo3GuvQYMGsHs3vPUWnHoqHH88DBwI69eHnVSSpH/Ogi5JkjKNnDmhUyeYORPmzoWrroLcuYMR9ptugpIl4bLLYPZsR9UlSZmPBV2SJGVK1avD88/DihXw7LNQrRps3w6DBkH9+lCnDrz8MmzdGnZSSZIOjgVdkiRlannzwjXXwNdfwyefwMUXQ3IyzJkDV14JJUpA9+7w/fdhJ5Uk6cAs6JIkKUuIROCkk2Do0OBe9f79oWJF2LQJnn4a/vMfaNQI3ngDdu4MO60kSXuzoEuSpCzn6KPhllvgxx9hwgQ47zyIj4cZM6Bjx2AF+DvugF9+CTupJEn/z4IuSZKyrLg4aNYMRo0K9lW/995gIbk1a6BfP6hUCVq2hNGjITU17LSSpOzOgi5JkrKFkiWhd29YtAjefReaNw9Weh8/Hlq3hvLl4f77YeXKsJNKkrIrC7okScpWEhLg3HPhww9h4UK49VYoVAiWLoVevaBMGWjbFiZNcqs2SdKRZUGXJEnZVsWK8MgjwaJyw4bBySfD7t3wzjtw+ulQuTIMGADr1oWdVJKUHVjQJUlStpcjB1x0EXz8MXzzDVx7LeTJEywyd/PNwVZtnTvDp586qi5JOnws6JIkSX9QrRo88wwsXw4vvAA1agTbsr32GjRoALVqBce3bAk7qSQpq7GgS5Ik7UOePNC1K8yZA7NmBSPoOXLA3Llw9dXBqPp118G334adVJKUVVjQJUmSDiASgRNPhMGDg1H1xx6DY46BzZvh2WfhhBOgYcPgHvYdO8JOK0nKzCzokiRJB6lgQejRAxYsgI8+ClZ7T0iATz6BTp2gVCm47bZgdXhJkv4uC7okSdLfFInAaafByJGwZAncd19Qzn//Hfr3D0bYW7QI9lvfvTvstJKkzMKCLkmS9C8ULw733AO//grvvw9nnBEU+AkToE0bKFcO+vQJpsdLknQgFnRJkqRDICEBzjkHxo0LprjffjsULhwU83vvhbJlg8I+cSKkpYWdVpIUiyzokiRJh1iFCvDww7B0Kbz+OpxyCqSmBlPemzeH446DRx8NpsRLkrSHBV2SJOkwSU6GDh1g+nT47jvo1g3y5g1G2G+9FUqWDBaXmzkTotGw00qSwmZBlyRJOgKqVoWnnoIVK+Cll6BWLdi5M9ie7eSToXp1eO65YPs2SVL2ZEGXJEk6gnLnhiuugC++gNmzoUsXyJEDvv0Wrr0WSpSAq6+Gr78OO6kk6UizoEuSJIUgEoG6deHVV4NR9YEDoXJl2LIFXngBatSAk06C116D7dvDTitJOhIs6JIkSSErUABuuAF++AGmTIF27YJV4WfNgs6dgz3Wb74Zfvop7KSSpMPJgi5JkhQjIhFo0gRGjAhWgH/gAShTBtatgwED4NhjoVkzeOcdSEkJO60k6VCzoEuSJMWgYsXgrrvgl1/gv/+FM88MCvxHH0HbtsG+6r16BUVekpQ1WNAlSZJiWHw8nHUWjBkTlPWePaFIEVi5Eu6/H8qVg3PPhfHjIS0t7LSSpH/Dgi5JkpRJlCsHDz0UjJq/+WYwHT4tDd5/H1q2hEqVoF8/WLMm7KSSpH/Cgi5JkpTJJCVB+/bBgnI//ADXXw/58sGvv8IddwSLyl10EcyYAdFo2GklSQfLgi5JkpSJHX88PPFEsFXbK69AnTqwaxe8/jo0agQnnADPPAMbN4adVJL0VyzokiRJWUCuXHDZZfD558HX5ZdDzpzw3XfQrRuULAldu8KcOWEnlSTtjwVdkiQpi6lTB15+ORhVf/LJYJR961Z46SWoXRvq14fBg2HbtrCTSpL+yIIuSZKUReXPD927w/ffw7RpcOGFkJgIs2dDly7BqPpNN8GCBWEnlSSBBV2SJCnLi0SC+9HfeAOWLYO+fYMV4TdsgIEDoXJlOPVUGDkSUlJCDitJ2ZgFXZIkKRspUiRY6X3hQhg7Fs4+G+LighXh27WDMmXg7rthyZKwk0pS9mNBlyRJyobi44O900ePDrZnu/tuKFYMVq2CBx+E8uWD8j52LKSmhp1WkrIHC7okSVI2V6YM3H9/MGo+cmQw3T0tDcaMgTPPhEqVgmnxq1eHnVSSsjYLuiRJkoBgAbm2bWHSJJg/P1hArkABWLQI7rwTSpcOFpqbNg2i0bDTSlLWY0GXJEnSXo47DgYMgOXLYdCgYGu2lBQYMQKaNIGqVYMt3DZsCDupJGUdFnRJkiTtV86ccOml8OmnMGcOXHkl5MoF8+bBDTcEW7VdcQV88UXYSSUp87OgS5Ik6aDUrAkvvggrVsDTTwej6Nu2wSuvQN26wdcrrwTHJEl/nwVdkiRJf0u+fHDddfDttzBjBnTsCElJwSj6FVdAiRLB6PoPP4SdVJIyFwu6JEmS/pFIBBo2hOHDYdky6NcPKlSAjRuD+9OrVg3uV3/zTdi1K+y0khT7LOiSJEn61woXhttug59+gvHjoXVriIsLVnzv0CFYAf7OO4MV4SVJ+2ZBlyRJ0iETFwctWsB778HixdCrFxQvDr/9FuylXqFCsLf6mDGQmhp2WkmKLRZ0SZIkHRalSkGfPkFRf+cdOP30YP/0sWPh7LODsv7gg7BqVdhJJSk2WNAlSZJ0WCUmQps2MHEi/Pgj3HwzFCwIS5bA3XcH09/btYMpU4ICL0nZlQVdkiRJR8wxx8CjjwaLyr32GjRoALt3w8iRcOqpcPzxMHAgrF8fdlJJOvIs6JIkSTricuaETp1g5kyYOxeuvhqOOgoWLICbbgq2auvSBWbPdlRdUvZhQZckSVKoqleH556DFSvg2WehWjXYsQMGD4b69aFOHXjpJdi6NeykknR4WdAlSZIUE/LkgWuuga+/hk8+CUbYk5Nhzhzo2jUYVe/WDb7/PuykknR4WNAlSZIUUyIROOmk4B71Zcugf3+oWBE2bYJnnoH//AcaNYLXX4edO8NOK0mHjgVdkiRJMevoo+GWW4LV3ydMCFaDj4+HGTPgoouCrdxuvx1++SXspJL071nQJUmSFPPi4qBZs2A/9cWL4d57oWRJWLsWHnkEKlWCli3h/feDVeElKTOyoEuSJClTKVkSeveGRYvg3XehefNgpffx4+Hcc6F8ebj//mDROUnKTCzokiRJypQSEoJC/uGHsHAh3HorFCoU3LfeqxeUKQNt28JHH0FaWthpJemvWdAlSZKU6VWsGEx1X7YMhg2Dk0+G1NRgSnyzZlC5MgwYAL//HnZSSdo/C7okSZKyjBw5gsXjPv4YvvkGrr022L7tp5/g5puD6fGdO8OnnwbT4iUplljQJUmSlCVVqxZsy7ZiBbzwAtSoEWzL9tpr0KAB1KwZHN+yJeykkhSwoEuSJClLO+oo6NoV5swJRs47dw5G2r/+Gq6+GkqUCEbav/027KSSsjsLuiRJkrKFSATq14fBg2H58uCe9GOPhc2b4bnn4IQTgnvXhw2DHTvCTispO7KgS5IkKdspWBBuugnmzw9WeW/bNlgVfuZM6NQJSpUKVoVfuDDspJKyEwu6JEmSsq1IBE47DUaOhCVLgv3TS5cOVnt/9FE45phgn/V334Xdu8NOKymrs6BLkiRJQPHicPfd8Msv8P770LJlUOAnToQ2baBsWbj33mB6vCQdDhZ0SZIk6Q8SEuCcc2Ds2GCK++23Q+HCwWrwffoERb1NG5gwAdLSwk4rKSuxoEuSJEn7UaECPPwwLF0Kr78OjRpBamow5b1Fi2CRuf79Ye3asJNKygos6JIkSdJfSE6GDh1g2jT47jvo1g3y5oWff4bbbgsWlevUCT75BKLRsNNKyqws6JIkSdLfULUqPPVUMOX9pZegVi3YuTPYnq1hQ6heHZ59FjZtCjuppMzGgi5JkiT9A7lzwxVXwJdfwuzZ0KUL5MwJ334L110HJUvC1VfD11+HnVRSZmFBlyRJkv6lunXh1VeDFd4HDoTKlWHLFnjhBahRAxo0gNdeg+3bw04qKZZZ0CVJkqRDpEABuOEG+OEHmDIF2rULVoX/9FPo3Dm4V/3mm+Gnn8JOKikWWdAlSZKkQywSgSZNYMSIYAX4Bx+EMmVg3ToYMCBY/f300+GddyAlJey0kmKFBV2SJEk6jIoVgzvvhF9+gTFj4MwzgwI/aRK0bRvsq96rV1DkJWVvFnRJkiTpCIiPD8r5mDHw669BaS9SBFauhPvvh3LloHVrGD8e0tLCTispDBZ0SZIk6QgrWzaY9r50Kbz5ZjAdPi0NRo+Gli2hUiXo1w/WrAk7qaQjyYIuSZIkhSQpCdq3DxaU++GHYIG5fPmCEfY77ggWlevYEWbMgGg07LSSDjcLuiRJkhQDjj8+2KJtxQp45ZVg67Zdu+CNN6BRI6hWDZ5+GjZuDDuppMPFgi5JkiTFkFy54LLLYPZs+OILuOKK4Nj330P37lCiBFx5JcyZE3ZSSYeaBV2SJEmKUbVrw0svwfLl8OSTUKUKbNsGL78cnKtfHwYNCo5Jyvws6JIkSVKMy58/GD3/7juYNg0uvBASE4NR9ssug5Il4cYbYf78sJNK+jcs6JIkSVImEYkE96O/8QYsWwZ9+wbbs23YAE88EdzHfuqpMHJkcP+6pMzFgi5JkiRlQkWKBCu9//wzjB0LZ58NcXHBivDt2kGZMnD33bB4cdhJJR0sC7okSZKUicXFBXunjx4dbM92991QrBisXh3stV6hQlDex46F1NSw00o6EAu6JEmSlEWUKQP33w9LlgTT3E89FdLSYMwYOPNMqFQpmBa/enXYSSXtiwVdkiRJymISE6FtW5g0KVg47qaboEABWLQI7rwTSpcOFpqbNg2i0bDTStrDgi5JkiRlYccdBwMGBFu1DR4cbM2WkgIjRkCTJlC1arCF24YNIQeVZEGXJEmSsoOcOaFzZ/j0U5gzB7p2hdy5Yd48uOEGKFECLr8cvvgi7KRS9mVBlyRJkrKZmjXhhReCUfVnnoH//Ae2b4dXX4W6daFOHXjlFdi6NeykUvZiQZckSZKyqXz54Npr4ZtvYMYMuOgiSEqCL7+EK66AkiXh+uvhhx/CTiplDxZ0SZIkKZuLRKBhQxg2DJYtg379gu3ZNm6Ep54K7lNv3BjefBN27Qo7rZR1WdAlSZIkpStcGG67DX76CcaPh3PPDfZanz4dOnQIVoDv2TNYEV7SoWVBlyRJkrSXuDho0QLefRcWL4ZevaB4cfjtN3j44WCE/cwz4b//hdTUsNNKWYMFXZIkSdIBlSoFffoERf2dd6BZs2D/9LFj4ZxzoHx5eOABWLUq7KRS5mZBlyRJknRQEhOhTRuYMAF+/BFuvhkKFoSlS+Gee4Lp7+3aweTJQYGX9PdY0CVJkiT9bcccA48+GmzV9tpr0KAB7N4NI0fCaafB8cfDwIGwfn3YSaXMw4IuSZIk6R/LkQM6dYKZM2HuXLj6ajjqKFiwAG66CUqUgC5dYPZsR9Wlv2JBlyRJknRIVK8Ozz0HK1YE/3nCCbBjBwweDPXrQ+3a8NJLsGVL2Eml2GRBlyRJknRI5ckTjKTPnRuMrHfqBMnJ8NVX0LUrlCwJ3brBd9+FnVSKLRZ0SZIkSYdFJBLcm/7aa8G96o8+CpUqwaZN8MwzUK0anHIKvP467NwZdlopfBZ0SZIkSYddoULBqu8LFgSrwLdpA/Hx8PHHcNFFwVZut98Ov/wSdlIpPBZ0SZIkSUdMXFywj/o77wT7qvfpE0x5X7sWHnkEKlaEM86A998PVoWXshMLuiRJkqRQlCwJvXrBokXw7rvQokVw/MMP4dxzoXx5uO++YNE5KTuwoEuSJEkKVUJCUMjHj4eFC+G22+Doo2HZMujdG8qUgfPPh48+grS0sNNKh48FXZIkSVLMqFgR+vULyvmwYdCwIaSmwqhRwdT4ypXhscfg99/DTiodehZ0SZIkSTEnOTlYPG7GDPjmG7j22mD7tp9+gltuCabHX3IJzJoF0WjYaaVDw4IuSZIkKaZVqxZsy7ZiBbzwAtSoEWzLNnQonHQS1KwZHN+8Oeyk0r9jQZckSZKUKRx1FHTtCnPmwKefQufOkCMHfP01XH11MKp+7bXBiLuUGVnQJUmSJGUqkQjUrw+DB8Py5TBgABx7bDCC/txzUL06nHxycA/7jh1hp5UOngVdkiRJUqZVsCDcdBPMnw+TJkHbtsGq8DNnQqdOUKoU3HprsDq8FOss6JIkSZIyvUgETj0VRo6EJUvg/vuhdOlgtfdHH4VjjoHmzYP91nfvDjuttG8WdEmSJElZSvHicPfd8MsvMHo0tGwZFPiJE6FNGyhbFu69N5geL8USC7okSZKkLCkhAc4+G8aOhZ9/hjvugMKFg9Xg+/QJivp558GECZCWFnZayYIuSZIkKRsoXx769oWlS+GNN6BRI0hNhffegxYtgkXm+veHtWvDTqrszIIuSZIkKdtIToYLL4Rp0+C776B7d8ibNxhhv+22YKu2iy+GTz6BaDTstMpuLOiSJEmSsqWqVeHJJ4Mp7y+9BLVqwa5dMHw4NGwYbNf27LOwaVPYSZVdWNAlSZIkZWu5c8MVV8CXX8Ls2XDZZZAzJ3z7LVx3HZQoAVddBXPnhp1UWZ0FXZIkSZL+p25deOWVYIX3gQOhcmXYuhVefBFq1oQTT4QhQ2D79rCTKiuyoEuSJEnSnxQoADfcAD/8AFOmQPv2kJgIn30Gl14a3Kveowf8+GPYSZWVWNAlSZIkaT8iEWjSBN58M1gB/sEHg+3Z1q+Hxx+H446D00+Ht9+GlJSw0yqzs6BLkiRJ0kEoWhTuvDNY8X3MGDjzzKDAT5oEF1wQFPdevYIivy+pqTBtWoTp00sybVqE1NQjm1+xL1sW9GeeeYZy5cqRI0cO6tevz+zZs/d77ahRo6hTpw758+cnd+7c1KhRg6FDh+51TfPmzSlUqBCRSIS5+1g94qqrrqJixYrkzJmTwoUL07p1a+bPn5/hmuuvv57atWuTnJxMjRo19pnnrbfeokaNGuTKlYuyZcvSv3//v/3zS5IkSfrn4uODcj5mDPz6a1DaixSBlSvh/vuhXDlo3RrGjYO0tOA5o0YFx5s1S2DAgDo0a5ZAuXLBcWmPbFfQR4wYQY8ePejduzdz5syhevXqtGjRgt9++22f1xcsWJC77rqLWbNm8c0339ClSxe6dOnChx9+mH7N1q1badiwIf369dvv+9auXZtBgwYxb948PvzwQ6LRKM2bNyf1T382u+yyy2jfvv0+X2PcuHFcdNFFXH311Xz33Xc8++yzPP744zz99NP/4DchSZIk6d8qWzaY9r50KYwYEUyHT0uD0aOhVSuoVAk6dYK2bWHZsozPXb48OG5J1x6RaDQaDTvEkVS/fn3q1q2bXmrT0tIoXbo03bt354477jio16hVqxZnnnkm999/f4bjixYtonz58nz11Vf7HQHf45tvvqF69eosXLiQihUrZjh377338t577+01Et+xY0dSUlIYOXJk+rGnnnqKRx55hCVLlhCJRP4y+6ZNm8iXLx8bN24kb968f3n94ZSSksLYsWNp1aoViYmJB33uSGcJQ6zlkZT1+DkjSYfP/Pnw/PPBau8bNhz42kgESpUKRuLj449IvHSx1A0USAg7wJG0a9cuvvzyS3r27Jl+LC4ujtNPP51Zs2b95fOj0SiTJ09mwYIFBxwt/ytbt25l0KBBlC9fntKlSx/083bu3EmuXLkyHMuZMyfLli1j8eLFlCtXbp/P2blzZ/rjTZs2AcG/mKWEvIrFnvffV44DnTvSWcIQa3kkZT1+zkjS4VOxIvTvD336wAMPxPHoo/tv3tFoMPo+ZcpuGjc+smOn/jMg9mSrgr527VpSU1MpWrRohuNFixbd637wP9q4cSMlS5Zk586dxMfH8+yzz9KsWbO//f7PPvsst912G1u3buW4445j4sSJJCUlHfTzW7RowU033cSll15K06ZNWbhwIY899hgAK1eu3GdB79u3L3369Nnr+IQJE/Yq+2GZOHHiPzp3OBzp9/srsZZHUtbj54wkHV5paSWBOn953bhxc9m6dfnhD/QH27ZtO6Lvp7+WrQr6P5UnTx7mzp3Lli1bmDRpEj169KBChQo0adLkb73ORRddRLNmzVi5ciWPPvoo7dq145NPPiFHjhwH9fwrr7ySn3/+mbPOOouUlBTy5s3LDTfcwL333ktc3L6XE+jZsyc9evRIf7xp0yZKly5N8+bNQ5/GkpKSwsSJE2nWrNk+p7jv79yRzhKGWMsjKevxc0aSjozcuSMMGPDX17VsWYPGjasf/kB/sGd2rWJHtiroRx99NPHx8axevTrD8dWrV1OsWLH9Pi8uLo5KlSoBUKNGDebNm0ffvn3/dkHPly8f+fLl45hjjuHEE0+kQIECvPvuu3To0OGgnh+JROjXrx8PPfQQq1atonDhwkyaNAmAChUq7PM5ycnJJCcn73U8MTExZv6F7EBZjnTOWPq9QOzlkZT1+DkjSYdX06bBPebLlwfT2f9szz3oTZsmHPF70P38jz3ZahX3pKQkateunV5qIVgkbtKkSTRo0OCgXyctLS3Dfd3/RDQaJRqN/qPXiY+Pp2TJkiQlJfHGG2/QoEEDChcu/K/ySJIkSTr04uPhiSeC7/+8pvOexwMHHvkF4hSbstUIOkCPHj3o3LkzderUoV69egwcOJCtW7fSpUsXAC655BJKlixJ3759geAe7jp16lCxYkV27tzJ2LFjGTp0KM8991z6a65bt44lS5awYsUKABYsWABAsWLFKFasGL/88gsjRoygefPmFC5cmGXLlvHwww+TM2dOWrVqlf46CxcuZMuWLaxatYrt27enr+JepUoVkpKSWLt2LW+//TZNmjRhx44dDBo0iJEjRzJt2rQj8auTJEmS9A+0aQNvvw033JBxq7VSpYJy3qZNaNEUY7JdQW/fvj1r1qyhV69erFq1iho1ajB+/Pj0heOWLFmS4X7urVu3cu2117Js2TJy5sxJ5cqVGTZsWIa9ykePHp1e8AEuvPBCAHr37s29995Ljhw5mDFjBgMHDmT9+vUULVqURo0aMXPmTIoUKZL+vCuuuCJD2a5ZsyYAv/76a/oCcEOGDOGWW24hGo3SoEEDpk6dSr169Q79L0qSJEnSIdOmDbRuHazWPm7cXFq2rBHKtHbFtmy3D3p2F0t7HboPeubJIynr8XNGksIRS5+/sdQNFMhW96BLkiRJkhSrLOiSJEmSJMUAC7okSZIkSTHAgi5JkiRJUgywoEuSJEmSFAMs6JIkSZIkxQALuiRJkiRJMcCCLkmSJElSDLCgS5IkSZIUAyzokiRJkiTFAAu6JEmSJEkxwIIuSZIkSVIMsKBLkiRJkhQDEsIOoCMrGo0CsGnTppCTQEpKCtu2bWPTpk0kJiYe9LkjnSUMsZZHUtbj54wkhSOWPn/3dII9HUHhs6BnM5s3bwagdOnSISeRJEmSFAs2b95Mvnz5wo4hIBL1zyXZSlpaGitWrCBPnjxEIpFQs2zatInSpUuzdOlS8ubNe9DnjnSWMMRaHklZj58zkhSOWPr8jUajbN68mRIlShAX593PscAR9GwmLi6OUqVKhR0jg7x58+73w+lA5450ljDEWh5JWY+fM5IUjlj5/HXkPLb4ZxJJkiRJkmKABV2SJEmSpBhgQVdokpOT6d27N8nJyX/r3JHOEoZYyyMp6/FzRpLC4eevDsRF4iRJkiRJigGOoEuSJEmSFAMs6JIkSZIkxQALuiRJkiT9Xzv3H1NV/cdx/HVRrgj+oHLjV8iVECRT/NEgdKV9ZRGiieVUcsUMWy5dkpXWHNHMhokgYSytLTH7gajDmhJmipPwR6LgElORCNMUZ03xCk6F8/2jddcN8Adc9ErPx3Y3zufzOZ/zPuePN5/3PfccwAlQoAMAAAAA4AQo0NGhsrOzZbFY5ObmpoiICP3444/X7Vu3bp0GDBggNzc3DRo0SAUFBZKkiooKPfPMM7JYLDKZTMrMzHRoLP+Wk5Mjk8lk93Fzc7vlY7Zk586dGj9+vHx9fWUymbRx48Yb7rNjxw4NGzZM3bp1U1BQkHJychwSC4DO6Z133mmWwwYMGHDdfVrLvwCA1t1oXWcYht5++235+Pioe/fuioqKUmVl5Q3nvZV1KzoXCnR0mLVr12ru3LlKSUnRgQMHFBYWpujoaJ09e7bFvqioKE2dOlWJiYkqKytTXFyc4uLidOjQIdXX1yswMFCLFy+Wt7e3Q2NpTa9evXT69Gnbp6ampj2Xw+bSpUsKCwtTdnb2TY2vrq5WbGysHn/8cZWXlyspKUkzZszQli1bHBIPgM5p4MCBdjnshx9+aHXsrl27FB8f32L+BQC07kbruiVLligrK0srVqzQ3r175eHhoejoaF2+fLnVOduybkUnYgAdJDw83Jg1a5Ztu7Gx0fD19TVSU1Nb7OvevbsREhJiN0dERITx0ksv2bUFBAQYy5Ytc1gsLVm1apXRu3fvWzpGW0gy8vPzrztm3rx5xsCBA+3apkyZYkRHR3dgZADuZikpKUZYWNhNj588ebIRGxtr19ZS/gUAtO7f67qmpibD29vbSEtLs7WdP3/e6Natm/HVV1+1Os+trlvRuXAHHR3iypUr2r9/v6KiomxtLi4uioqKUklJSYt9JpNJrq6udvNER0dr9+7dHRbL9ea2Wq0KCAiQv7+/JkyYoIqKinbF0Va7d++2i11yzHUB0LlVVlbK19dXgYGBmjZtmk6cONHqWPIMADhedXW1zpw5Y5dfe/furYiIiFbza1vXreg8KNDRIc6dO6fGxkZ5eXnZtXt5eenkyZMt9l2+fFkNDQ3Nxp85c6bDYmlt7pCQEH366af6+uuv9fnnn6upqUkjRozQyZMn2xVLW5w5c6bF2Ovq6ppdLwCQpIiICOXk5KiwsFAfffSRqqur9eijj+rixYstjm8tz7Q3/wLAf9nfOfRW8mtb1q3oXLre6QAAZxQZGanIyEjb9ogRIxQaGqqVK1fq3XffvYORAcCNxcTE2P4ePHiwIiIiFBAQoLy8PCUmJt7ByAAAwPVwBx0dok+fPurSpYtqa2vt2mtra3X//fe32Ofm5qbu3bs3G9+Wl8LdbCw3O7erq6uGDh2q48ePtyuWtvD29m4x9l69ejW7XgDQEk9PTwUHB7eaw1rLM+3NvwDwX/Z3Dr2V/OqIdSvubhTo6BBms1nDhw/Xtm3bbG1NTU3atm2bRo4c2WKfYRi6du2a3Txbt261u5Pt6Fhudu7Gxkb99NNP8vHxaVcsbREZGWkXu+SY6wLgv8NqtaqqqqrVHEaeAQDH69evn7y9ve3ya11dnfbu3dtqfnXEuhV3N37ijg4zd+5cJSQk6OGHH1Z4eLgyMzN16dIlTZ8+Xf369dOzzz6r6upqpaWlKTMzU127dlVlZaXS09O1c+dO/fHHHyotLdXHH3+sK1eu6PDhw5L+ennGqVOnVF5erh49eigoKKhdsUjS888/Lz8/P6WmpkqSFi5cqEceeURBQUE6f/680tLSVFNToxkzZrT7ulitVru7WNXV1SovL9e9996rvn376q233tKpU6f02WefSZJmzpypDz/8UPPmzdMLL7yg7du3Ky8vT5s3b253LAA6p9dff13jx49XQECAfv/9d6WkpKhLly6Kj4+X1DznzZkzR6NGjVJ6erpiY2OVm5try78AgNbdaF2XlJSkRYsWqX///urXr5+Sk5Pl6+uruLg42z5jxozRxIkTNXv2bEk3Xreik7vTr5FH57Z8+XKjb9++htlsNsLDw409e/bY+oKCggwPDw+7vry8PCM4ONgwmUyGp6ensXnzZsMwDKO6utqQ1OwzatQoh8QyatQoIyEhwbadlJRkG+vl5WWMHTvWOHDgQLuvh2EYRlFRUYvn8vfxExISmp1XUVGRMWTIEMNsNhuBgYHGqlWrHBILgM5pypQpho+Pj2E2mw0/Pz9jypQpxvHjx239/855hmHY8q/ZbDYGDhxoy78AgNbdaF3X1NRkJCcnG15eXka3bt2MMWPGGEePHrWbIyAgwEhJSbFru966FZ2byTAM4w58LwAAAAAAAP6BZ9ABAAAAAHACFOgAAAAAADgBCnQAAAAAAJwABToAAAAAAE6AAh0AAAAAACdAgQ4AAAAAgBOgQAcAAAAAwAlQoAMA0IlYLBZlZmY67XFMJpM2btzo8HgAAOgMKNABAAAAAHACFOgAANwmV65cudMhAAAAJ0aBDgBABxk9erRmz56tpKQk9enTR9HR0Tp06JBiYmLUo0cPeXl56bnnntO5c+ds+1y8eFHTpk2Th4eHfHx8tGzZMo0ePVpJSUltiiEjI0ODBg2Sh4eH/P399fLLL8tqtdr6c3Jy5OnpqU2bNikkJETu7u6aNGmS6uvrtXr1alksFt1zzz165ZVX1NjYaDf3xYsXFR8fLw8PD/n5+Sk7O9uuv7KyUo899pjc3Nz04IMPauvWrc3imz9/voKDg+Xu7q7AwEAlJyfr6tWrbTpXAADudhToAAB0oNWrV8tsNqukpESLFy/W//73Pw0dOlSlpaUqLCxUbW2tJk+ebBs/d+5clZSU6JtvvtHWrVtVXFysAwcOtPn4Li4uysrKUkVFhVavXq3t27dr3rx5dmPq6+uVlZWl3NxcFRYWaseOHZo4caIKCgpUUFCgNWvWaOXKlVq/fr3dfmlpaQoLC1NZWZnefPNNzZkzx1aENzU16emnn5bZbNbevXu1YsUKzZ8/v1l8PXv2VE5Ojg4fPqwPPvhAn3zyiZYtW9bm8wUA4G5mMgzDuNNBAADQGY0ePVp1dXW2AnvRokUqLi7Wli1bbGNOnjwpf39/HT16VD4+Prrvvvv05ZdfatKkSZKkCxcuyNfXVy+++OJNvZTNYrEoKSmp1Tvu69ev18yZM2137XNycjR9+nQdP35cDzzwgCRp5syZWrNmjWpra9WjRw9J0pNPPimLxaIVK1bYjhMaGqpvv/3WNvfUqVNVV1engoICfffdd4qNjVVNTY18fX0lSYWFhYqJiVF+fr7i4uJajG/p0qXKzc1VaWnpDc8VAIDOpuudDgAAgM5s+PDhtr8PHjyooqIiW9H7T1VVVWpoaNDVq1cVHh5ua+/du7dCQkLafPzvv/9eqampOnLkiOrq6nTt2jVdvnxZ9fX1cnd3lyS5u7vbinNJ8vLyksVisYvTy8tLZ8+etZs7MjKy2fbfXyL8/PPP8vf3txXnLY2XpLVr1yorK0tVVVWyWq26du2aevXq1ebzBQDgbsZP3AEA6EAeHh62v61Wq8aPH6/y8nK7z9/Pajvar7/+qnHjxmnw4MHasGGD9u/fb3tO/J8vrHN1dbXbz2QytdjW1NTk0Ph2796tadOmaezYsdq0aZPKysq0YMECXqYHAPjP4g46AAC3ybBhw7RhwwZZLBZ17dr8X3BgYKBcXV21b98+9e3bV9JfP3E/duxYmwr4/fv3q6mpSenp6XJx+es7+by8vPadxD/s2bOn2XZoaKgkKTQ0VL/99ptOnz4tHx+fFsfv2rVLAQEBWrBgga2tpqbGYfEBAHC34Q46AAC3yaxZs/Tnn38qPj5e+/btU1VVlbZs2aLp06ersbFRPXv2VEJCgt544w0VFRWpoqJCiYmJcnFxkclkuuXjBQUF6erVq1q+fLl++eUXrVmzxvYMuSOUlJRoyZIlOnbsmLKzs7Vu3TrNmTNHkhQVFaXg4GAlJCTo4MGDKi4utivEJal///46ceKEcnNzVVVVpaysLOXn5zssPgAA7jYU6AAA3Ca+vr4qKSlRY2OjnnjiCQ0aNEhJSUny9PS03eHOyMhQZGSkxo0bp6ioKI0cOVKhoaFyc3O75eOFhYUpIyND77//vh566CF98cUXSk1Nddj5vPbaayotLdXQoUO1aNEiZWRkKDo6WtJfb4/Pz89XQ0ODwsPDNWPGDL333nt2+z/11FN69dVXNXv2bA0ZMkS7du1ScnKyw+IDAOBuw1vcAQBwYpcuXZKfn5/S09OVmJh4p8MBAAAdiGfQAQBwImVlZTpy5IjCw8N14cIFLVy4UJI0YcKEOxwZAADoaBToAAA4maVLl+ro0aMym80aPny4iouL1adPHxUXFysmJqbV/axW622MEgAAOBo/cQcA4C7R0NCgU6dOtdofFBR0G6MBAACORoEOAAAAAIAT4C3uAAAAAAA4AQp0AAAAAACcAAU6AAAAAABOgAIdAAAAAAAnQIEOAAAAAIAToEAHAAAAAMAJUKADAAAAAOAEKNABAAAAAHACFOgAAAAAADgBCnQAAAAAAJwABToAAAAAAE6AAh0AAAAAACdAgQ4AAAAAgBOgQAcAAAAAwAlQoAMAAAAA4AQo0AEAAAAAcAIU6AAAAAAAOAEKdAAAAAAAnAAFOgAAAAAAToACHQAAAAAAJ0CBDgAAAACAE/g/Q7W4Ax2PKlMAAAAASUVORK5CYII=;" vertex="1" parent="1">
          <mxGeometry x="1030" y="110" width="1000" height="600" as="geometry" />
        </mxCell>
        <mxCell id="b0SDCwtsSrpGWw1Ykn4l-9" value="" style="rounded=0;whiteSpace=wrap;html=1;strokeColor=none;" vertex="1" parent="1">
          <mxGeometry x="1150" y="650" width="60" height="30" as="geometry" />
        </mxCell>
        <mxCell id="b0SDCwtsSrpGWw1Ykn4l-10" value="&lt;font style=&quot;font-size: 14px;&quot; face=&quot;Sans Serif&quot;&gt;0.0&lt;/font&gt;" style="text;html=1;align=center;verticalAlign=middle;resizable=0;points=[];autosize=1;strokeColor=none;fillColor=none;" vertex="1" parent="1">
          <mxGeometry x="1167" y="643" width="40" height="30" as="geometry" />
        </mxCell>
        <mxCell id="b0SDCwtsSrpGWw1Ykn4l-11" value="&lt;font style=&quot;font-size: 14px;&quot; face=&quot;Sans Serif&quot;&gt;0.1&lt;/font&gt;" style="text;html=1;align=center;verticalAlign=middle;resizable=0;points=[];autosize=1;strokeColor=none;fillColor=none;" vertex="1" parent="1">
          <mxGeometry x="1177" y="658" width="40" height="30" as="geometry" />
        </mxCell>
        <mxCell id="b0SDCwtsSrpGWw1Ykn4l-12" value="" style="endArrow=none;html=1;rounded=0;strokeWidth=1;" edge="1" parent="1">
          <mxGeometry width="50" height="50" relative="1" as="geometry">
            <mxPoint x="1196.95" y="664" as="sourcePoint" />
            <mxPoint x="1196.95" y="648" as="targetPoint" />
          </mxGeometry>
        </mxCell>
        <mxCell id="b0SDCwtsSrpGWw1Ykn4l-13" value="" style="endArrow=none;html=1;rounded=0;strokeWidth=1;" edge="1" parent="1">
          <mxGeometry width="50" height="50" relative="1" as="geometry">
            <mxPoint x="1198" y="664" as="sourcePoint" />
            <mxPoint x="1198" y="648" as="targetPoint" />
          </mxGeometry>
        </mxCell>
        <mxCell id="b0SDCwtsSrpGWw1Ykn4l-15" value="" style="rounded=0;whiteSpace=wrap;html=1;strokeColor=none;" vertex="1" parent="1">
          <mxGeometry x="1083" y="196" width="63" height="16" as="geometry" />
        </mxCell>
        <mxCell id="b0SDCwtsSrpGWw1Ykn4l-14" value="&lt;font style=&quot;font-size: 15px;&quot; face=&quot;Sans Serif&quot;&gt;0.32724&lt;/font&gt;" style="text;html=1;align=center;verticalAlign=middle;resizable=0;points=[];autosize=1;strokeColor=none;fillColor=none;" vertex="1" parent="1">
          <mxGeometry x="1086" y="188" width="70" height="30" as="geometry" />
        </mxCell>
      </root>
    </mxGraphModel>
  </diagram>
</mxfile>
